{
.appVersion = "1352";
copyright = "Copyright 2020 The Bokor Project Authors (https://github.com/danhhong/Bokor)";
customParameters = (
{
name = "Use Typo Metrics";
value = 1;
},
{
name = license;
value = "This Font Software is licensed under the SIL Open Font License, Version 1.1. This license is available with a FAQ at: https://scripts.sil.org/OFL";
},
{
name = licenseURL;
value = "https://scripts.sil.org/OFL";
},
{
name = fsType;
value = (
);
}
);
date = "2020-02-19 02:17:00 +0000";
designer = "Danh Hong";
designerURL = "http://www.nextspell.com";
disablesAutomaticAlignment = 1;
disablesNiceNames = 1;
familyName = Bokor;
featurePrefixes = (
{
code = "lookup lookup_0 {\012sub uni17B7 by uni17B7.r;\012sub uni17B8 by uni17B8.r;\012sub uni17B9 by uni17B9.r;\012sub uni17BA by uni17BA.r;\012sub uni17BE by uni17B8.r;\012sub uni17C6 by uni17C6.r;\012sub uni17C9 by uni17C9.r;\012sub uni17CD by uni17CD.r;\012sub uni17B7_17CD by iMark_17CDkhmer.r;\012} lookup_0;\012";
name = lookup_0;
},
{
code = "lookup lookup_1 {\012sub uni17B7 by uni17B7.a;\012sub uni17B8 by uni17B8.a;\012sub uni17B9 by uni17B9.a;\012sub uni17BA by uni17BA.a;\012sub uni17BE by uni17B8.a;\012sub uni17C6 by uni17C6.a;\012sub uni17CE by uni17CE.a;\012sub uni17D0 by uni17D0.a;\012} lookup_1;\012";
name = lookup_1;
},
{
code = "lookup lookup_10 {\012sub uni17BB by uni17BB.n;\012sub uni17BC by uni17BC.n;\012sub uni17BD by uni17BD.n;\012} lookup_10;\012";
name = lookup_10;
},
{
code = "lookup lookup_11 {\012sub uni17BB.b by uni17BB.n2;\012sub uni17BC.b by uni17BC.n2;\012sub uni17BD.b by uni17BD.n2;\012} lookup_11;\012";
name = lookup_11;
},
{

glyphs = (
{
glyphname = A;
lastChange = "2021-04-01 12:34:41 +0000";
layers = (
{
layerId = "27714DAC-5FBA-4222-9599-87EDA629626A";
paths = (
{
closed = 1;
nodes = (
"103 139 OFFCURVE",
"91 87 OFFCURVE",
"66 53 CURVE SMOOTH",
"39 18 OFFCURVE",
"10 0 OFFCURVE",
"-20 0 CURVE",
"13 -66 LINE",
"433 111 LINE",
"433 174 LINE",
"364 174 OFFCURVE",
"349 215 OFFCURVE",
"349 315 CURVE SMOOTH",
"349 700 LINE",
"533 700 LINE",
"533 139 LINE SMOOTH",
"533 90 OFFCURVE",
"596 24 OFFCURVE",
"656 0 CURVE",
"879 125 LINE",
"879 170 LINE",
"814 183 OFFCURVE",
"781 228 OFFCURVE",
"781 303 CURVE SMOOTH",
"781 700 LINE",
"881 752 LINE",
"881 801 LINE",
"781 801 LINE",
"781 1337 LINE SMOOTH",
"781 1428 OFFCURVE",
"651 1573 OFFCURVE",
"605 1573 CURVE SMOOTH",
"559 1573 OFFCURVE",
"103 1404 OFFCURVE",
"103 1384 CURVE SMOOTH",
"103 209 LINE SMOOTH"
);
},
{
closed = 1;
nodes = (
"498 1382 OFFCURVE",
"533 1332 OFFCURVE",
"533 1231 CURVE SMOOTH",
"533 801 LINE",
"469 801 LINE",
"349 748 LINE",
"349 1352 LINE",
"375 1372 OFFCURVE",
"402 1382 OFFCURVE",
"429 1382 CURVE SMOOTH"
);
}
);
width = 882;
}
);
note = A;
unicode = 0041;
},
{
glyphname = B;
lastChange = "2021-04-01 12:34:41 +0000";
layers = (
{
layerId = "27714DAC-5FBA-4222-9599-87EDA629626A";
paths = (
{
closed = 1;
nodes = (
"348 1482 OFFCURVE",
"285 1548 OFFCURVE",
"225 1573 CURVE",
"18 1456 LINE",
"18 1411 LINE",
"74 1399 OFFCURVE",
"102 1356 OFFCURVE",
"102 1282 CURVE SMOOTH",
"102 299 LINE SMOOTH",
"102 135 OFFCURVE",
"214 0 OFFCURVE",
"281 0 CURVE SMOOTH",
"348 0 OFFCURVE",
"780 169 OFFCURVE",
"780 190 CURVE SMOOTH",
"780 645 LINE SMOOTH",
"780 730 OFFCURVE",
"667 862 OFFCURVE",
"610 879 CURVE",
"722 926 OFFCURVE",
"778 966 OFFCURVE",
"778 997 CURVE SMOOTH",
"778 1341 LINE SMOOTH",
"778 1413 OFFCURVE",
"710 1496 OFFCURVE",
"655 1539 CURVE SMOOTH",
"628 1560 OFFCURVE",
"608 1571 OFFCURVE",
"597 1571 CURVE SMOOTH",
"585 1571 OFFCURVE",
"502 1525 OFFCURVE",
"348 1434 CURVE"
);
},
{
closed = 1;
nodes = (
"532 1100 LINE SMOOTH",
"532 987 OFFCURVE",
"471 913 OFFCURVE",
"348 879 CURVE",
"348 1303 LINE",
"406 1375 OFFCURVE",
"473 1385 OFFCURVE",
"509 1324 CURVE SMOOTH",
"524 1297 OFFCURVE",
"532 1266 OFFCURVE",
"532 1229 CURVE SMOOTH"
);
},
{
closed = 1;
nodes = (
"383 188 OFFCURVE",
"348 239 OFFCURVE",
"348 340 CURVE SMOOTH",
"348 659 LINE",
"374 680 OFFCURVE",
"401 690 OFFCURVE",
"428 690 CURVE SMOOTH",
"497 690 OFFCURVE",
"532 640 OFFCURVE",
"532 539 CURVE SMOOTH",
"532 221 LINE",
"505 199 OFFCURVE",
"478 188 OFFCURVE",
"452 188 CURVE SMOOTH"
);
}
);
width = 862;
}
);
note = B;
unicode = 0042;
},
{
glyphname = C;
lastChange = "2021-04-01 12:34:41 +0000";
layers = (
{
layerId = "27714DAC-5FBA-4222-9599-87EDA629626A";
paths = (
{
closed = 1;
nodes = (
"404 1378 OFFCURVE",
"429 1322 OFFCURVE",
"461 1211 CURVE SMOOTH",
"492 1100 OFFCURVE",
"518 1044 OFFCURVE",
"538 1044 CURVE SMOOTH",
"543 1044 OFFCURVE",
"582 1062 OFFCURVE",
"654 1097 CURVE SMOOTH",
"725 1132 OFFCURVE",
"776 1156 OFFCURVE",
"807 1169 CURVE",
"807 1210 LINE",
"719 1210 OFFCURVE",
"701 1262 OFFCURVE",
"673 1374 CURVE SMOOTH",
"651 1458 OFFCURVE",
"624 1577 OFFCURVE",
"606 1577 CURVE SMOOTH",
"559 1577 OFFCURVE",
"102 1408 OFFCURVE",
"102 1389 CURVE SMOOTH",
"102 367 LINE SMOOTH",
"102 192 OFFCURVE",
"252 0 OFFCURVE",
"389 0 CURVE SMOOTH",
"409 0 OFFCURVE",
"466 19 OFFCURVE",
"561 57 CURVE SMOOTH",
"655 94 OFFCURVE",
"705 113 OFFCURVE",
"712 113 CURVE",
"712 172 LINE",
"551 172 OFFCURVE",
"448 205 OFFCURVE",
"403 270 CURVE SMOOTH",
"356 339 OFFCURVE",
"348 397 OFFCURVE",
"348 512 CURVE SMOOTH",
"348 1358 LINE",
"359 1371 OFFCURVE",
"371 1378 OFFCURVE",
"385 1378 CURVE SMOOTH"
);
}
);
width = 827;
}
);
note = C;
unicode = 0043;
},
{
glyphname = D;
lastChange = "2021-04-01 12:34:41 +0000";
layers = (
{
layerId = "27714DAC-5FBA-4222-9599-87EDA629626A";
paths = (
{
closed = 1;
nodes = (
"780 1432 OFFCURVE",
"651 1577 OFFCURVE",
"602 1577 CURVE",
"348 1434 LINE",
"348 1482 OFFCURVE",
"285 1548 OFFCURVE",
"225 1573 CURVE",
"18 1456 LINE",
"18 1411 LINE",
"74 1399 OFFCURVE",
"102 1356 OFFCURVE",
"102 1282 CURVE SMOOTH",
"102 299 LINE SMOOTH",
"102 135 OFFCURVE",
"214 0 OFFCURVE",
"281 0 CURVE SMOOTH",
"348 0 OFFCURVE",
"780 169 OFFCURVE",
"780 190 CURVE SMOOTH",
"780 1341 LINE SMOOTH"
);
},
{
closed = 1;
nodes = (
"383 188 OFFCURVE",
"348 239 OFFCURVE",
"348 340 CURVE SMOOTH",
"348 1303 LINE",
"374 1323 OFFCURVE",
"401 1333 OFFCURVE",
"428 1333 CURVE SMOOTH",
"497 1333 OFFCURVE",
"532 1285 OFFCURVE",
"532 1188 CURVE SMOOTH",
"532 221 LINE",
"505 199 OFFCURVE",
"478 188 OFFCURVE",
"452 188 CURVE SMOOTH"
);
}
);
width = 882;
}
);
note = D;
unicode = 0044;
},
{
glyphname = E;
lastChange = "2021-04-01 12:34:41 +0000";
layers = (
{
layerId = "27714DAC-5FBA-4222-9599-87EDA629626A";
paths = (
{
closed = 1;
nodes = (
"404 1378 OFFCURVE",
"429 1322 OFFCURVE",
"461 1211 CURVE SMOOTH",
"492 1100 OFFCURVE",
"518 1044 OFFCURVE",
"538 1044 CURVE SMOOTH",
"543 1044 OFFCURVE",
"582 1062 OFFCURVE",
"654 1097 CURVE SMOOTH",
"725 1132 OFFCURVE",
"776 1156 OFFCURVE",
"807 1169 CURVE",
"807 1210 LINE",
"719 1210 OFFCURVE",
"701 1262 OFFCURVE",
"673 1374 CURVE SMOOTH",
"651 1458 OFFCURVE",
"624 1577 OFFCURVE",
"606 1577 CURVE SMOOTH",
"559 1577 OFFCURVE",
"102 1408 OFFCURVE",
"102 1389 CURVE SMOOTH",
"102 311 LINE SMOOTH",
"102 159 OFFCURVE",
"304 0 OFFCURVE",
"389 0 CURVE SMOOTH",
"409 0 OFFCURVE",
"466 19 OFFCURVE",
"561 57 CURVE SMOOTH",
"655 94 OFFCURVE",
"705 113 OFFCURVE",
"712 113 CURVE",
"712 172 LINE",
"589 172 OFFCURVE",
"482 169 OFFCURVE",
"393 246 CURVE SMOOTH",
"363 272 OFFCURVE",
"348 361 OFFCURVE",
"348 512 CURVE SMOOTH",
"348 717 LINE",
"534 717 LINE",
"637 768 LINE",
"637 817 LINE",
"348 817 LINE",
"348 1358 LINE",
"359 1371 OFFCURVE",
"371 1378 OFFCURVE",
"385 1378 CURVE SMOOTH"
);
}
);
width = 827;
}
);
note = E;
unicode = 0045;
},
{
glyphname = F;
lastChange = "2021-04-01 12:34:41 +0000";
layers = (
{
layerId = "27714DAC-5FBA-4222-9599-87EDA629626A";
paths = (
{
closed = 1;
nodes = (
"405 1378 OFFCURVE",
"430 1322 OFFCURVE",
"461 1211 CURVE SMOOTH",
"492 1100 OFFCURVE",
"518 1044 OFFCURVE",
"539 1044 CURVE SMOOTH",
"544 1044 OFFCURVE",
"583 1062 OFFCURVE",
"655 1097 CURVE SMOOTH",
"726 1132 OFFCURVE",
"777 1156 OFFCURVE",
"807 1169 CURVE",
"807 1210 LINE",
"720 1210 OFFCURVE",
"702 1262 OFFCURVE",
"674 1374 CURVE SMOOTH",
"652 1458 OFFCURVE",
"625 1577 OFFCURVE",
"607 1577 CURVE SMOOTH",
"560 1577 OFFCURVE",
"103 1408 OFFCURVE",
"103 1389 CURVE SMOOTH",
"103 209 LINE SMOOTH",
"103 139 OFFCURVE",
"91 87 OFFCURVE",
"66 53 CURVE SMOOTH",
"39 18 OFFCURVE",
"10 0 OFFCURVE",
"-20 0 CURVE",
"13 -66 LINE",
"433 111 LINE",
"433 174 LINE",
"364 174 OFFCURVE",
"349 215 OFFCURVE",
"349 315 CURVE SMOOTH",
"349 700 LINE",
"515 700 LINE",
"617 752 LINE",
"617 801 LINE",
"349 801 LINE",
"349 1358 LINE",
"360 1371 OFFCURVE",
"372 1378 OFFCURVE",
"386 1378 CURVE SMOOTH"
);
}
);
width = 718;
}
);
note = F;
unicode = 0046;
},
{
glyphname = G;
lastChange = "2021-04-01 12:34:41 +0000";
layers = (
{
layerId = "27714DAC-5FBA-4222-9599-87EDA629626A";
paths = (
{
closed = 1;
nodes = (
"383 188 OFFCURVE",
"348 239 OFFCURVE",
"348 340 CURVE SMOOTH",
"348 1358 LINE",
"359 1371 OFFCURVE",
"371 1378 OFFCURVE",
"385 1378 CURVE SMOOTH",
"404 1378 OFFCURVE",
"429 1322 OFFCURVE",
"461 1211 CURVE SMOOTH",
"492 1100 OFFCURVE",
"518 1044 OFFCURVE",
"538 1044 CURVE SMOOTH",
"543 1044 OFFCURVE",
"582 1062 OFFCURVE",
"654 1097 CURVE SMOOTH",
"725 1132 OFFCURVE",
"776 1156 OFFCURVE",
"807 1169 CURVE",
"807 1210 LINE",
"719 1210 OFFCURVE",
"701 1262 OFFCURVE",
"673 1374 CURVE SMOOTH",
"651 1458 OFFCURVE",
"624 1577 OFFCURVE",
"606 1577 CURVE SMOOTH",
"559 1577 OFFCURVE",
"102 1408 OFFCURVE",
"102 1389 CURVE SMOOTH",
"102 299 LINE SMOOTH",
"102 135 OFFCURVE",
"214 0 OFFCURVE",
"281 0 CURVE SMOOTH",
"348 0 OFFCURVE",
"780 169 OFFCURVE",
"780 190 CURVE SMOOTH",
"780 649 LINE SMOOTH",
"780 698 OFFCURVE",
"712 764 OFFCURVE",
"655 788 CURVE",
"448 672 LINE",
"448 627 LINE",
"504 616 OFFCURVE",
"532 568 OFFCURVE",
"532 485 CURVE SMOOTH",
"532 221 LINE",
"505 199 OFFCURVE",
"478 188 OFFCURVE",
"452 188 CURVE SMOOTH"
);
}
);
width = 862;
}
);
note = G;
unicode = 0047;
},
{
glyphname = H;
lastChange = "2021-04-01 12:34:41 +0000";
layers = (
{
layerId = "27714DAC-5FBA-4222-9599-87EDA629626A";
paths = (
{
closed = 1;
nodes = (
"349 1438 LINE SMOOTH",
"349 1487 OFFCURVE",
"286 1553 OFFCURVE",
"226 1577 CURVE",
"19 1460 LINE",
"19 1415 LINE",
"75 1404 OFFCURVE",
"103 1357 OFFCURVE",
"103 1274 CURVE SMOOTH",
"103 209 LINE SMOOTH",
"103 139 OFFCURVE",
"91 87 OFFCURVE",
"66 53 CURVE SMOOTH",
"39 18 OFFCURVE",
"10 0 OFFCURVE",
"-20 0 CURVE",
"13 -66 LINE",
"433 111 LINE",
"433 174 LINE",
"364 174 OFFCURVE",
"349 215 OFFCURVE",
"349 315 CURVE SMOOTH",
"349 737 LINE",
"533 737 LINE",
"533 139 LINE SMOOTH",
"533 90 OFFCURVE",
"596 24 OFFCURVE",
"656 0 CURVE",
"863 117 LINE",
"863 162 LINE",
"807 173 OFFCURVE",
"779 220 OFFCURVE",
"779 303 CURVE SMOOTH",
"779 737 LINE",
"881 788 LINE",
"881 838 LINE",
"779 838 LINE",
"779 1305 LINE SMOOTH",
"779 1374 OFFCURVE",
"791 1426 OFFCURVE",
"816 1460 CURVE SMOOTH",
"843 1495 OFFCURVE",
"872 1513 OFFCURVE",
"902 1513 CURVE",
"869 1579 LINE",
"449 1403 LINE",
"449 1339 LINE",
"517 1339 OFFCURVE",
"533 1299 OFFCURVE",
"533 1198 CURVE SMOOTH",
"533 838 LINE",
"451 838 LINE",
"349 782 LINE"
);
}
);
width = 880;
}
);
note = H;
unicode = 0048;
},
{
glyphname = I;
lastChange = "2021-04-01 12:34:41 +0000";
layers = (
{
layerId = "27714DAC-5FBA-4222-9599-87EDA629626A";
paths = (
{
closed = 1;
nodes = (
"103 195 OFFCURVE",
"89 146 OFFCURVE",
"60 113 CURVE SMOOTH",
"37 88 OFFCURVE",
"1 66 OFFCURVE",
"-20 66 CURVE",
"13 0 LINE",
"14 0 OFFCURVE",
"154 61 OFFCURVE",
"431 182 CURVE",
"431 240 LINE",
"371 240 OFFCURVE",
"349 269 OFFCURVE",
"349 342 CURVE SMOOTH",
"349 1305 LINE SMOOTH",
"349 1374 OFFCURVE",
"361 1426 OFFCURVE",
"386 1460 CURVE SMOOTH",
"413 1495 OFFCURVE",
"441 1513 OFFCURVE",
"472 1513 CURVE",
"439 1579 LINE",
"19 1403 LINE",
"19 1339 LINE",
"87 1339 OFFCURVE",
"103 1299 OFFCURVE",
"103 1198 CURVE SMOOTH",
"103 262 LINE SMOOTH"
);
}
);
width = 450;
}
);
note = I;
unicode = 0049;
},
{
glyphname = J;
lastChange = "2021-04-01 12:34:41 +0000";
layers = (
{
layerId = "27714DAC-5FBA-4222-9599-87EDA629626A";
paths = (
{
closed = 1;
nodes = (
"103 80 OFFCURVE",
"94 -27 OFFCURVE",
"75 -90 CURVE SMOOTH",
"56 -153 OFFCURVE",
"23 -184 OFFCURVE",
"-24 -184 CURVE SMOOTH",
"-94 -184 LINE",
"-94 -246 LINE",
"-39 -276 LINE SMOOTH",
"36 -317 OFFCURVE",
"161 -369 OFFCURVE",
"230 -369 CURVE SMOOTH",
"274 -369 OFFCURVE",
"311 -226 OFFCURVE",
"330 -81 CURVE SMOOTH",
"342 11 OFFCURVE",
"348 110 OFFCURVE",
"348 217 CURVE SMOOTH",
"348 1290 LINE SMOOTH",
"348 1380 OFFCURVE",
"380 1475 OFFCURVE",
"408 1496 CURVE SMOOTH",
"417 1503 OFFCURVE",
"425 1508 OFFCURVE",
"430 1511 CURVE",
"398 1577 LINE",
"259 1495 OFFCURVE",
"100 1408 OFFCURVE",
"-78 1315 CURVE",
"-78 1257 LINE",
"43 1257 OFFCURVE",
"103 1230 OFFCURVE",
"103 1176 CURVE SMOOTH",
"103 231 LINE SMOOTH"
);
}
);
width = 450;
}
);
note = J;
unicode = 004A;
},
{
glyphname = K;
lastChange = "2021-04-01 12:34:41 +0000";
layers = (
{
layerId = "27714DAC-5FBA-4222-9599-87EDA629626A";
paths = (
{
closed = 1;
nodes = (
"779 1374 OFFCURVE",
"791 1426 OFFCURVE",
"816 1460 CURVE SMOOTH",
"843 1495 OFFCURVE",
"872 1513 OFFCURVE",
"902 1513 CURVE",
"869 1579 LINE",
"449 1403 LINE",
"449 1339 LINE",
"517 1339 OFFCURVE",
"533 1299 OFFCURVE",
"533 1198 CURVE SMOOTH",
"533 932 LINE SMOOTH",
"533 883 OFFCURVE",
"420 827 OFFCURVE",
"349 827 CURVE",
"349 1436 LINE SMOOTH",
"349 1481 OFFCURVE",
"286 1548 OFFCURVE",
"226 1573 CURVE",
"19 1456 LINE",
"19 1411 LINE",
"75 1400 OFFCURVE",
"103 1353 OFFCURVE",
"103 1270 CURVE SMOOTH",
"103 209 LINE SMOOTH",
"103 139 OFFCURVE",
"91 87 OFFCURVE",
"66 53 CURVE SMOOTH",
"39 18 OFFCURVE",
"10 0 OFFCURVE",
"-20 0 CURVE",
"13 -66 LINE",
"433 111 LINE",
"433 174 LINE",
"364 174 OFFCURVE",
"349 215 OFFCURVE",
"349 315 CURVE SMOOTH",
"349 731 LINE",
"359 735 LINE",
"359 591 OFFCURVE",
"579 0 OFFCURVE",
"674 0 CURVE SMOOTH",
"708 0 OFFCURVE",
"789 40 OFFCURVE",
"916 121 CURVE",
"916 182 LINE",
"823 182 OFFCURVE",
"722 310 OFFCURVE",
"661 455 CURVE SMOOTH",
"600 599 OFFCURVE",
"558 748 OFFCURVE",
"558 805 CURVE",
"708 865 OFFCURVE",
"782 900 OFFCURVE",
"779 909 CURVE",
"779 1305 LINE SMOOTH"
);
}
);
width = 872;
}
);
note = K;
unicode = 004B;
},
{
glyphname = L;
lastChange = "2021-04-01 12:34:41 +0000";
layers = (
{
layerId = "27714DAC-5FBA-4222-9599-87EDA629626A";
paths = (
{
closed = 1;
nodes = (
"102 189 OFFCURVE",
"211 79 OFFCURVE",
"299 34 CURVE SMOOTH",
"342 11 OFFCURVE",
"377 0 OFFCURVE",
"402 0 CURVE SMOOTH",
"427 0 OFFCURVE",
"531 38 OFFCURVE",
"712 115 CURVE",
"712 172 LINE",
"625 172 OFFCURVE",
"545 180 OFFCURVE",
"473 197 CURVE SMOOTH",
"442 205 OFFCURVE",
"409 229 OFFCURVE",
"376 270 CURVE SMOOTH",
"357 292 OFFCURVE",
"348 358 OFFCURVE",
"348 467 CURVE SMOOTH",
"348 1305 LINE SMOOTH",
"348 1374 OFFCURVE",
"360 1426 OFFCURVE",
"385 1460 CURVE SMOOTH",
"412 1495 OFFCURVE",
"441 1513 OFFCURVE",
"471 1513 CURVE",
"438 1579 LINE",
"18 1403 LINE",
"18 1339 LINE",
"86 1339 OFFCURVE",
"102 1299 OFFCURVE",
"102 1198 CURVE SMOOTH",
"102 309 LINE SMOOTH"
);
}
);
width = 753;
}
);
note = L;
unicode = 004C;
},
{
glyphname = M;
lastChange = "2021-04-01 12:34:41 +0000";
layers = (
{
layerId = "27714DAC-5FBA-4222-9599-87EDA629626A";
paths = (
{
closed = 1;
nodes = (
"103 139 OFFCURVE",
"91 87 OFFCURVE",
"66 53 CURVE SMOOTH",
"39 18 OFFCURVE",
"10 0 OFFCURVE",
"-20 0 CURVE",
"13 -66 LINE",
"433 111 LINE",
"433 174 LINE",
"364 174 OFFCURVE",
"349 215 OFFCURVE",
"349 315 CURVE SMOOTH",
"349 1366 LINE",
"493 1366 OFFCURVE",
"533 1315 OFFCURVE",
"533 1143 CURVE SMOOTH",
"533 139 LINE SMOOTH",
"533 90 OFFCURVE",
"596 24 OFFCURVE",
"656 0 CURVE",
"879 125 LINE",
"879 170 LINE",
"812 183 OFFCURVE",
"779 228 OFFCURVE",
"779 303 CURVE SMOOTH",
"779 1366 LINE",
"918 1361 OFFCURVE",
"963 1307 OFFCURVE",
"963 1143 CURVE SMOOTH",
"963 139 LINE SMOOTH",
"963 90 OFFCURVE",
"1026 24 OFFCURVE",
"1086 0 CURVE",
"1309 125 LINE",
"1309 170 LINE",
"1242 183 OFFCURVE",
"1209 228 OFFCURVE",
"1209 303 CURVE SMOOTH",
"1209 1333 LINE SMOOTH",
"1209 1429 OFFCURVE",
"1116 1577 OFFCURVE",
"1029 1577 CURVE SMOOTH",
"1007 1577 OFFCURVE",
"943 1550 OFFCURVE",
"836 1495 CURVE SMOOTH",
"783 1468 OFFCURVE",
"755 1453 OFFCURVE",
"752 1452 CURVE",
"723 1520 OFFCURVE",
"654 1577 OFFCURVE",
"606 1577 CURVE SMOOTH",
"582 1577 OFFCURVE",
"519 1548 OFFCURVE",
"418 1491 CURVE SMOOTH",
"380 1469 OFFCURVE",
"357 1456 OFFCURVE",
"349 1452 CURVE",
"349 1509 OFFCURVE",
"288 1559 OFFCURVE",
"261 1568 CURVE SMOOTH",
"247 1573 OFFCURVE",
"235 1576 OFFCURVE",
"226 1579 CURVE",
"87 1497 OFFCURVE",
"12 1455 OFFCURVE",
"3 1454 CURVE",
"3 1409 LINE",
"60 1409 OFFCURVE",
"103 1334 OFFCURVE",
"103 1243 CURVE SMOOTH",
"103 209 LINE SMOOTH"
);
}
);
width = 1310;
}
);
note = M;
unicode = 004D;
},
{
glyphname = N;
lastChange = "2021-04-01 12:34:41 +0000";
layers = (
{
layerId = "27714DAC-5FBA-4222-9599-87EDA629626A";
paths = (
{
closed = 1;
nodes = (
"103 148 OFFCURVE",
"89 87 OFFCURVE",
"60 49 CURVE SMOOTH",
"34 16 OFFCURVE",
"7 0 OFFCURVE",
"-20 0 CURVE",
"13 -66 LINE",
"433 111 LINE",
"433 174 LINE",
"376 174 OFFCURVE",
"349 206 OFFCURVE",
"349 315 CURVE SMOOTH",
"349 1366 LINE",
"493 1366 OFFCURVE",
"533 1315 OFFCURVE",
"533 1143 CURVE SMOOTH",
"533 139 LINE SMOOTH",
"533 90 OFFCURVE",
"596 24 OFFCURVE",
"656 0 CURVE",
"879 125 LINE",
"879 170 LINE",
"812 183 OFFCURVE",
"779 228 OFFCURVE",
"779 303 CURVE SMOOTH",
"779 1333 LINE SMOOTH",
"779 1429 OFFCURVE",
"686 1577 OFFCURVE",
"598 1577 CURVE SMOOTH",
"579 1577 OFFCURVE",
"519 1548 OFFCURVE",
"418 1491 CURVE SMOOTH",
"380 1469 OFFCURVE",
"357 1456 OFFCURVE",
"349 1452 CURVE",
"349 1509 OFFCURVE",
"288 1559 OFFCURVE",
"261 1568 CURVE SMOOTH",
"247 1573 OFFCURVE",
"235 1576 OFFCURVE",
"226 1579 CURVE",
"87 1497 OFFCURVE",
"12 1455 OFFCURVE",
"3 1454 CURVE",
"3 1409 LINE",
"60 1409 OFFCURVE",
"103 1334 OFFCURVE",
"103 1243 CURVE SMOOTH",
"103 233 LINE SMOOTH"
);
}
);
width = 880;
}
);
note = N;
unicode = 004E;
},
{
glyphname = O;
lastChange = "2021-04-01 12:34:41 +0000";
layers = (
{
layerId = "27714DAC-5FBA-4222-9599-87EDA629626A";
paths = (
{
closed = 1;
nodes = (
"102 135 OFFCURVE",
"214 0 OFFCURVE",
"281 0 CURVE SMOOTH",
"348 0 OFFCURVE",
"780 169 OFFCURVE",
"780 190 CURVE SMOOTH",
"780 1341 LINE SMOOTH",
"780 1432 OFFCURVE",
"651 1577 OFFCURVE",
"604 1577 CURVE SMOOTH",
"557 1577 OFFCURVE",
"102 1408 OFFCURVE",
"102 1389 CURVE SMOOTH",
"102 299 LINE SMOOTH"
);
},
{
closed = 1;
nodes = (
"383 188 OFFCURVE",
"348 239 OFFCURVE",
"348 340 CURVE SMOOTH",
"348 1356 LINE",
"374 1376 OFFCURVE",
"401 1386 OFFCURVE",
"428 1386 CURVE SMOOTH",
"497 1386 OFFCURVE",
"532 1336 OFFCURVE",
"532 1235 CURVE SMOOTH",
"532 221 LINE",
"505 199 OFFCURVE",
"478 188 OFFCURVE",
"452 188 CURVE SMOOTH"
);
}
);
width = 882;
}
);
note = O;
unicode = 004F;
},
{
glyphname = P;
lastChange = "2021-04-01 12:34:41 +0000";
layers = (
{
layerId = "27714DAC-5FBA-4222-9599-87EDA629626A";
paths = (
{
closed = 1;
nodes = (
"349 1481 OFFCURVE",
"281 1550 OFFCURVE",
"226 1573 CURVE",
"19 1456 LINE",
"19 1411 LINE",
"75 1400 OFFCURVE",
"103 1353 OFFCURVE",
"103 1270 CURVE SMOOTH",
"103 209 LINE SMOOTH",
"103 139 OFFCURVE",
"91 87 OFFCURVE",
"66 53 CURVE SMOOTH",
"39 18 OFFCURVE",
"10 0 OFFCURVE",
"-20 0 CURVE",
"13 -66 LINE",
"433 111 LINE",
"433 174 LINE",
"364 174 OFFCURVE",
"349 215 OFFCURVE",
"349 315 CURVE SMOOTH",
"349 522 LINE",
"490 566 OFFCURVE",
"781 681 OFFCURVE",
"781 700 CURVE SMOOTH",
"781 1337 LINE SMOOTH",
"781 1428 OFFCURVE",
"650 1573 OFFCURVE",
"607 1573 CURVE SMOOTH",
"585 1573 OFFCURVE",
"499 1527 OFFCURVE",
"349 1436 CURVE"
);
},
{
closed = 1;
nodes = (
"498 1376 OFFCURVE",
"533 1326 OFFCURVE",
"533 1225 CURVE SMOOTH",
"533 723 LINE SMOOTH",
"533 674 OFFCURVE",
"420 618 OFFCURVE",
"349 618 CURVE",
"349 1346 LINE",
"378 1366 OFFCURVE",
"404 1376 OFFCURVE",
"429 1376 CURVE SMOOTH"
);
}
);
width = 862;
}
);
note = P;
unicode = 0050;
},
{
glyphname = Q;
lastChange = "2021-04-01 12:34:41 +0000";
layers = (
{
layerId = "27714DAC-5FBA-4222-9599-87EDA629626A";
paths = (
{
closed = 1;
nodes = (
"102 135 OFFCURVE",
"213 0 OFFCURVE",
"286 0 CURVE SMOOTH",
"305 0 OFFCURVE",
"346 11 OFFCURVE",
"407 33 CURVE",
"516 -221 OFFCURVE",
"598 -348 OFFCURVE",
"653 -348 CURVE SMOOTH",
"692 -348 OFFCURVE",
"773 -307 OFFCURVE",
"895 -225 CURVE",
"895 -166 LINE",
"794 -166 OFFCURVE",
"700 -74 OFFCURVE",
"614 109 CURVE",
"725 152 OFFCURVE",
"780 179 OFFCURVE",
"780 190 CURVE SMOOTH",
"780 1341 LINE SMOOTH",
"780 1432 OFFCURVE",
"651 1577 OFFCURVE",
"604 1577 CURVE SMOOTH",
"557 1577 OFFCURVE",
"102 1408 OFFCURVE",
"102 1389 CURVE SMOOTH",
"102 299 LINE SMOOTH"
);
},
{
closed = 1;
nodes = (
"383 188 OFFCURVE",
"348 239 OFFCURVE",
"348 340 CURVE SMOOTH",
"348 1356 LINE",
"374 1376 OFFCURVE",
"401 1386 OFFCURVE",
"428 1386 CURVE SMOOTH",
"497 1386 OFFCURVE",
"532 1336 OFFCURVE",
"532 1235 CURVE SMOOTH",
"532 221 LINE",
"505 199 OFFCURVE",
"478 188 OFFCURVE",
"452 188 CURVE SMOOTH"
);
}
);
width = 882;
}
);
note = Q;
unicode = 0051;
},
{
glyphname = R;
lastChange = "2021-04-01 12:34:41 +0000";
layers = (
{
layerId = "27714DAC-5FBA-4222-9599-87EDA629626A";
paths = (
{
closed = 1;
nodes = (
"103 139 OFFCURVE",
"91 87 OFFCURVE",
"66 53 CURVE SMOOTH",
"39 18 OFFCURVE",
"10 0 OFFCURVE",
"-20 0 CURVE",
"13 -66 LINE",
"433 111 LINE",
"433 174 LINE",
"364 174 OFFCURVE",
"349 215 OFFCURVE",
"349 315 CURVE SMOOTH",
"349 584 LINE",
"371 590 LINE",
"382 481 OFFCURVE",
"563 0 OFFCURVE",
"654 0 CURVE SMOOTH",
"688 0 OFFCURVE",
"768 40 OFFCURVE",
"895 121 CURVE",
"895 182 LINE",
"856 182 OFFCURVE",
"817 198 OFFCURVE",
"779 229 CURVE SMOOTH",
"694 303 OFFCURVE",
"621 446 OFFCURVE",
"558 657 CURVE",
"707 716 OFFCURVE",
"781 751 OFFCURVE",
"781 762 CURVE SMOOTH",
"781 1337 LINE SMOOTH",
"781 1428 OFFCURVE",
"650 1573 OFFCURVE",
"607 1573 CURVE SMOOTH",
"585 1573 OFFCURVE",
"499 1527 OFFCURVE",
"349 1436 CURVE",
"349 1481 OFFCURVE",
"281 1550 OFFCURVE",
"226 1573 CURVE",
"19 1456 LINE",
"19 1411 LINE",
"75 1400 OFFCURVE",
"103 1353 OFFCURVE",
"103 1270 CURVE SMOOTH",
"103 209 LINE SMOOTH"
);
},
{
closed = 1;
nodes = (
"498 1376 OFFCURVE",
"533 1326 OFFCURVE",
"533 1225 CURVE SMOOTH",
"533 784 LINE SMOOTH",
"533 736 OFFCURVE",
"420 680 OFFCURVE",
"349 680 CURVE",
"349 1346 LINE",
"378 1366 OFFCURVE",
"404 1376 OFFCURVE",
"429 1376 CURVE SMOOTH"
);
}
);
width = 884;
}
);
note = R;
unicode = 0052;
},
{
glyphname = S;
lastChange = "2021-04-01 12:34:41 +0000";
layers = (
{
layerId = "27714DAC-5FBA-4222-9599-87EDA629626A";
paths = (
{
closed = 1;
nodes = (
"236 653 OFFCURVE",
"279 670 OFFCURVE",
"354 703 CURVE SMOOTH",
"429 736 OFFCURVE",
"472 752 OFFCURVE",
"483 752 CURVE SMOOTH",
"517 752 OFFCURVE",
"534 721 OFFCURVE",
"534 659 CURVE SMOOTH",
"534 199 LINE SMOOTH",
"534 160 OFFCURVE",
"504 137 OFFCURVE",
"476 137 CURVE SMOOTH",
"457 137 OFFCURVE",
"429 184 OFFCURVE",
"392 279 CURVE SMOOTH",
"354 373 OFFCURVE",
"325 420 OFFCURVE",
"304 420 CURVE SMOOTH",
"297 420 OFFCURVE",
"250 396 OFFCURVE",
"163 348 CURVE SMOOTH",
"128 329 OFFCURVE",
"99 314 OFFCURVE",
"77 305 CURVE",
"77 264 LINE",
"144 264 OFFCURVE",
"201 -20 OFFCURVE",
"276 -20 CURVE SMOOTH",
"321 -20 OFFCURVE",
"779 157 OFFCURVE",
"779 209 CURVE SMOOTH",
"779 645 LINE SMOOTH",
"779 727 OFFCURVE",
"767 794 OFFCURVE",
"742 847 CURVE SMOOTH",
"717 900 OFFCURVE",
"688 926 OFFCURVE",
"655 926 CURVE SMOOTH",
"638 926 OFFCURVE",
"590 908 OFFCURVE",
"511 873 CURVE SMOOTH",
"432 837 OFFCURVE",
"389 819 OFFCURVE",
"384 819 CURVE SMOOTH",
"359 819 OFFCURVE",
"347 846 OFFCURVE",
"347 901 CURVE SMOOTH",
"347 1358 LINE SMOOTH",
"347 1399 OFFCURVE",
"359 1419 OFFCURVE",
"384 1419 CURVE SMOOTH",
"403 1419 OFFCURVE",
"428 1379 OFFCURVE",
"459 1299 CURVE SMOOTH",
"490 1218 OFFCURVE",
"515 1178 OFFCURVE",
"536 1178 CURVE SMOOTH",
"543 1178 OFFCURVE",
"589 1202 OFFCURVE",
"675 1249 CURVE SMOOTH",
"712 1268 OFFCURVE",
"741 1283 OFFCURVE",
"763 1292 CURVE",
"763 1333 LINE",
"736 1333 OFFCURVE",
"713 1349 OFFCURVE",
"695 1382 CURVE SMOOTH",
"687 1397 OFFCURVE",
"677 1417 OFFCURVE",
"664 1440 CURVE SMOOTH",
"651 1463 OFFCURVE",
"641 1482 OFFCURVE",
"634 1495 CURVE SMOOTH",
"604 1550 OFFCURVE",
"581 1577 OFFCURVE",
"564 1577 CURVE SMOOTH",
"521 1577 OFFCURVE",
"102 1399 OFFCURVE",
"102 1348 CURVE SMOOTH",
"102 922 LINE SMOOTH",
"102 771 OFFCURVE",
"158 653 OFFCURVE",
"227 653 CURVE SMOOTH"
);
}
);
width = 870;
}
);
note = S;
unicode = 0053;
},
{
glyphname = T;
lastChange = "2021-04-01 12:34:41 +0000";
layers = (
{
layerId = "27714DAC-5FBA-4222-9599-87EDA629626A";
paths = (
{
closed = 1;
nodes = (
"251 139 OFFCURVE",
"239 87 OFFCURVE",
"214 53 CURVE SMOOTH",
"187 18 OFFCURVE",
"158 0 OFFCURVE",
"128 0 CURVE",
"161 -66 LINE",
"580 111 LINE",
"580 174 LINE",
"512 174 OFFCURVE",
"496 215 OFFCURVE",
"496 315 CURVE SMOOTH",
"496 1356 LINE",
"726 1356 LINE SMOOTH",
"775 1356 OFFCURVE",
"832 1404 OFFCURVE",
"865 1456 CURVE",
"748 1624 LINE",
"703 1624 LINE",
"692 1579 OFFCURVE",
"645 1556 OFFCURVE",
"562 1556 CURVE SMOOTH",
"21 1556 LINE SMOOTH",
"-28 1556 OFFCURVE",
"-85 1508 OFFCURVE",
"-118 1456 CURVE",
"-1 1288 LINE",
"44 1288 LINE",
"55 1333 OFFCURVE",
"102 1356 OFFCURVE",
"185 1356 CURVE SMOOTH",
"314 1356 LINE",
"251 1294 LINE",
"251 209 LINE SMOOTH"
);
}
);
width = 747;
}
);
note = T;
unicode = 0054;
},
{
glyphname = U;
lastChange = "2021-04-01 12:34:41 +0000";
layers = (
{
layerId = "27714DAC-5FBA-4222-9599-87EDA629626A";
paths = (
{
closed = 1;
nodes = (
"388 213 OFFCURVE",
"348 264 OFFCURVE",
"348 436 CURVE SMOOTH",
"348 1440 LINE SMOOTH",
"348 1489 OFFCURVE",
"285 1555 OFFCURVE",
"225 1579 CURVE",
"2 1454 LINE",
"2 1409 LINE",
"69 1396 OFFCURVE",
"102 1351 OFFCURVE",
"102 1276 CURVE SMOOTH",
"102 246 LINE SMOOTH",
"102 147 OFFCURVE",
"195 2 OFFCURVE",
"283 2 CURVE SMOOTH",
"302 2 OFFCURVE",
"362 31 OFFCURVE",
"463 88 CURVE SMOOTH",
"501 110 OFFCURVE",
"524 123 OFFCURVE",
"532 127 CURVE",
"532 70 OFFCURVE",
"593 20 OFFCURVE",
"621 11 CURVE SMOOTH",
"634 6 OFFCURVE",
"646 3 OFFCURVE",
"655 0 CURVE",
"794 82 OFFCURVE",
"869 124 OFFCURVE",
"879 125 CURVE",
"879 170 LINE",
"822 170 OFFCURVE",
"778 245 OFFCURVE",
"778 336 CURVE SMOOTH",
"778 1305 LINE SMOOTH",
"778 1374 OFFCURVE",
"790 1426 OFFCURVE",
"815 1460 CURVE SMOOTH",
"842 1495 OFFCURVE",
"871 1513 OFFCURVE",
"901 1513 CURVE",
"868 1579 LINE",
"448 1403 LINE",
"448 1339 LINE",
"517 1339 OFFCURVE",
"532 1299 OFFCURVE",
"532 1198 CURVE SMOOTH",
"532 213 LINE"
);
}
);
width = 880;
}
);
note = U;
unicode = 0055;
},
{
glyphname = V;
lastChange = "2021-04-01 12:34:41 +0000";
layers = (
{
layerId = "27714DAC-5FBA-4222-9599-87EDA629626A";
paths = (
{
closed = 1;
nodes = (
"348 1440 LINE SMOOTH",
"348 1489 OFFCURVE",
"285 1555 OFFCURVE",
"225 1579 CURVE",
"2 1454 LINE",
"2 1409 LINE",
"69 1396 OFFCURVE",
"102 1351 OFFCURVE",
"102 1276 CURVE SMOOTH",
"102 266 LINE SMOOTH",
"102 169 OFFCURVE",
"194 0 OFFCURVE",
"279 0 CURVE SMOOTH",
"363 0 OFFCURVE",
"780 166 OFFCURVE",
"780 190 CURVE SMOOTH",
"780 1305 LINE SMOOTH",
"780 1374 OFFCURVE",
"793 1426 OFFCURVE",
"819 1460 CURVE SMOOTH",
"845 1495 OFFCURVE",
"873 1513 OFFCURVE",
"903 1513 CURVE",
"870 1579 LINE",
"451 1403 LINE",
"451 1339 LINE",
"519 1339 OFFCURVE",
"532 1299 OFFCURVE",
"532 1198 CURVE SMOOTH",
"532 184 LINE",
"457 147 OFFCURVE",
"417 140 OFFCURVE",
"377 189 CURVE SMOOTH",
"358 212 OFFCURVE",
"348 240 OFFCURVE",
"348 274 CURVE SMOOTH"
);
}
);
width = 882;
}
);
note = V;
unicode = 0056;
},
{
glyphname = W;
lastChange = "2021-04-01 12:34:41 +0000";
layers = (
{
layerId = "27714DAC-5FBA-4222-9599-87EDA629626A";
paths = (
{
closed = 1;
nodes = (
"511 209 OFFCURVE",
"490 205 OFFCURVE",
"469 205 CURVE SMOOTH",
"388 205 OFFCURVE",
"348 270 OFFCURVE",
"348 399 CURVE SMOOTH",
"348 1442 LINE SMOOTH",
"348 1489 OFFCURVE",
"285 1555 OFFCURVE",
"225 1579 CURVE",
"2 1454 LINE",
"2 1409 LINE",
"69 1396 OFFCURVE",
"102 1351 OFFCURVE",
"102 1276 CURVE SMOOTH",
"102 248 LINE SMOOTH",
"102 149 OFFCURVE",
"195 0 OFFCURVE",
"275 0 CURVE SMOOTH",
"314 0 OFFCURVE",
"409 42 OFFCURVE",
"559 127 CURVE",
"602 42 OFFCURVE",
"655 0 OFFCURVE",
"719 0 CURVE SMOOTH",
"790 0 OFFCURVE",
"1210 166 OFFCURVE",
"1210 190 CURVE SMOOTH",
"1210 1276 LINE SMOOTH",
"1210 1381 OFFCURVE",
"1179 1465 OFFCURVE",
"1116 1528 CURVE SMOOTH",
"1083 1561 OFFCURVE",
"1053 1577 OFFCURVE",
"1026 1577 CURVE SMOOTH",
"1023 1577 OFFCURVE",
"783 1457 OFFCURVE",
"778 1452 CURVE",
"765 1512 OFFCURVE",
"680 1577 OFFCURVE",
"655 1577 CURVE SMOOTH",
"654 1577 OFFCURVE",
"579 1536 OFFCURVE",
"432 1454 CURVE",
"432 1409 LINE",
"499 1396 OFFCURVE",
"532 1351 OFFCURVE",
"532 1276 CURVE SMOOTH",
"532 217 LINE"
);
},
{
closed = 1;
nodes = (
"780 1382 LINE",
"908 1379 OFFCURVE",
"963 1345 OFFCURVE",
"963 1202 CURVE SMOOTH",
"963 219 LINE",
"898 190 OFFCURVE",
"836 189 OFFCURVE",
"806 257 CURVE SMOOTH",
"789 294 OFFCURVE",
"780 335 OFFCURVE",
"780 379 CURVE SMOOTH"
);
}
);
width = 1312;
}
);
note = W;
unicode = 0057;
},
{
glyphname = X;
lastChange = "2021-04-01 12:34:41 +0000";
layers = (
{
layerId = "27714DAC-5FBA-4222-9599-87EDA629626A";
paths = (
{
closed = 1;
nodes = (
"101 1409 OFFCURVE",
"140 1405 OFFCURVE",
"162 1343 CURVE SMOOTH",
"338 813 LINE",
"286 794 OFFCURVE",
"232 771 OFFCURVE",
"176 745 CURVE SMOOTH",
"120 718 OFFCURVE",
"92 699 OFFCURVE",
"92 688 CURVE SMOOTH",
"92 133 LINE SMOOTH",
"92 78 OFFCURVE",
"194 0 OFFCURVE",
"215 0 CURVE",
"412 117 LINE",
"412 162 LINE",
"389 168 LINE SMOOTH",
"362 173 OFFCURVE",
"328 220 OFFCURVE",
"328 299 CURVE SMOOTH",
"328 696 LINE",
"371 717 LINE",
"608 0 LINE",
"698 0 LINE",
"922 125 LINE",
"922 170 LINE",
"842 170 OFFCURVE",
"806 174 OFFCURVE",
"793 213 CURVE SMOOTH",
"592 817 LINE",
"759 877 OFFCURVE",
"842 919 OFFCURVE",
"842 942 CURVE SMOOTH",
"842 1446 LINE SMOOTH",
"842 1501 OFFCURVE",
"740 1579 OFFCURVE",
"719 1579 CURVE",
"522 1462 LINE",
"522 1417 LINE",
"545 1413 LINE",
"572 1405 OFFCURVE",
"606 1359 OFFCURVE",
"606 1280 CURVE SMOOTH",
"606 934 LINE",
"561 913 LINE",
"338 1577 LINE",
"258 1577 LINE",
"45 1452 LINE",
"45 1409 LINE"
);
}
);
width = 933;
}
);
note = X;
unicode = 0058;
},
{
glyphname = Y;
lastChange = "2021-04-01 12:34:41 +0000";
layers = (
{
layerId = "27714DAC-5FBA-4222-9599-87EDA629626A";
paths = (
{
closed = 1;
nodes = (
"-21 1409 OFFCURVE",
"18 1405 OFFCURVE",
"40 1343 CURVE SMOOTH",
"245 729 LINE",
"245 297 LINE SMOOTH",
"245 245 OFFCURVE",
"240 201 OFFCURVE",
"230 164 CURVE SMOOTH",
"217 112 OFFCURVE",
"181 79 OFFCURVE",
"122 66 CURVE",
"154 0 LINE",
"572 182 LINE",
"572 240 LINE",
"504 240 OFFCURVE",
"490 269 OFFCURVE",
"490 358 CURVE SMOOTH",
"490 743 LINE",
"643 798 OFFCURVE",
"720 837 OFFCURVE",
"720 860 CURVE SMOOTH",
"720 1446 LINE SMOOTH",
"720 1501 OFFCURVE",
"618 1579 OFFCURVE",
"597 1579 CURVE",
"400 1462 LINE",
"400 1417 LINE",
"423 1413 LINE",
"450 1405 OFFCURVE",
"484 1359 OFFCURVE",
"484 1280 CURVE SMOOTH",
"484 852 LINE",
"451 838 LINE",
"216 1577 LINE",
"136 1577 LINE",
"-77 1452 LINE",
"-77 1409 LINE"
);
}
);
width = 811;
}
);
note = Y;
unicode = 0059;
},
{
glyphname = Z;
lastChange = "2021-04-01 12:34:41 +0000";
layers = (
{
layerId = "27714DAC-5FBA-4222-9599-87EDA629626A";
paths = (
{
closed = 1;
nodes = (
"737 1385 OFFCURVE",
"659 1572 OFFCURVE",
"620 1624 CURVE",
"575 1624 LINE",
"564 1579 OFFCURVE",
"517 1556 OFFCURVE",
"434 1556 CURVE SMOOTH",
"159 1556 LINE SMOOTH",
"110 1556 OFFCURVE",
"53 1508 OFFCURVE",
"20 1456 CURVE",
"137 1288 LINE",
"182 1288 LINE",
"193 1333 OFFCURVE",
"240 1356 OFFCURVE",
"323 1356 CURVE SMOOTH",
"512 1356 LINE",
"20 195 LINE",
"20 148 OFFCURVE",
"34 83 OFFCURVE",
"61 0 CURVE",
"598 0 LINE SMOOTH",
"646 0 OFFCURVE",
"704 48 OFFCURVE",
"737 100 CURVE",
"620 268 LINE",
"575 268 LINE",
"564 223 OFFCURVE",
"517 201 OFFCURVE",
"434 201 CURVE SMOOTH",
"272 201 LINE",
"737 1358 LINE"
);
}
);
width = 757;
}
);
note = Z;
unicode = 005A;
},
{
glyphname = a;
lastChange = "2021-04-01 12:34:41 +0000";
layers = (
{
layerId = "27714DAC-5FBA-4222-9599-87EDA629626A";
paths = (
{
closed = 1;
nodes = (
"737 1022 OFFCURVE",
"637 1167 OFFCURVE",
"546 1167 CURVE SMOOTH",
"520 1167 OFFCURVE",
"401 1130 OFFCURVE",
"190 1055 CURVE",
"190 993 LINE",
"425 993 OFFCURVE",
"489 940 OFFCURVE",
"489 784 CURVE",
"380 750 LINE SMOOTH",
"239 706 OFFCURVE",
"61 625 OFFCURVE",
"61 582 CURVE SMOOTH",
"61 246 LINE SMOOTH",
"61 189 OFFCURVE",
"81 137 OFFCURVE",
"122 92 CURVE SMOOTH",
"153 57 OFFCURVE",
"200 20 OFFCURVE",
"217 11 CURVE SMOOTH",
"225 6 OFFCURVE",
"231 3 OFFCURVE",
"235 0 CURVE",
"491 137 LINE",
"491 90 OFFCURVE",
"554 24 OFFCURVE",
"614 0 CURVE",
"837 125 LINE",
"837 170 LINE",
"769 186 OFFCURVE",
"737 217 OFFCURVE",
"737 317 CURVE SMOOTH",
"737 897 LINE SMOOTH"
);
},
{
closed = 1;
nodes = (
"307 453 LINE SMOOTH",
"307 533 OFFCURVE",
"325 590 OFFCURVE",
"360 623 CURVE SMOOTH",
"399 658 OFFCURVE",
"423 668 OFFCURVE",
"491 692 CURVE",
"491 229 LINE",
"435 190 OFFCURVE",
"381 188 OFFCURVE",
"339 233 CURVE SMOOTH",
"318 255 OFFCURVE",
"307 284 OFFCURVE",
"307 319 CURVE SMOOTH"
);
}
);
width = 839;
}
);
note = a;
unicode = 0061;
},
{
glyphname = b;
lastChange = "2021-04-01 12:34:41 +0000";
layers = (
{
layerId = "27714DAC-5FBA-4222-9599-87EDA629626A";
paths = (
{
closed = 1;
nodes = (
"780 905 LINE SMOOTH",
"780 1030 OFFCURVE",
"665 1167 OFFCURVE",
"593 1167 CURVE SMOOTH",
"570 1167 OFFCURVE",
"489 1131 OFFCURVE",
"348 1059 CURVE",
"348 1233 LINE SMOOTH",
"348 1298 OFFCURVE",
"368 1357 OFFCURVE",
"409 1409 CURVE SMOOTH",
"442 1450 OFFCURVE",
"500 1496 OFFCURVE",
"528 1509 CURVE",
"495 1575 LINE",
"356 1493 OFFCURVE",
"197 1406 OFFCURVE",
"20 1313 CURVE",
"20 1255 LINE",
"80 1255 OFFCURVE",
"102 1226 OFFCURVE",
"102 1153 CURVE SMOOTH",
"102 299 LINE SMOOTH",
"102 148 OFFCURVE",
"208 0 OFFCURVE",
"276 0 CURVE SMOOTH",
"344 0 OFFCURVE",
"780 163 OFFCURVE",
"780 190 CURVE SMOOTH"
);
},
{
closed = 1;
nodes = (
"398 973 OFFCURVE",
"435 969 OFFCURVE",
"458 961 CURVE SMOOTH",
"507 943 OFFCURVE",
"532 867 OFFCURVE",
"532 733 CURVE SMOOTH",
"532 221 LINE",
"505 199 OFFCURVE",
"475 188 OFFCURVE",
"442 188 CURVE SMOOTH",
"379 188 OFFCURVE",
"348 248 OFFCURVE",
"348 369 CURVE SMOOTH",
"348 973 LINE"
);
}
);
width = 880;
}
);
note = b;
unicode = 0062;
},
{
glyphname = c;
lastChange = "2021-04-01 12:34:41 +0000";
layers = (
{
layerId = "27714DAC-5FBA-4222-9599-87EDA629626A";
paths = (
{
closed = 1;
nodes = (
"404 969 OFFCURVE",
"429 913 OFFCURVE",
"461 802 CURVE SMOOTH",
"492 691 OFFCURVE",
"518 635 OFFCURVE",
"538 635 CURVE SMOOTH",
"543 635 OFFCURVE",
"582 652 OFFCURVE",
"654 687 CURVE SMOOTH",
"725 722 OFFCURVE",
"776 746 OFFCURVE",
"807 760 CURVE",
"807 801 LINE",
"719 801 OFFCURVE",
"701 853 OFFCURVE",
"673 965 CURVE SMOOTH",
"651 1049 OFFCURVE",
"624 1167 OFFCURVE",
"606 1167 CURVE SMOOTH",
"559 1167 OFFCURVE",
"102 998 OFFCURVE",
"102 979 CURVE SMOOTH",
"102 291 LINE SMOOTH",
"102 135 OFFCURVE",
"209 0 OFFCURVE",
"290 0 CURVE SMOOTH",
"305 0 OFFCURVE",
"425 38 OFFCURVE",
"649 113 CURVE",
"649 172 LINE",
"585 172 OFFCURVE",
"530 177 OFFCURVE",
"483 188 CURVE SMOOTH",
"393 213 OFFCURVE",
"348 278 OFFCURVE",
"348 383 CURVE SMOOTH",
"348 948 LINE",
"359 962 OFFCURVE",
"371 969 OFFCURVE",
"385 969 CURVE SMOOTH"
);
}
);
width = 827;
}
);
note = c;
unicode = 0063;
},
{
glyphname = d;
lastChange = "2021-04-01 12:34:41 +0000";
layers = (
{
layerId = "27714DAC-5FBA-4222-9599-87EDA629626A";
paths = (
{
closed = 1;
nodes = (
"430 1577 OFFCURVE",
"325 1543 OFFCURVE",
"174 1475 CURVE",
"174 1413 LINE",
"241 1413 LINE SMOOTH",
"270 1413 OFFCURVE",
"299 1391 OFFCURVE",
"329 1348 CURVE SMOOTH",
"359 1304 OFFCURVE",
"399 1228 OFFCURVE",
"448 1120 CURVE",
"217 1039 OFFCURVE",
"102 992 OFFCURVE",
"102 979 CURVE SMOOTH",
"102 248 LINE SMOOTH",
"102 163 OFFCURVE",
"169 74 OFFCURVE",
"222 32 CURVE SMOOTH",
"249 11 OFFCURVE",
"267 0 OFFCURVE",
"276 0 CURVE SMOOTH",
"301 0 OFFCURVE",
"386 45 OFFCURVE",
"532 135 CURVE",
"532 88 OFFCURVE",
"592 27 OFFCURVE",
"655 0 CURVE",
"794 82 OFFCURVE",
"869 124 OFFCURVE",
"878 125 CURVE",
"878 170 LINE",
"815 178 OFFCURVE",
"780 250 OFFCURVE",
"780 313 CURVE SMOOTH",
"780 938 LINE SMOOTH",
"780 1074 OFFCURVE",
"560 1577 OFFCURVE",
"487 1577 CURVE SMOOTH"
);
},
{
closed = 1;
nodes = (
"383 188 OFFCURVE",
"348 239 OFFCURVE",
"348 340 CURVE SMOOTH",
"348 977 LINE",
"368 989 LINE SMOOTH",
"409 1014 OFFCURVE",
"450 1026 OFFCURVE",
"489 1026 CURVE SMOOTH",
"500 1026 OFFCURVE",
"532 950 OFFCURVE",
"532 934 CURVE SMOOTH",
"532 221 LINE",
"505 199 OFFCURVE",
"478 188 OFFCURVE",
"452 188 CURVE SMOOTH"
);
}
);
width = 880;
}
);
note = d;
unicode = 0064;
},
{
glyphname = e;
lastChange = "2021-04-01 12:34:41 +0000";
layers = (
{
layerId = "27714DAC-5FBA-4222-9599-87EDA629626A";
paths = (
{
closed = 1;
nodes = (
"557 1167 OFFCURVE",
"102 998 OFFCURVE",
"102 979 CURVE SMOOTH",
"102 291 LINE SMOOTH",
"102 135 OFFCURVE",
"209 0 OFFCURVE",
"290 0 CURVE SMOOTH",
"305 0 OFFCURVE",
"425 38 OFFCURVE",
"649 113 CURVE",
"649 172 LINE",
"586 172 OFFCURVE",
"532 177 OFFCURVE",
"487 188 CURVE SMOOTH",
"396 213 OFFCURVE",
"350 278 OFFCURVE",
"350 383 CURVE",
"376 383 OFFCURVE",
"560 450 OFFCURVE",
"670 504 CURVE SMOOTH",
"742 539 OFFCURVE",
"778 569 OFFCURVE",
"778 594 CURVE SMOOTH",
"778 938 LINE SMOOTH",
"778 1009 OFFCURVE",
"710 1094 OFFCURVE",
"655 1136 CURVE SMOOTH",
"628 1157 OFFCURVE",
"611 1167 OFFCURVE",
"604 1167 CURVE SMOOTH"
);
},
{
closed = 1;
nodes = (
"532 696 LINE SMOOTH",
"532 583 OFFCURVE",
"471 509 OFFCURVE",
"348 475 CURVE",
"348 948 LINE",
"412 989 OFFCURVE",
"470 992 OFFCURVE",
"506 939 CURVE SMOOTH",
"523 912 OFFCURVE",
"532 880 OFFCURVE",
"532 842 CURVE SMOOTH"
);
}
);
width = 870;
}
);
note = e;
unicode = 0065;
},
{
glyphname = f;
lastChange = "2021-04-01 12:34:41 +0000";
layers = (
{
layerId = "27714DAC-5FBA-4222-9599-87EDA629626A";
paths = (
{
closed = 1;
nodes = (
"-22 954 LINE",
"103 954 LINE",
"103 139 LINE SMOOTH",
"103 90 OFFCURVE",
"166 24 OFFCURVE",
"226 0 CURVE",
"433 117 LINE",
"433 162 LINE",
"377 173 OFFCURVE",
"349 220 OFFCURVE",
"349 303 CURVE SMOOTH",
"349 954 LINE",
"455 954 LINE",
"558 1006 LINE",
"558 1055 LINE",
"349 1055 LINE",
"349 1356 LINE SMOOTH",
"349 1397 OFFCURVE",
"361 1417 OFFCURVE",
"386 1417 CURVE SMOOTH",
"405 1417 OFFCURVE",
"423 1387 OFFCURVE",
"440 1327 CURVE SMOOTH",
"457 1267 OFFCURVE",
"475 1237 OFFCURVE",
"496 1237 CURVE SMOOTH",
"503 1237 OFFCURVE",
"549 1260 OFFCURVE",
"635 1307 CURVE SMOOTH",
"672 1327 OFFCURVE",
"702 1342 OFFCURVE",
"723 1352 CURVE",
"723 1393 LINE",
"696 1393 OFFCURVE",
"674 1409 OFFCURVE",
"656 1442 CURVE SMOOTH",
"627 1493 LINE",
"609 1532 LINE SMOOTH",
"601 1548 OFFCURVE",
"587 1575 OFFCURVE",
"566 1575 CURVE SMOOTH",
"506 1575 OFFCURVE",
"103 1397 OFFCURVE",
"103 1346 CURVE SMOOTH",
"103 1055 LINE",
"-22 999 LINE"
);
}
);
width = 655;
}
);
note = f;
unicode = 0066;
},
{
glyphname = g;
lastChange = "2021-04-01 12:34:41 +0000";
layers = (
{
layerId = "27714DAC-5FBA-4222-9599-87EDA629626A";
paths = (
{
closed = 1;
nodes = (
"102 303 LINE SMOOTH",
"102 170 OFFCURVE",
"183 41 OFFCURVE",
"268 41 CURVE SMOOTH",
"291 41 OFFCURVE",
"380 77 OFFCURVE",
"534 150 CURVE",
"445 -53 OFFCURVE",
"289 -184 OFFCURVE",
"182 -184 CURVE SMOOTH",
"112 -184 LINE",
"112 -246 LINE",
"172 -276 LINE SMOOTH",
"253 -317 OFFCURVE",
"388 -369 OFFCURVE",
"456 -369 CURVE SMOOTH",
"505 -369 OFFCURVE",
"638 -155 OFFCURVE",
"711 -6 CURVE SMOOTH",
"757 91 OFFCURVE",
"780 165 OFFCURVE",
"780 217 CURVE SMOOTH",
"780 868 LINE SMOOTH",
"780 1019 OFFCURVE",
"674 1167 OFFCURVE",
"606 1167 CURVE SMOOTH",
"538 1167 OFFCURVE",
"102 1004 OFFCURVE",
"102 977 CURVE SMOOTH"
);
},
{
closed = 1;
nodes = (
"409 236 OFFCURVE",
"350 284 OFFCURVE",
"350 475 CURVE SMOOTH",
"350 946 LINE",
"377 968 OFFCURVE",
"407 979 OFFCURVE",
"440 979 CURVE SMOOTH",
"503 979 OFFCURVE",
"534 919 OFFCURVE",
"534 799 CURVE SMOOTH",
"534 236 LINE"
);
}
);
width = 882;
}
);
note = g;
unicode = 0067;
},
{
glyphname = h;
lastChange = "2021-04-01 12:34:41 +0000";
layers = (
{
layerId = "27714DAC-5FBA-4222-9599-87EDA629626A";
paths = (
{
closed = 1;
nodes = (
"102 90 OFFCURVE",
"165 24 OFFCURVE",
"225 0 CURVE",
"432 117 LINE",
"432 162 LINE",
"376 173 OFFCURVE",
"348 220 OFFCURVE",
"348 303 CURVE SMOOTH",
"348 973 LINE",
"398 973 OFFCURVE",
"435 969 OFFCURVE",
"458 961 CURVE SMOOTH",
"507 943 OFFCURVE",
"532 867 OFFCURVE",
"532 733 CURVE SMOOTH",
"532 139 LINE SMOOTH",
"532 90 OFFCURVE",
"595 24 OFFCURVE",
"655 0 CURVE",
"878 125 LINE",
"878 170 LINE",
"811 183 OFFCURVE",
"778 228 OFFCURVE",
"778 303 CURVE SMOOTH",
"778 905 LINE SMOOTH",
"778 1037 OFFCURVE",
"681 1167 OFFCURVE",
"593 1167 CURVE SMOOTH",
"570 1167 OFFCURVE",
"489 1131 OFFCURVE",
"348 1059 CURVE",
"348 1233 LINE SMOOTH",
"348 1298 OFFCURVE",
"368 1357 OFFCURVE",
"409 1409 CURVE SMOOTH",
"442 1450 OFFCURVE",
"500 1496 OFFCURVE",
"528 1509 CURVE",
"495 1575 LINE",
"356 1493 OFFCURVE",
"197 1406 OFFCURVE",
"20 1313 CURVE",
"20 1255 LINE",
"80 1255 OFFCURVE",
"102 1226 OFFCURVE",
"102 1153 CURVE SMOOTH",
"102 139 LINE SMOOTH"
);
}
);
width = 880;
}
);
note = h;
unicode = 0068;
},
{
glyphname = i;
lastChange = "2021-04-01 12:34:41 +0000";
layers = (
{
layerId = "27714DAC-5FBA-4222-9599-87EDA629626A";
paths = (
{
closed = 1;
nodes = (
"71 1358 OFFCURVE",
"105 1292 OFFCURVE",
"137 1292 CURVE SMOOTH",
"161 1292 OFFCURVE",
"319 1354 OFFCURVE",
"319 1362 CURVE SMOOTH",
"319 1511 LINE SMOOTH",
"319 1560 OFFCURVE",
"273 1618 OFFCURVE",
"255 1618 CURVE SMOOTH",
"237 1618 OFFCURVE",
"71 1556 OFFCURVE",
"71 1548 CURVE SMOOTH",
"71 1423 LINE SMOOTH"
);
},
{
closed = 1;
nodes = (
"348 1077 OFFCURVE",
"285 1143 OFFCURVE",
"225 1167 CURVE",
"18 1051 LINE",
"18 1006 LINE",
"74 995 OFFCURVE",
"102 947 OFFCURVE",
"102 864 CURVE SMOOTH",
"102 139 LINE SMOOTH",
"102 90 OFFCURVE",
"165 24 OFFCURVE",
"225 0 CURVE",
"432 117 LINE",
"432 162 LINE",
"376 173 OFFCURVE",
"348 220 OFFCURVE",
"348 303 CURVE SMOOTH",
"348 1028 LINE SMOOTH"
);
}
);
width = 450;
}
);
note = i;
unicode = 0069;
},
{
glyphname = j;
lastChange = "2021-04-01 12:34:41 +0000";
layers = (
{
layerId = "27714DAC-5FBA-4222-9599-87EDA629626A";
paths = (
{
closed = 1;
nodes = (
"72 1313 OFFCURVE",
"106 1247 OFFCURVE",
"138 1247 CURVE SMOOTH",
"162 1247 OFFCURVE",
"320 1309 OFFCURVE",
"320 1317 CURVE SMOOTH",
"320 1466 LINE SMOOTH",
"320 1515 OFFCURVE",
"272 1573 OFFCURVE",
"255 1573 CURVE SMOOTH",
"238 1573 OFFCURVE",
"72 1511 OFFCURVE",
"72 1503 CURVE SMOOTH",
"72 1378 LINE SMOOTH"
);
},
{
closed = 1;
nodes = (
"103 80 OFFCURVE",
"94 -27 OFFCURVE",
"75 -90 CURVE SMOOTH",
"56 -153 OFFCURVE",
"23 -184 OFFCURVE",
"-24 -184 CURVE SMOOTH",
"-94 -184 LINE",
"-94 -246 LINE",
"-39 -276 LINE SMOOTH",
"36 -317 OFFCURVE",
"161 -369 OFFCURVE",
"230 -369 CURVE SMOOTH",
"274 -369 OFFCURVE",
"311 -226 OFFCURVE",
"330 -81 CURVE SMOOTH",
"342 11 OFFCURVE",
"348 110 OFFCURVE",
"348 217 CURVE SMOOTH",
"348 1028 LINE SMOOTH",
"348 1077 OFFCURVE",
"286 1143 OFFCURVE",
"225 1167 CURVE",
"19 1051 LINE",
"19 1006 LINE",
"75 995 OFFCURVE",
"103 947 OFFCURVE",
"103 864 CURVE SMOOTH",
"103 231 LINE SMOOTH"
);
}
);
width = 450;
}
);
note = j;
unicode = 006A;
},
{
glyphname = k;
lastChange = "2021-04-01 12:34:41 +0000";
layers = (
{
layerId = "27714DAC-5FBA-4222-9599-87EDA629626A";
paths = (
{
closed = 1;
nodes = (
"400 355 OFFCURVE",
"567 0 OFFCURVE",
"655 0 CURVE SMOOTH",
"688 0 OFFCURVE",
"767 41 OFFCURVE",
"894 123 CURVE",
"894 182 LINE",
"863 185 OFFCURVE",
"834 192 OFFCURVE",
"808 205 CURVE",
"727 239 OFFCURVE",
"643 370 OFFCURVE",
"557 598 CURVE",
"699 653 OFFCURVE",
"770 687 OFFCURVE",
"770 702 CURVE SMOOTH",
"770 926 LINE SMOOTH",
"770 1049 OFFCURVE",
"649 1167 OFFCURVE",
"573 1167 CURVE SMOOTH",
"550 1167 OFFCURVE",
"475 1126 OFFCURVE",
"348 1044 CURVE",
"348 1233 LINE SMOOTH",
"348 1298 OFFCURVE",
"368 1357 OFFCURVE",
"409 1409 CURVE SMOOTH",
"442 1450 OFFCURVE",
"500 1496 OFFCURVE",
"528 1509 CURVE",
"495 1575 LINE",
"356 1493 OFFCURVE",
"197 1406 OFFCURVE",
"20 1313 CURVE",
"20 1255 LINE",
"80 1255 OFFCURVE",
"102 1226 OFFCURVE",
"102 1153 CURVE SMOOTH",
"102 139 LINE SMOOTH",
"102 90 OFFCURVE",
"165 24 OFFCURVE",
"225 0 CURVE",
"432 117 LINE",
"432 162 LINE",
"376 173 OFFCURVE",
"348 220 OFFCURVE",
"348 303 CURVE SMOOTH",
"348 532 LINE"
);
},
{
closed = 1;
nodes = (
"492 969 OFFCURVE",
"532 911 OFFCURVE",
"532 795 CURVE SMOOTH",
"532 702 LINE",
"495 684 LINE SMOOTH",
"424 650 OFFCURVE",
"375 633 OFFCURVE",
"348 633 CURVE",
"348 958 LINE",
"413 969 LINE"
);
}
);
width = 880;
}
);
note = k;
unicode = 006B;
},
{
glyphname = l;
lastChange = "2021-04-01 12:34:41 +0000";
layers = (
{
layerId = "27714DAC-5FBA-4222-9599-87EDA629626A";
paths = (
{
closed = 1;
nodes = (
"348 1485 OFFCURVE",
"285 1550 OFFCURVE",
"225 1575 CURVE",
"18 1458 LINE",
"18 1413 LINE",
"74 1402 OFFCURVE",
"102 1355 OFFCURVE",
"102 1272 CURVE SMOOTH",
"102 139 LINE SMOOTH",
"102 90 OFFCURVE",
"165 24 OFFCURVE",
"225 0 CURVE",
"432 117 LINE",
"432 162 LINE",
"376 173 OFFCURVE",
"348 220 OFFCURVE",
"348 303 CURVE SMOOTH",
"348 1436 LINE SMOOTH"
);
}
);
width = 450;
}
);
note = l;
unicode = 006C;
},
{
glyphname = m;
lastChange = "2021-04-01 12:34:41 +0000";
layers = (
{
layerId = "27714DAC-5FBA-4222-9599-87EDA629626A";
paths = (
{
closed = 1;
nodes = (
"102 90 OFFCURVE",
"165 24 OFFCURVE",
"225 0 CURVE",
"432 117 LINE",
"432 162 LINE",
"376 173 OFFCURVE",
"348 220 OFFCURVE",
"348 303 CURVE SMOOTH",
"348 956 LINE",
"420 969 LINE",
"495 969 OFFCURVE",
"532 890 OFFCURVE",
"532 733 CURVE SMOOTH",
"532 139 LINE SMOOTH",
"532 90 OFFCURVE",
"595 24 OFFCURVE",
"655 0 CURVE",
"879 125 LINE",
"879 170 LINE",
"812 183 OFFCURVE",
"778 228 OFFCURVE",
"778 303 CURVE SMOOTH",
"778 952 LINE",
"838 965 LINE",
"875 965 OFFCURVE",
"905 950 OFFCURVE",
"928 921 CURVE SMOOTH",
"951 892 OFFCURVE",
"963 832 OFFCURVE",
"963 743 CURVE SMOOTH",
"963 139 LINE SMOOTH",
"963 90 OFFCURVE",
"1025 24 OFFCURVE",
"1085 0 CURVE",
"1309 125 LINE",
"1309 170 LINE",
"1242 183 OFFCURVE",
"1208 228 OFFCURVE",
"1208 303 CURVE SMOOTH",
"1208 924 LINE SMOOTH",
"1208 1019 OFFCURVE",
"1116 1167 OFFCURVE",
"1028 1167 CURVE SMOOTH",
"1006 1167 OFFCURVE",
"942 1140 OFFCURVE",
"836 1085 CURVE SMOOTH",
"783 1058 OFFCURVE",
"755 1043 OFFCURVE",
"752 1042 CURVE",
"721 1111 OFFCURVE",
"653 1167 OFFCURVE",
"605 1167 CURVE SMOOTH",
"581 1167 OFFCURVE",
"519 1138 OFFCURVE",
"418 1081 CURVE SMOOTH",
"379 1060 OFFCURVE",
"356 1047 OFFCURVE",
"348 1042 CURVE",
"348 1099 OFFCURVE",
"288 1149 OFFCURVE",
"261 1158 CURVE SMOOTH",
"247 1163 OFFCURVE",
"235 1166 OFFCURVE",
"225 1169 CURVE",
"86 1088 OFFCURVE",
"11 1046 OFFCURVE",
"2 1044 CURVE",
"2 999 LINE",
"59 999 OFFCURVE",
"102 923 OFFCURVE",
"102 834 CURVE SMOOTH",
"102 139 LINE SMOOTH"
);
}
);
width = 1310;
}
);
note = m;
unicode = 006D;
},
{
glyphname = n;
lastChange = "2021-04-01 12:34:41 +0000";
layers = (
{
layerId = "27714DAC-5FBA-4222-9599-87EDA629626A";
paths = (
{
closed = 1;
nodes = (
"102 90 OFFCURVE",
"165 24 OFFCURVE",
"225 0 CURVE",
"432 117 LINE",
"432 162 LINE",
"376 173 OFFCURVE",
"348 220 OFFCURVE",
"348 303 CURVE SMOOTH",
"348 956 LINE",
"416 969 LINE",
"503 969 OFFCURVE",
"532 886 OFFCURVE",
"532 733 CURVE SMOOTH",
"532 139 LINE SMOOTH",
"532 90 OFFCURVE",
"595 24 OFFCURVE",
"655 0 CURVE",
"879 125 LINE",
"879 170 LINE",
"812 183 OFFCURVE",
"778 228 OFFCURVE",
"778 303 CURVE SMOOTH",
"778 924 LINE SMOOTH",
"778 1019 OFFCURVE",
"686 1167 OFFCURVE",
"598 1167 CURVE SMOOTH",
"579 1167 OFFCURVE",
"519 1138 OFFCURVE",
"418 1081 CURVE SMOOTH",
"379 1060 OFFCURVE",
"356 1047 OFFCURVE",
"348 1042 CURVE",
"348 1099 OFFCURVE",
"288 1149 OFFCURVE",
"261 1158 CURVE SMOOTH",
"247 1163 OFFCURVE",
"235 1166 OFFCURVE",
"225 1169 CURVE",
"86 1088 OFFCURVE",
"11 1046 OFFCURVE",
"2 1044 CURVE",
"2 999 LINE",
"59 999 OFFCURVE",
"102 923 OFFCURVE",
"102 834 CURVE SMOOTH",
"102 139 LINE SMOOTH"
);
}
);
width = 880;
}
);
note = n;
unicode = 006E;
},
{
glyphname = o;
lastChange = "2021-04-01 12:34:41 +0000";
layers = (
{
layerId = "27714DAC-5FBA-4222-9599-87EDA629626A";
paths = (
{
closed = 1;
nodes = (
"102 135 OFFCURVE",
"214 0 OFFCURVE",
"281 0 CURVE SMOOTH",
"348 0 OFFCURVE",
"780 169 OFFCURVE",
"780 190 CURVE SMOOTH",
"780 932 LINE SMOOTH",
"780 1021 OFFCURVE",
"651 1167 OFFCURVE",
"604 1167 CURVE SMOOTH",
"557 1167 OFFCURVE",
"102 998 OFFCURVE",
"102 979 CURVE SMOOTH",
"102 299 LINE SMOOTH"
);
},
{
closed = 1;
nodes = (
"383 188 OFFCURVE",
"348 239 OFFCURVE",
"348 340 CURVE SMOOTH",
"348 946 LINE",
"374 967 OFFCURVE",
"401 977 OFFCURVE",
"428 977 CURVE SMOOTH",
"497 977 OFFCURVE",
"532 926 OFFCURVE",
"532 825 CURVE SMOOTH",
"532 221 LINE",
"505 199 OFFCURVE",
"478 188 OFFCURVE",
"452 188 CURVE SMOOTH"
);
}
);
width = 882;
}
);
note = o;
unicode = 006F;
},
{
glyphname = p;
lastChange = "2021-04-01 12:34:41 +0000";
layers = (
{
layerId = "27714DAC-5FBA-4222-9599-87EDA629626A";
paths = (
{
closed = 1;
nodes = (
"102 -274 OFFCURVE",
"165 -340 OFFCURVE",
"225 -365 CURVE",
"432 -248 LINE",
"432 -203 LINE",
"376 -192 OFFCURVE",
"348 -144 OFFCURVE",
"348 -61 CURVE SMOOTH",
"348 14 LINE",
"441 39 OFFCURVE",
"780 169 OFFCURVE",
"780 188 CURVE SMOOTH",
"780 918 LINE SMOOTH",
"780 1002 OFFCURVE",
"713 1092 OFFCURVE",
"660 1134 CURVE SMOOTH",
"633 1155 OFFCURVE",
"615 1165 OFFCURVE",
"606 1165 CURVE SMOOTH",
"581 1165 OFFCURVE",
"496 1120 OFFCURVE",
"350 1030 CURVE",
"350 1077 OFFCURVE",
"290 1138 OFFCURVE",
"227 1165 CURVE",
"88 1083 OFFCURVE",
"13 1041 OFFCURVE",
"4 1040 CURVE",
"4 995 LINE",
"67 987 OFFCURVE",
"102 915 OFFCURVE",
"102 852 CURVE SMOOTH",
"102 -225 LINE SMOOTH"
);
},
{
closed = 1;
nodes = (
"499 977 OFFCURVE",
"534 926 OFFCURVE",
"534 825 CURVE SMOOTH",
"534 240 LINE SMOOTH",
"534 188 OFFCURVE",
"421 131 OFFCURVE",
"350 131 CURVE",
"350 944 LINE",
"377 966 OFFCURVE",
"404 977 OFFCURVE",
"430 977 CURVE SMOOTH"
);
}
);
width = 880;
}
);
note = p;
unicode = 0070;
},
{
glyphname = q;
lastChange = "2021-04-01 12:34:41 +0000";
layers = (
{
layerId = "27714DAC-5FBA-4222-9599-87EDA629626A";
paths = (
{
closed = 1;
nodes = (
"102 303 LINE SMOOTH",
"102 170 OFFCURVE",
"183 41 OFFCURVE",
"268 41 CURVE SMOOTH",
"291 41 OFFCURVE",
"380 77 OFFCURVE",
"534 150 CURVE",
"534 -106 LINE SMOOTH",
"534 -173 OFFCURVE",
"520 -223 OFFCURVE",
"491 -256 CURVE SMOOTH",
"470 -280 OFFCURVE",
"434 -303 OFFCURVE",
"411 -303 CURVE",
"444 -369 LINE",
"445 -369 OFFCURVE",
"585 -308 OFFCURVE",
"862 -186 CURVE",
"862 -129 LINE",
"802 -129 OFFCURVE",
"780 -100 OFFCURVE",
"780 -27 CURVE SMOOTH",
"780 868 LINE SMOOTH",
"780 1019 OFFCURVE",
"674 1167 OFFCURVE",
"606 1167 CURVE SMOOTH",
"538 1167 OFFCURVE",
"102 1004 OFFCURVE",
"102 977 CURVE SMOOTH"
);
},
{
closed = 1;
nodes = (
"409 236 OFFCURVE",
"350 284 OFFCURVE",
"350 475 CURVE SMOOTH",
"350 946 LINE",
"377 968 OFFCURVE",
"407 979 OFFCURVE",
"440 979 CURVE SMOOTH",
"503 979 OFFCURVE",
"534 919 OFFCURVE",
"534 799 CURVE SMOOTH",
"534 236 LINE"
);
}
);
width = 882;
}
);
note = q;
unicode = 0071;
},
{
glyphname = r;
lastChange = "2021-04-01 12:34:41 +0000";
layers = (
{
layerId = "27714DAC-5FBA-4222-9599-87EDA629626A";
paths = (
{
closed = 1;
nodes = (
"51 999 OFFCURVE",
"102 939 OFFCURVE",
"102 819 CURVE SMOOTH",
"102 139 LINE SMOOTH",
"102 90 OFFCURVE",
"165 24 OFFCURVE",
"225 0 CURVE",
"432 117 LINE",
"432 162 LINE",
"376 173 OFFCURVE",
"348 220 OFFCURVE",
"348 303 CURVE SMOOTH",
"348 956 LINE",
"397 956 OFFCURVE",
"434 947 OFFCURVE",
"459 930 CURVE SMOOTH",
"480 913 OFFCURVE",
"491 848 OFFCURVE",
"491 733 CURVE",
"526 705 LINE",
"737 823 LINE",
"737 924 LINE SMOOTH",
"737 1019 OFFCURVE",
"645 1167 OFFCURVE",
"557 1167 CURVE SMOOTH",
"540 1167 OFFCURVE",
"503 1147 OFFCURVE",
"445 1107 CURVE SMOOTH",
"387 1067 OFFCURVE",
"355 1045 OFFCURVE",
"348 1042 CURVE",
"348 1097 OFFCURVE",
"288 1147 OFFCURVE",
"262 1156 CURVE SMOOTH",
"249 1161 OFFCURVE",
"237 1164 OFFCURVE",
"227 1167 CURVE",
"2 1044 LINE",
"2 999 LINE"
);
}
);
width = 778;
}
);
note = r;
unicode = 0072;
},
{
glyphname = s;
lastChange = "2021-04-01 12:34:41 +0000";
layers = (
{
layerId = "27714DAC-5FBA-4222-9599-87EDA629626A";
paths = (
{
closed = 1;
nodes = (
"205 449 OFFCURVE",
"248 465 OFFCURVE",
"323 498 CURVE SMOOTH",
"398 531 OFFCURVE",
"441 547 OFFCURVE",
"452 547 CURVE SMOOTH",
"486 547 OFFCURVE",
"503 516 OFFCURVE",
"503 455 CURVE SMOOTH",
"503 199 LINE SMOOTH",
"503 160 OFFCURVE",
"473 137 OFFCURVE",
"446 137 CURVE SMOOTH",
"427 137 OFFCURVE",
"402 177 OFFCURVE",
"371 258 CURVE SMOOTH",
"340 339 OFFCURVE",
"315 379 OFFCURVE",
"294 379 CURVE SMOOTH",
"287 379 OFFCURVE",
"241 355 OFFCURVE",
"155 307 CURVE SMOOTH",
"118 288 OFFCURVE",
"89 274 OFFCURVE",
"67 264 CURVE",
"67 223 LINE",
"94 223 OFFCURVE",
"117 207 OFFCURVE",
"135 174 CURVE SMOOTH",
"166 122 OFFCURVE",
"196 47 OFFCURVE",
"218 6 CURVE SMOOTH",
"227 -12 OFFCURVE",
"236 -20 OFFCURVE",
"245 -20 CURVE SMOOTH",
"292 -20 OFFCURVE",
"749 157 OFFCURVE",
"749 209 CURVE SMOOTH",
"749 440 LINE SMOOTH",
"749 522 OFFCURVE",
"736 589 OFFCURVE",
"711 642 CURVE SMOOTH",
"686 695 OFFCURVE",
"657 721 OFFCURVE",
"624 721 CURVE SMOOTH",
"607 721 OFFCURVE",
"560 703 OFFCURVE",
"481 668 CURVE SMOOTH",
"402 632 OFFCURVE",
"359 614 OFFCURVE",
"354 614 CURVE SMOOTH",
"329 614 OFFCURVE",
"317 641 OFFCURVE",
"317 696 CURVE SMOOTH",
"317 948 LINE SMOOTH",
"317 989 OFFCURVE",
"329 1010 OFFCURVE",
"354 1010 CURVE SMOOTH",
"373 1010 OFFCURVE",
"394 977 OFFCURVE",
"418 910 CURVE SMOOTH",
"442 843 OFFCURVE",
"464 809 OFFCURVE",
"485 809 CURVE SMOOTH",
"492 809 OFFCURVE",
"539 833 OFFCURVE",
"626 881 CURVE SMOOTH",
"661 900 OFFCURVE",
"690 914 OFFCURVE",
"712 924 CURVE",
"712 965 LINE",
"685 965 OFFCURVE",
"662 981 OFFCURVE",
"645 1014 CURVE",
"625 1045 OFFCURVE",
"604 1087 OFFCURVE",
"589 1111 CURVE SMOOTH",
"578 1128 OFFCURVE",
"558 1167 OFFCURVE",
"534 1167 CURVE SMOOTH",
"490 1167 OFFCURVE",
"71 990 OFFCURVE",
"71 938 CURVE SMOOTH",
"71 717 LINE SMOOTH",
"71 566 OFFCURVE",
"128 449 OFFCURVE",
"196 449 CURVE SMOOTH"
);
}
);
width = 829;
}
);
note = s;
unicode = 0073;
},
{
glyphname = t;
lastChange = "2021-04-01 12:34:42 +0000";
layers = (
{
layerId = "27714DAC-5FBA-4222-9599-87EDA629626A";
paths = (
{
closed = 1;
nodes = (
"269 1255 OFFCURVE",
"121 1120 OFFCURVE",
"38 1120 CURVE",
"18 1034 LINE",
"102 1034 LINE",
"102 139 LINE SMOOTH",
"102 90 OFFCURVE",
"165 24 OFFCURVE",
"225 0 CURVE",
"432 117 LINE",
"432 162 LINE",
"376 173 OFFCURVE",
"348 220 OFFCURVE",
"348 303 CURVE SMOOTH",
"348 1036 LINE",
"432 1036 LINE",
"452 1137 LINE",
"348 1137 LINE",
"348 1380 LINE",
"290 1380 LINE"
);
}
);
width = 450;
}
);
note = t;
unicode = 0074;
},
{
glyphname = u;
lastChange = "2021-04-01 12:34:42 +0000";
layers = (
{
layerId = "27714DAC-5FBA-4222-9599-87EDA629626A";
paths = (
{
closed = 1;
nodes = (
"348 1030 LINE SMOOTH",
"348 1079 OFFCURVE",
"285 1145 OFFCURVE",
"225 1169 CURVE",
"2 1044 LINE",
"2 999 LINE",
"69 986 OFFCURVE",
"102 941 OFFCURVE",
"102 866 CURVE SMOOTH",
"102 246 LINE SMOOTH",
"102 189 OFFCURVE",
"123 137 OFFCURVE",
"164 92 CURVE SMOOTH",
"193 57 OFFCURVE",
"242 20 OFFCURVE",
"258 11 CURVE SMOOTH",
"266 6 OFFCURVE",
"272 3 OFFCURVE",
"276 0 CURVE",
"532 137 LINE",
"532 88 OFFCURVE",
"592 27 OFFCURVE",
"655 0 CURVE",
"794 82 OFFCURVE",
"869 124 OFFCURVE",
"879 125 CURVE",
"879 170 LINE",
"822 170 OFFCURVE",
"778 245 OFFCURVE",
"778 336 CURVE SMOOTH",
"778 1030 LINE SMOOTH",
"778 1079 OFFCURVE",
"715 1145 OFFCURVE",
"655 1169 CURVE",
"448 1053 LINE",
"448 1008 LINE",
"504 997 OFFCURVE",
"532 949 OFFCURVE",
"532 866 CURVE SMOOTH",
"532 229 LINE",
"476 190 OFFCURVE",
"423 188 OFFCURVE",
"380 233 CURVE SMOOTH",
"359 255 OFFCURVE",
"348 284 OFFCURVE",
"348 319 CURVE SMOOTH"
);
}
);
width = 880;
}
);
note = u;
unicode = 0075;
},
{
glyphname = v;
lastChange = "2021-04-01 12:34:42 +0000";
layers = (
{
layerId = "27714DAC-5FBA-4222-9599-87EDA629626A";
paths = (
{
closed = 1;
nodes = (
"780 1026 OFFCURVE",
"679 1167 OFFCURVE",
"598 1167 CURVE",
"348 1042 LINE",
"340 1083 OFFCURVE",
"285 1145 OFFCURVE",
"225 1169 CURVE",
"2 1044 LINE",
"2 999 LINE",
"69 986 OFFCURVE",
"102 941 OFFCURVE",
"102 866 CURVE SMOOTH",
"102 266 LINE SMOOTH",
"102 169 OFFCURVE",
"194 0 OFFCURVE",
"279 0 CURVE SMOOTH",
"363 0 OFFCURVE",
"780 166 OFFCURVE",
"780 190 CURVE SMOOTH",
"780 887 LINE SMOOTH"
);
},
{
closed = 1;
nodes = (
"348 973 LINE",
"491 973 OFFCURVE",
"532 939 OFFCURVE",
"532 764 CURVE SMOOTH",
"532 184 LINE",
"457 147 OFFCURVE",
"417 140 OFFCURVE",
"377 189 CURVE SMOOTH",
"358 212 OFFCURVE",
"348 240 OFFCURVE",
"348 274 CURVE SMOOTH"
);
}
);
width = 880;
}
);
note = v;
unicode = 0076;
},
{
glyphname = w;
lastChange = "2021-04-01 12:34:42 +0000";
layers = (
{
layerId = "27714DAC-5FBA-4222-9599-87EDA629626A";
paths = (
{
closed = 1;
nodes = (
"511 209 OFFCURVE",
"490 205 OFFCURVE",
"469 205 CURVE SMOOTH",
"388 205 OFFCURVE",
"348 270 OFFCURVE",
"348 399 CURVE SMOOTH",
"348 1032 LINE SMOOTH",
"348 1079 OFFCURVE",
"285 1145 OFFCURVE",
"225 1169 CURVE",
"2 1044 LINE",
"2 999 LINE",
"69 986 OFFCURVE",
"102 941 OFFCURVE",
"102 866 CURVE SMOOTH",
"102 248 LINE SMOOTH",
"102 149 OFFCURVE",
"195 0 OFFCURVE",
"275 0 CURVE SMOOTH",
"314 0 OFFCURVE",
"409 42 OFFCURVE",
"559 127 CURVE",
"602 42 OFFCURVE",
"655 0 OFFCURVE",
"719 0 CURVE SMOOTH",
"790 0 OFFCURVE",
"1210 166 OFFCURVE",
"1210 190 CURVE SMOOTH",
"1210 866 LINE SMOOTH",
"1210 971 OFFCURVE",
"1179 1055 OFFCURVE",
"1116 1118 CURVE SMOOTH",
"1083 1151 OFFCURVE",
"1053 1167 OFFCURVE",
"1026 1167 CURVE SMOOTH",
"1023 1167 OFFCURVE",
"783 1049 OFFCURVE",
"778 1042 CURVE",
"765 1102 OFFCURVE",
"680 1167 OFFCURVE",
"655 1167 CURVE SMOOTH",
"654 1167 OFFCURVE",
"579 1126 OFFCURVE",
"432 1044 CURVE",
"432 999 LINE",
"499 986 OFFCURVE",
"532 941 OFFCURVE",
"532 866 CURVE SMOOTH",
"532 217 LINE"
);
},
{
closed = 1;
nodes = (
"780 973 LINE",
"908 970 OFFCURVE",
"963 934 OFFCURVE",
"963 793 CURVE SMOOTH",
"963 219 LINE",
"898 190 OFFCURVE",
"836 189 OFFCURVE",
"806 257 CURVE SMOOTH",
"789 294 OFFCURVE",
"780 335 OFFCURVE",
"780 379 CURVE SMOOTH"
);
}
);
width = 1312;
}
);
note = w;
unicode = 0077;
},
{
glyphname = x;
lastChange = "2021-04-01 12:34:42 +0000";
layers = (
{
layerId = "27714DAC-5FBA-4222-9599-87EDA629626A";
paths = (
{
closed = 1;
nodes = (
"81 999 OFFCURVE",
"127 995 OFFCURVE",
"155 932 CURVE",
"315 606 LINE",
"152 546 OFFCURVE",
"71 505 OFFCURVE",
"71 483 CURVE SMOOTH",
"71 133 LINE SMOOTH",
"71 78 OFFCURVE",
"173 0 OFFCURVE",
"194 0 CURVE",
"391 117 LINE",
"391 162 LINE",
"368 168 LINE SMOOTH",
"341 173 OFFCURVE",
"307 220 OFFCURVE",
"307 299 CURVE SMOOTH",
"307 492 LINE",
"362 518 LINE",
"620 0 LINE",
"677 0 LINE",
"901 125 LINE",
"901 170 LINE",
"845 170 OFFCURVE",
"808 184 OFFCURVE",
"790 213 CURVE",
"583 598 LINE",
"742 655 OFFCURVE",
"821 695 OFFCURVE",
"821 717 CURVE SMOOTH",
"821 1036 LINE SMOOTH",
"821 1091 OFFCURVE",
"719 1169 OFFCURVE",
"698 1169 CURVE",
"501 1053 LINE",
"501 1008 LINE",
"524 1004 LINE",
"551 995 OFFCURVE",
"585 950 OFFCURVE",
"585 870 CURVE SMOOTH",
"585 709 LINE",
"534 684 LINE",
"294 1167 LINE",
"237 1167 LINE",
"24 1042 LINE",
"24 999 LINE"
);
}
);
width = 892;
}
);
note = x;
unicode = 0078;
},
{
glyphname = y;
lastChange = "2021-04-01 12:34:42 +0000";
layers = (
{
layerId = "27714DAC-5FBA-4222-9599-87EDA629626A";
paths = (
{
closed = 1;
nodes = (
"780 1079 OFFCURVE",
"717 1145 OFFCURVE",
"657 1169 CURVE",
"450 1053 LINE",
"450 1008 LINE",
"506 997 OFFCURVE",
"534 949 OFFCURVE",
"534 866 CURVE SMOOTH",
"534 236 LINE",
"409 236 OFFCURVE",
"350 284 OFFCURVE",
"350 475 CURVE SMOOTH",
"350 1030 LINE SMOOTH",
"350 1079 OFFCURVE",
"287 1145 OFFCURVE",
"227 1169 CURVE",
"4 1044 LINE",
"4 999 LINE",
"71 986 OFFCURVE",
"104 941 OFFCURVE",
"104 866 CURVE SMOOTH",
"104 303 LINE SMOOTH",
"104 170 OFFCURVE",
"184 41 OFFCURVE",
"268 41 CURVE SMOOTH",
"291 41 OFFCURVE",
"380 77 OFFCURVE",
"534 150 CURVE",
"445 -53 OFFCURVE",
"289 -184 OFFCURVE",
"182 -184 CURVE SMOOTH",
"113 -184 LINE",
"113 -246 LINE",
"172 -276 LINE SMOOTH",
"253 -317 OFFCURVE",
"388 -369 OFFCURVE",
"457 -369 CURVE SMOOTH",
"505 -369 OFFCURVE",
"639 -155 OFFCURVE",
"711 -6 CURVE SMOOTH",
"757 91 OFFCURVE",
"780 165 OFFCURVE",
"780 217 CURVE SMOOTH",
"780 1030 LINE SMOOTH"
);
}
);
width = 882;
}
);
note = y;
unicode = 0079;
},
{
glyphname = z;
lastChange = "2021-04-01 12:34:42 +0000";
layers = (
{
layerId = "27714DAC-5FBA-4222-9599-87EDA629626A";
paths = (
{
closed = 1;
nodes = (
"737 978 OFFCURVE",
"659 1165 OFFCURVE",
"620 1217 CURVE",
"575 1217 LINE",
"564 1172 OFFCURVE",
"517 1149 OFFCURVE",
"434 1149 CURVE SMOOTH",
"159 1149 LINE SMOOTH",
"110 1149 OFFCURVE",
"53 1100 OFFCURVE",
"20 1049 CURVE",
"137 881 LINE",
"182 881 LINE",
"193 926 OFFCURVE",
"240 948 OFFCURVE",
"323 948 CURVE SMOOTH",
"501 948 LINE",
"20 195 LINE",
"20 148 OFFCURVE",
"34 83 OFFCURVE",
"61 0 CURVE",
"598 0 LINE SMOOTH",
"646 0 OFFCURVE",
"704 48 OFFCURVE",
"737 100 CURVE",
"620 268 LINE",
"575 268 LINE",
"564 223 OFFCURVE",
"517 201 OFFCURVE",
"434 201 CURVE SMOOTH",
"272 201 LINE",
"737 950 LINE"
);
}
);
width = 757;
}
);
note = z;
unicode = 007A;
},
{
glyphname = uni1780;
lastChange = "2021-04-01 12:34:42 +0000";
layers = (
{
layerId = "27714DAC-5FBA-4222-9599-87EDA629626A";
paths = (
{
closed = 1;
nodes = (
"335 1010 OFFCURVE",
"371 1034 OFFCURVE",
"402 1071 CURVE SMOOTH",
"416 1088 OFFCURVE",
"423 1105 OFFCURVE",
"423 1121 CURVE SMOOTH",
"423 1140 OFFCURVE",
"413 1158 OFFCURVE",
"394 1175 CURVE SMOOTH",
"358 1207 OFFCURVE",
"318 1232 OFFCURVE",
"274 1250 CURVE",
"298 1300 LINE",
"560 1300 LINE SMOOTH",
"587 1300 OFFCURVE",
"600 1282 OFFCURVE",
"600 1247 CURVE SMOOTH",
"600 1229 OFFCURVE",
"597 1207 OFFCURVE",
"590 1180 CURVE",
"637 1260 OFFCURVE",
"681 1300 OFFCURVE",
"720 1300 CURVE SMOOTH",
"902 1300 LINE SMOOTH",
"927 1300 OFFCURVE",
"940 1290 OFFCURVE",
"940 1271 CURVE SMOOTH",
"940 1266 LINE SMOOTH",
"937 1243 OFFCURVE",
"928 1204 OFFCURVE",
"914 1151 CURVE",
"969 1188 OFFCURVE",
"1006 1236 OFFCURVE",
"1024 1293 CURVE SMOOTH",
"1041 1350 OFFCURVE",
"1050 1419 OFFCURVE",
"1050 1500 CURVE",
"760 1500 LINE SMOOTH",
"730 1500 OFFCURVE",
"693 1467 OFFCURVE",
"650 1400 CURVE",
"650 1467 OFFCURVE",
"637 1500 OFFCURVE",
"610 1500 CURVE SMOOTH",
"300 1500 LINE",
"100 1100 LINE",
"114 1100 LINE SMOOTH",
"153 1100 OFFCURVE",
"186 1093 OFFCURVE",
"215 1078 CURVE SMOOTH",
"248 1061 OFFCURVE",
"274 1035 OFFCURVE",
"294 1000 CURVE"
);
},
{
closed = 1;
nodes = (
"400 876 OFFCURVE",
"408 919 OFFCURVE",
"425 928 CURVE SMOOTH",
"441 938 OFFCURVE",
"461 943 OFFCURVE",
"486 943 CURVE SMOOTH",
"511 943 OFFCURVE",
"569 917 OFFCURVE",
"662 864 CURVE SMOOTH",
"754 811 OFFCURVE",
"800 773 OFFCURVE",
"800 750 CURVE SMOOTH",
"800 -50 LINE",
"1000 150 LINE",
"1000 800 LINE SMOOTH",
"1000 867 OFFCURVE",
"920 946 OFFCURVE",
"759 1037 CURVE SMOOTH",
"686 1079 OFFCURVE",
"633 1100 OFFCURVE",
"600 1100 CURVE SMOOTH",
"567 1100 OFFCURVE",
"492 1067 OFFCURVE",
"375 1000 CURVE SMOOTH",
"258 933 OFFCURVE",
"200 867 OFFCURVE",
"200 800 CURVE SMOOTH",
"200 -50 LINE",
"400 150 LINE",
"400 800 LINE SMOOTH"
);
}
);
width = 1200;
}
);
note = uni1780;
unicode = 1780;
},
{
glyphname = uni1781;
lastChange = "2021-04-01 12:34:42 +0000";
layers = (
{
layerId = "27714DAC-5FBA-4222-9599-87EDA629626A";
paths = (
{
closed = 1;
nodes = (
"800 224 OFFCURVE",
"792 181 OFFCURVE",
"775 172 CURVE SMOOTH",
"759 162 OFFCURVE",
"739 157 OFFCURVE",
"714 157 CURVE SMOOTH",
"689 157 OFFCURVE",
"631 183 OFFCURVE",
"538 236 CURVE SMOOTH",
"446 289 OFFCURVE",
"400 327 OFFCURVE",
"400 350 CURVE SMOOTH",
"400 510 LINE",
"700 710 LINE SMOOTH",
"900 843 OFFCURVE",
"1000 940 OFFCURVE",
"1000 1000 CURVE SMOOTH",
"1000 1200 LINE SMOOTH",
"1000 1267 OFFCURVE",
"920 1346 OFFCURVE",
"759 1437 CURVE SMOOTH",
"686 1479 OFFCURVE",
"633 1500 OFFCURVE",
"600 1500 CURVE SMOOTH",
"567 1500 OFFCURVE",
"492 1467 OFFCURVE",
"375 1400 CURVE SMOOTH",
"258 1333 OFFCURVE",
"200 1267 OFFCURVE",
"200 1200 CURVE SMOOTH",
"200 880 LINE SMOOTH",
"200 827 OFFCURVE",
"215 800 OFFCURVE",
"245 800 CURVE SMOOTH",
"282 800 OFFCURVE",
"350 832 OFFCURVE",
"450 895 CURVE SMOOTH",
"550 958 OFFCURVE",
"600 1025 OFFCURVE",
"600 1095 CURVE SMOOTH",
"600 1165 OFFCURVE",
"547 1200 OFFCURVE",
"440 1200 CURVE SMOOTH",
"400 1200 LINE",
"400 1276 OFFCURVE",
"408 1319 OFFCURVE",
"425 1328 CURVE SMOOTH",
"441 1338 OFFCURVE",
"461 1343 OFFCURVE",
"486 1343 CURVE SMOOTH",
"511 1343 OFFCURVE",
"569 1317 OFFCURVE",
"662 1264 CURVE SMOOTH",
"754 1211 OFFCURVE",
"800 1173 OFFCURVE",
"800 1150 CURVE SMOOTH",
"800 1000 LINE SMOOTH",
"800 940 OFFCURVE",
"733 863 OFFCURVE",
"600 770 CURVE SMOOTH",
"467 677 OFFCURVE",
"333 630 OFFCURVE",
"200 630 CURVE",
"200 300 LINE SMOOTH",
"200 233 OFFCURVE",
"280 154 OFFCURVE",
"441 63 CURVE SMOOTH",
"514 21 OFFCURVE",
"567 0 OFFCURVE",
"600 0 CURVE SMOOTH",
"633 0 OFFCURVE",
"708 33 OFFCURVE",
"825 100 CURVE SMOOTH",
"942 167 OFFCURVE",
"1000 233 OFFCURVE",
"1000 300 CURVE SMOOTH",
"1000 750 LINE",
"800 550 LINE",
"800 300 LINE SMOOTH"
);
},
{
closed = 1;
nodes = (
"457 1090 OFFCURVE",
"468 1081 OFFCURVE",
"468 1062 CURVE SMOOTH",
"468 1049 OFFCURVE",
"445 1030 OFFCURVE",
"400 1005 CURVE",
"400 1090 LINE",
"434 1090 LINE SMOOTH"
);
}
);
width = 1200;
}
);
note = uni1781;
unicode = 1781;
},
{
glyphname = uni1782;
lastChange = "2021-04-01 12:34:42 +0000";
layers = (
{
layerId = "27714DAC-5FBA-4222-9599-87EDA629626A";
paths = (
{
closed = 1;
nodes = (
"335 1010 OFFCURVE",
"371 1034 OFFCURVE",
"402 1071 CURVE SMOOTH",
"416 1088 OFFCURVE",
"423 1105 OFFCURVE",
"423 1121 CURVE SMOOTH",
"423 1140 OFFCURVE",
"413 1158 OFFCURVE",
"394 1175 CURVE SMOOTH",
"358 1207 OFFCURVE",
"318 1232 OFFCURVE",
"274 1250 CURVE",
"298 1300 LINE",
"560 1300 LINE SMOOTH",
"587 1300 OFFCURVE",
"600 1282 OFFCURVE",
"600 1247 CURVE SMOOTH",
"600 1229 OFFCURVE",
"597 1207 OFFCURVE",
"590 1180 CURVE",
"637 1260 OFFCURVE",
"681 1300 OFFCURVE",
"720 1300 CURVE SMOOTH",
"902 1300 LINE SMOOTH",
"927 1300 OFFCURVE",
"940 1290 OFFCURVE",
"940 1271 CURVE SMOOTH",
"940 1266 LINE SMOOTH",
"937 1243 OFFCURVE",
"928 1204 OFFCURVE",
"914 1151 CURVE",
"969 1188 OFFCURVE",
"1006 1236 OFFCURVE",
"1024 1293 CURVE SMOOTH",
"1041 1350 OFFCURVE",
"1050 1419 OFFCURVE",
"1050 1500 CURVE",
"760 1500 LINE SMOOTH",
"730 1500 OFFCURVE",
"693 1467 OFFCURVE",
"650 1400 CURVE",
"650 1467 OFFCURVE",
"637 1500 OFFCURVE",
"610 1500 CURVE SMOOTH",
"300 1500 LINE",
"100 1100 LINE",
"114 1100 LINE SMOOTH",
"153 1100 OFFCURVE",
"186 1093 OFFCURVE",
"215 1078 CURVE SMOOTH",
"248 1061 OFFCURVE",
"274 1035 OFFCURVE",
"294 1000 CURVE"
);
},
{
closed = 1;
nodes = (
"466 263 LINE SMOOTH",
"487 288 OFFCURVE",
"506 300 OFFCURVE",
"525 300 CURVE SMOOTH",
"563 300 OFFCURVE",
"588 285 OFFCURVE",
"600 255 CURVE",
"667 285 OFFCURVE",
"700 322 OFFCURVE",
"700 365 CURVE SMOOTH",
"700 408 OFFCURVE",
"684 441 OFFCURVE",
"653 465 CURVE SMOOTH",
"621 488 OFFCURVE",
"591 500 OFFCURVE",
"562 500 CURVE SMOOTH",
"497 500 OFFCURVE",
"443 450 OFFCURVE",
"400 349 CURVE",
"400 800 LINE SMOOTH",
"400 876 OFFCURVE",
"408 919 OFFCURVE",
"425 928 CURVE SMOOTH",
"441 938 OFFCURVE",
"461 943 OFFCURVE",
"486 943 CURVE SMOOTH",
"511 943 OFFCURVE",
"569 917 OFFCURVE",
"662 864 CURVE SMOOTH",
"754 811 OFFCURVE",
"800 773 OFFCURVE",
"800 750 CURVE SMOOTH",
"800 -50 LINE",
"1000 150 LINE",
"1000 800 LINE SMOOTH",
"1000 867 OFFCURVE",
"920 946 OFFCURVE",
"759 1037 CURVE SMOOTH",
"686 1079 OFFCURVE",
"633 1100 OFFCURVE",
"600 1100 CURVE SMOOTH",
"567 1100 OFFCURVE",
"492 1067 OFFCURVE",
"375 1000 CURVE SMOOTH",
"258 933 OFFCURVE",
"200 867 OFFCURVE",
"200 800 CURVE SMOOTH",
"200 40 LINE SMOOTH",
"200 13 OFFCURVE",
"208 0 OFFCURVE",
"225 0 CURVE SMOOTH",
"242 0 OFFCURVE",
"260 13 OFFCURVE",
"281 38 CURVE SMOOTH"
);
}
);
width = 1200;
}
);
note = uni1782;
unicode = 1782;
},
{
glyphname = uni1783;
lastChange = "2021-04-01 12:34:42 +0000";
layers = (
{
layerId = "27714DAC-5FBA-4222-9599-87EDA629626A";
paths = (
{
closed = 1;
nodes = (
"447 947 OFFCURVE",
"483 1000 OFFCURVE",
"510 1060 CURVE SMOOTH",
"537 1120 OFFCURVE",
"550 1187 OFFCURVE",
"550 1260 CURVE SMOOTH",
"550 1327 OFFCURVE",
"528 1383 OFFCURVE",
"485 1430 CURVE SMOOTH",
"442 1477 OFFCURVE",
"380 1500 OFFCURVE",
"300 1500 CURVE SMOOTH",
"247 1500 OFFCURVE",
"200 1483 OFFCURVE",
"160 1450 CURVE SMOOTH",
"120 1417 OFFCURVE",
"100 1367 OFFCURVE",
"100 1300 CURVE SMOOTH",
"100 1213 OFFCURVE",
"144 1169 OFFCURVE",
"231 1167 CURVE SMOOTH",
"240 1167 LINE SMOOTH",
"320 1167 OFFCURVE",
"360 1193 OFFCURVE",
"360 1245 CURVE SMOOTH",
"360 1246 LINE",
"320 1249 OFFCURVE",
"300 1265 OFFCURVE",
"300 1295 CURVE SMOOTH",
"300 1325 OFFCURVE",
"317 1340 OFFCURVE",
"350 1340 CURVE SMOOTH",
"397 1340 OFFCURVE",
"440 1311 OFFCURVE",
"440 1254 CURVE SMOOTH",
"440 1216 OFFCURVE",
"424 1178 OFFCURVE",
"393 1141 CURVE SMOOTH",
"362 1103 OFFCURVE",
"297 1079 OFFCURVE",
"200 1070 CURVE",
"200 430 LINE SMOOTH",
"200 390 OFFCURVE",
"191 364 OFFCURVE",
"148 345 CURVE",
"169 282 OFFCURVE",
"201 230 OFFCURVE",
"242 191 CURVE SMOOTH",
"283 152 OFFCURVE",
"345 109 OFFCURVE",
"427 63 CURVE SMOOTH",
"502 21 OFFCURVE",
"556 0 OFFCURVE",
"590 0 CURVE SMOOTH",
"624 0 OFFCURVE",
"701 33 OFFCURVE",
"821 100 CURVE SMOOTH",
"849 115 OFFCURVE",
"874 131 OFFCURVE",
"895 147 CURVE",
"931 120 OFFCURVE",
"975 92 OFFCURVE",
"1027 63 CURVE SMOOTH",
"1102 21 OFFCURVE",
"1156 0 OFFCURVE",
"1190 0 CURVE SMOOTH",
"1224 0 OFFCURVE",
"1301 33 OFFCURVE",
"1421 100 CURVE SMOOTH",
"1540 167 OFFCURVE",
"1600 233 OFFCURVE",
"1600 300 CURVE SMOOTH",
"1600 924 LINE SMOOTH",
"1600 977 OFFCURVE",
"1579 1020 OFFCURVE",
"1537 1053 CURVE SMOOTH",
"1495 1087 OFFCURVE",
"1432 1112 OFFCURVE",
"1348 1127 CURVE",
"1417 1300 LINE",
"1550 1300 LINE SMOOTH",
"1583 1300 OFFCURVE",
"1600 1289 OFFCURVE",
"1600 1266 CURVE SMOOTH",
"1600 1243 OFFCURVE",
"1595 1211 OFFCURVE",
"1584 1170 CURVE",
"1626 1195 OFFCURVE",
"1656 1236 OFFCURVE",
"1674 1293 CURVE SMOOTH",
"1691 1350 OFFCURVE",
"1700 1419 OFFCURVE",
"1700 1500 CURVE",
"1400 1500 LINE",
"1235 1086 LINE SMOOTH",
"1218 1046 OFFCURVE",
"1210 1013 OFFCURVE",
"1210 986 CURVE SMOOTH",
"1210 959 OFFCURVE",
"1226 944 OFFCURVE",
"1258 940 CURVE SMOOTH",
"1353 927 OFFCURVE",
"1400 900 OFFCURVE",
"1400 860 CURVE SMOOTH",
"1400 300 LINE SMOOTH",
"1400 224 OFFCURVE",
"1391 181 OFFCURVE",
"1374 172 CURVE SMOOTH",
"1358 162 OFFCURVE",
"1337 157 OFFCURVE",
"1312 157 CURVE SMOOTH",
"1287 157 OFFCURVE",
"1224 184 OFFCURVE",
"1124 237 CURVE SMOOTH",
"1064 270 OFFCURVE",
"1023 297 OFFCURVE",
"1000 318 CURVE",
"1000 924 LINE SMOOTH",
"1000 977 OFFCURVE",
"979 1020 OFFCURVE",
"937 1053 CURVE SMOOTH",
"895 1087 OFFCURVE",
"832 1112 OFFCURVE",
"748 1127 CURVE",
"817 1300 LINE",
"950 1300 LINE SMOOTH",
"983 1300 OFFCURVE",
"1000 1289 OFFCURVE",
"1000 1266 CURVE SMOOTH",
"1000 1243 OFFCURVE",
"995 1211 OFFCURVE",
"984 1170 CURVE",
"1026 1195 OFFCURVE",
"1056 1236 OFFCURVE",
"1074 1293 CURVE SMOOTH",
"1091 1350 OFFCURVE",
"1100 1419 OFFCURVE",
"1100 1500 CURVE",
"800 1500 LINE",
"635 1086 LINE SMOOTH",
"618 1046 OFFCURVE",
"610 1013 OFFCURVE",
"610 986 CURVE SMOOTH",
"610 959 OFFCURVE",
"626 944 OFFCURVE",
"658 940 CURVE SMOOTH",
"753 927 OFFCURVE",
"800 900 OFFCURVE",
"800 860 CURVE SMOOTH",
"800 300 LINE SMOOTH",
"800 224 OFFCURVE",
"791 181 OFFCURVE",
"774 172 CURVE SMOOTH",
"758 162 OFFCURVE",
"737 157 OFFCURVE",
"712 157 CURVE SMOOTH",
"687 157 OFFCURVE",
"624 184 OFFCURVE",
"524 237 CURVE SMOOTH",
"428 290 OFFCURVE",
"380 327 OFFCURVE",
"380 349 CURVE",
"393 363 OFFCURVE",
"400 383 OFFCURVE",
"400 410 CURVE SMOOTH",
"400 900 LINE"
);
}
);
width = 1800;
}
);
note = uni1783;
unicode = 1783;
},
{
glyphname = uni1784;
lastChange = "2021-04-01 12:34:42 +0000";
layers = (
{
layerId = "27714DAC-5FBA-4222-9599-87EDA629626A";
paths = (
{
closed = 1;
nodes = (
"886 1195 OFFCURVE",
"900 1204 OFFCURVE",
"913 1213 CURVE SMOOTH",
"970 1254 OFFCURVE",
"999 1295 OFFCURVE",
"999 1337 CURVE SMOOTH",
"999 1338 LINE SMOOTH",
"999 1379 OFFCURVE",
"983 1420 OFFCURVE",
"950 1460 CURVE SMOOTH",
"917 1500 OFFCURVE",
"867 1520 OFFCURVE",
"800 1520 CURVE SMOOTH",
"733 1520 OFFCURVE",
"683 1503 OFFCURVE",
"650 1470 CURVE SMOOTH",
"617 1437 OFFCURVE",
"600 1396 OFFCURVE",
"600 1349 CURVE SMOOTH",
"600 1335 OFFCURVE",
"605 1319 OFFCURVE",
"616 1300 CURVE",
"400 1300 LINE",
"400 1670 LINE SMOOTH",
"400 1823 OFFCURVE",
"360 1900 OFFCURVE",
"280 1900 CURVE SMOOTH",
"227 1900 OFFCURVE",
"167 1827 OFFCURVE",
"100 1680 CURVE",
"135 1700 OFFCURVE",
"160 1710 OFFCURVE",
"176 1710 CURVE SMOOTH",
"192 1710 OFFCURVE",
"200 1697 OFFCURVE",
"200 1670 CURVE SMOOTH",
"200 1200 LINE SMOOTH",
"200 1153 OFFCURVE",
"233 1120 OFFCURVE",
"300 1100 CURVE",
"327 1133 OFFCURVE",
"393 1150 OFFCURVE",
"500 1150 CURVE SMOOTH",
"700 1150 LINE SMOOTH",
"714 1150 OFFCURVE",
"728 1151 OFFCURVE",
"741 1152 CURVE",
"780 1101 OFFCURVE",
"800 1050 OFFCURVE",
"800 1000 CURVE SMOOTH",
"800 309 LINE",
"600 548 LINE",
"400 309 LINE",
"400 940 LINE",
"359 980 OFFCURVE",
"319 1000 OFFCURVE",
"280 1000 CURVE SMOOTH",
"240 1000 OFFCURVE",
"204 983 OFFCURVE",
"173 948 CURVE SMOOTH",
"78 843 LINE SMOOTH",
"46 808 OFFCURVE",
"30 757 OFFCURVE",
"30 690 CURVE SMOOTH",
"30 657 OFFCURVE",
"44 629 OFFCURVE",
"73 608 CURVE SMOOTH",
"200 510 LINE",
"200 40 LINE SMOOTH",
"200 13 OFFCURVE",
"208 0 OFFCURVE",
"225 0 CURVE SMOOTH",
"242 0 OFFCURVE",
"262 14 OFFCURVE",
"285 41 CURVE SMOOTH",
"526 327 LINE",
"732 82 LINE SMOOTH",
"777 27 OFFCURVE",
"808 0 OFFCURVE",
"825 0 CURVE SMOOTH",
"842 0 OFFCURVE",
"875 25 OFFCURVE",
"925 75 CURVE SMOOTH",
"1000 150 LINE",
"1000 1000 LINE SMOOTH",
"1000 1057 OFFCURVE",
"957 1119 OFFCURVE",
"872 1188 CURVE"
);
},
{
closed = 1;
nodes = (
"702 1327 OFFCURVE",
"689 1348 OFFCURVE",
"689 1364 CURVE SMOOTH",
"689 1370 OFFCURVE",
"691 1375 OFFCURVE",
"695 1380 CURVE",
"704 1397 OFFCURVE",
"716 1405 OFFCURVE",
"729 1405 CURVE SMOOTH",
"748 1405 OFFCURVE",
"770 1388 OFFCURVE",
"796 1354 CURVE SMOOTH",
"805 1342 OFFCURVE",
"809 1332 OFFCURVE",
"809 1325 CURVE SMOOTH",
"809 1320 OFFCURVE",
"807 1316 OFFCURVE",
"804 1313 CURVE SMOOTH",
"796 1306 OFFCURVE",
"771 1301 OFFCURVE",
"729 1300 CURVE"
);
},
{
closed = 1;
nodes = (
"200 638 LINE",
"160 669 LINE",
"200 711 LINE"
);
}
);
width = 1200;
}
);
note = uni1784;
unicode = 1784;
},
{
glyphname = uni1785;
lastChange = "2021-04-01 12:34:42 +0000";
layers = (
{
layerId = "27714DAC-5FBA-4222-9599-87EDA629626A";
paths = (
{
closed = 1;
nodes = (
"546 1300 OFFCURVE",
"559 1282 OFFCURVE",
"559 1247 CURVE SMOOTH",
"559 1229 OFFCURVE",
"556 1207 OFFCURVE",
"549 1180 CURVE",
"596 1260 OFFCURVE",
"640 1300 OFFCURVE",
"679 1300 CURVE SMOOTH",
"891 1300 LINE SMOOTH",
"916 1300 OFFCURVE",
"929 1290 OFFCURVE",
"929 1271 CURVE SMOOTH",
"929 1266 LINE SMOOTH",
"926 1243 OFFCURVE",
"917 1204 OFFCURVE",
"903 1151 CURVE",
"958 1188 OFFCURVE",
"995 1236 OFFCURVE",
"1013 1293 CURVE SMOOTH",
"1030 1350 OFFCURVE",
"1039 1419 OFFCURVE",
"1039 1500 CURVE",
"719 1500 LINE SMOOTH",
"689 1500 OFFCURVE",
"652 1467 OFFCURVE",
"609 1400 CURVE",
"609 1467 OFFCURVE",
"596 1500 OFFCURVE",
"569 1500 CURVE SMOOTH",
"200 1500 LINE",
"55 1126 LINE SMOOTH",
"38 1086 OFFCURVE",
"30 1053 OFFCURVE",
"30 1026 CURVE SMOOTH",
"30 999 OFFCURVE",
"46 984 OFFCURVE",
"78 980 CURVE SMOOTH",
"159 967 OFFCURVE",
"200 940 OFFCURVE",
"200 900 CURVE SMOOTH",
"200 430 LINE SMOOTH",
"200 390 OFFCURVE",
"191 364 OFFCURVE",
"148 345 CURVE",
"169 282 OFFCURVE",
"201 230 OFFCURVE",
"242 191 CURVE SMOOTH",
"283 152 OFFCURVE",
"345 109 OFFCURVE",
"427 63 CURVE SMOOTH",
"502 21 OFFCURVE",
"556 0 OFFCURVE",
"590 0 CURVE SMOOTH",
"624 0 OFFCURVE",
"701 33 OFFCURVE",
"821 100 CURVE SMOOTH",
"940 167 OFFCURVE",
"1000 233 OFFCURVE",
"1000 300 CURVE SMOOTH",
"1000 1000 LINE SMOOTH",
"1000 1067 OFFCURVE",
"965 1100 OFFCURVE",
"895 1100 CURVE SMOOTH",
"864 1100 OFFCURVE",
"810 1061 OFFCURVE",
"731 982 CURVE SMOOTH",
"644 895 OFFCURVE",
"600 817 OFFCURVE",
"600 750 CURVE SMOOTH",
"600 655 OFFCURVE",
"643 600 OFFCURVE",
"770 600 CURVE SMOOTH",
"800 600 LINE",
"800 300 LINE SMOOTH",
"800 224 OFFCURVE",
"791 181 OFFCURVE",
"774 172 CURVE SMOOTH",
"758 162 OFFCURVE",
"737 157 OFFCURVE",
"712 157 CURVE SMOOTH",
"687 157 OFFCURVE",
"624 184 OFFCURVE",
"524 237 CURVE SMOOTH",
"428 290 OFFCURVE",
"380 327 OFFCURVE",
"380 349 CURVE",
"393 363 OFFCURVE",
"400 383 OFFCURVE",
"400 410 CURVE SMOOTH",
"400 964 LINE SMOOTH",
"400 1017 OFFCURVE",
"379 1060 OFFCURVE",
"337 1094 CURVE SMOOTH",
"295 1127 OFFCURVE",
"239 1152 OFFCURVE",
"168 1167 CURVE",
"217 1300 LINE",
"519 1300 LINE SMOOTH"
);
},
{
closed = 1;
nodes = (
"743 751 OFFCURVE",
"730 763 OFFCURVE",
"730 787 CURVE SMOOTH",
"730 811 OFFCURVE",
"753 846 OFFCURVE",
"800 892 CURVE",
"800 751 LINE",
"770 751 LINE SMOOTH"
);
}
);
width = 1200;
}
);
note = uni1785;
unicode = 1785;
},
{
glyphname = uni1786;
lastChange = "2021-04-01 12:34:42 +0000";
layers = (
{
layerId = "27714DAC-5FBA-4222-9599-87EDA629626A";
paths = (
{
closed = 1;
nodes = (
"27 461 OFFCURVE",
"10 433 OFFCURVE",
"10 400 CURVE SMOOTH",
"10 333 OFFCURVE",
"42 270 OFFCURVE",
"105 209 CURVE SMOOTH",
"168 148 OFFCURVE",
"200 90 OFFCURVE",
"200 35 CURVE SMOOTH",
"200 12 OFFCURVE",
"208 0 OFFCURVE",
"225 0 CURVE SMOOTH",
"242 0 OFFCURVE",
"263 13 OFFCURVE",
"288 38 CURVE SMOOTH",
"400 150 LINE",
"400 500 LINE",
"443 500 OFFCURVE",
"476 488 OFFCURVE",
"498 463 CURVE SMOOTH",
"519 438 OFFCURVE",
"530 400 OFFCURVE",
"530 350 CURVE SMOOTH",
"530 233 OFFCURVE",
"548 146 OFFCURVE",
"584 88 CURVE SMOOTH",
"620 29 OFFCURVE",
"674 0 OFFCURVE",
"745 0 CURVE SMOOTH",
"830 0 OFFCURVE",
"894 25 OFFCURVE",
"936 75 CURVE SMOOTH",
"979 125 OFFCURVE",
"1000 200 OFFCURVE",
"1000 300 CURVE SMOOTH",
"1000 1000 LINE SMOOTH",
"1000 1067 OFFCURVE",
"965 1100 OFFCURVE",
"895 1100 CURVE SMOOTH",
"864 1100 OFFCURVE",
"810 1061 OFFCURVE",
"731 982 CURVE SMOOTH",
"644 895 OFFCURVE",
"600 817 OFFCURVE",
"600 750 CURVE SMOOTH",
"600 703 OFFCURVE",
"613 666 OFFCURVE",
"638 640 CURVE SMOOTH",
"650 627 OFFCURVE",
"667 617 OFFCURVE",
"689 610 CURVE SMOOTH",
"712 603 OFFCURVE",
"739 600 OFFCURVE",
"770 600 CURVE SMOOTH",
"800 600 LINE",
"800 300 LINE SMOOTH",
"800 233 OFFCURVE",
"782 200 OFFCURVE",
"745 200 CURVE SMOOTH",
"698 200 OFFCURVE",
"675 250 OFFCURVE",
"675 350 CURVE SMOOTH",
"675 433 OFFCURVE",
"652 496 OFFCURVE",
"606 538 CURVE SMOOTH",
"561 579 OFFCURVE",
"492 600 OFFCURVE",
"400 600 CURVE",
"400 964 LINE SMOOTH",
"400 1017 OFFCURVE",
"379 1060 OFFCURVE",
"337 1094 CURVE SMOOTH",
"295 1127 OFFCURVE",
"239 1152 OFFCURVE",
"168 1167 CURVE",
"217 1300 LINE",
"519 1300 LINE SMOOTH",
"546 1300 OFFCURVE",
"559 1282 OFFCURVE",
"559 1247 CURVE SMOOTH",
"559 1229 OFFCURVE",
"556 1207 OFFCURVE",
"549 1180 CURVE",
"596 1260 OFFCURVE",
"640 1300 OFFCURVE",
"679 1300 CURVE SMOOTH",
"891 1300 LINE SMOOTH",
"916 1300 OFFCURVE",
"929 1290 OFFCURVE",
"929 1271 CURVE SMOOTH",
"929 1266 LINE SMOOTH",
"926 1243 OFFCURVE",
"917 1204 OFFCURVE",
"903 1151 CURVE",
"958 1188 OFFCURVE",
"995 1236 OFFCURVE",
"1013 1293 CURVE SMOOTH",
"1030 1350 OFFCURVE",
"1039 1419 OFFCURVE",
"1039 1500 CURVE",
"719 1500 LINE SMOOTH",
"689 1500 OFFCURVE",
"652 1467 OFFCURVE",
"609 1400 CURVE",
"609 1467 OFFCURVE",
"596 1500 OFFCURVE",
"569 1500 CURVE SMOOTH",
"200 1500 LINE",
"55 1126 LINE SMOOTH",
"38 1086 OFFCURVE",
"30 1053 OFFCURVE",
"30 1026 CURVE SMOOTH",
"30 999 OFFCURVE",
"46 984 OFFCURVE",
"78 980 CURVE SMOOTH",
"159 967 OFFCURVE",
"200 940 OFFCURVE",
"200 900 CURVE SMOOTH",
"200 580 LINE",
"60 483 LINE SMOOTH"
);
},
{
closed = 1;
nodes = (
"743 751 OFFCURVE",
"730 763 OFFCURVE",
"730 787 CURVE SMOOTH",
"730 811 OFFCURVE",
"753 846 OFFCURVE",
"800 892 CURVE",
"800 751 LINE",
"770 751 LINE SMOOTH"
);
},
{
closed = 1;
nodes = (
"203 484 LINE",
"203 379 LINE",
"150 441 LINE"
);
}
);
width = 1200;
}
);
note = uni1786;
unicode = 1786;
},
{
glyphname = uni1787;
lastChange = "2021-04-01 12:34:42 +0000";
layers = (
{
layerId = "27714DAC-5FBA-4222-9599-87EDA629626A";
paths = (
{
closed = 1;
nodes = (
"999 1330 OFFCURVE",
"1025 1405 OFFCURVE",
"1035 1502 CURVE SMOOTH",
"1038 1524 OFFCURVE",
"1040 1548 OFFCURVE",
"1040 1573 CURVE SMOOTH",
"1040 1635 OFFCURVE",
"1018 1691 OFFCURVE",
"973 1740 CURVE SMOOTH",
"928 1789 OFFCURVE",
"906 1829 OFFCURVE",
"905 1858 CURVE SMOOTH",
"905 1901 OFFCURVE",
"931 1948 OFFCURVE",
"984 2000 CURVE",
"896 1979 OFFCURVE",
"833 1950 OFFCURVE",
"796 1914 CURVE SMOOTH",
"759 1878 OFFCURVE",
"740 1840 OFFCURVE",
"740 1801 CURVE SMOOTH",
"740 1746 OFFCURVE",
"777 1677 OFFCURVE",
"852 1596 CURVE SMOOTH",
"898 1546 OFFCURVE",
"929 1508 OFFCURVE",
"945 1482 CURVE SMOOTH",
"951 1473 OFFCURVE",
"954 1462 OFFCURVE",
"954 1451 CURVE SMOOTH",
"954 1444 OFFCURVE",
"953 1437 OFFCURVE",
"951 1430 CURVE SMOOTH",
"944 1410 OFFCURVE",
"931 1393 OFFCURVE",
"910 1378 CURVE",
"910 1419 OFFCURVE",
"903 1449 OFFCURVE",
"888 1470 CURVE SMOOTH",
"873 1490 OFFCURVE",
"850 1500 OFFCURVE",
"820 1500 CURVE SMOOTH",
"200 1500 LINE",
"55 1126 LINE SMOOTH",
"38 1086 OFFCURVE",
"30 1053 OFFCURVE",
"30 1026 CURVE SMOOTH",
"30 999 OFFCURVE",
"46 984 OFFCURVE",
"78 980 CURVE SMOOTH",
"159 967 OFFCURVE",
"200 940 OFFCURVE",
"200 900 CURVE SMOOTH",
"200 40 LINE SMOOTH",
"200 13 OFFCURVE",
"208 0 OFFCURVE",
"225 0 CURVE SMOOTH",
"242 0 OFFCURVE",
"262 14 OFFCURVE",
"285 41 CURVE SMOOTH",
"526 327 LINE",
"732 82 LINE SMOOTH",
"777 27 OFFCURVE",
"808 0 OFFCURVE",
"825 0 CURVE SMOOTH",
"842 0 OFFCURVE",
"875 25 OFFCURVE",
"925 75 CURVE SMOOTH",
"1000 150 LINE",
"1000 1100 LINE",
"800 900 LINE",
"800 309 LINE",
"600 548 LINE",
"400 309 LINE",
"400 964 LINE SMOOTH",
"400 1017 OFFCURVE",
"379 1060 OFFCURVE",
"337 1094 CURVE SMOOTH",
"295 1127 OFFCURVE",
"239 1152 OFFCURVE",
"168 1167 CURVE",
"217 1300 LINE",
"781 1300 LINE SMOOTH",
"806 1300 OFFCURVE",
"819 1290 OFFCURVE",
"819 1271 CURVE SMOOTH",
"819 1266 LINE SMOOTH",
"816 1243 OFFCURVE",
"810 1221 OFFCURVE",
"801 1200 CURVE",
"810 1197 OFFCURVE",
"818 1196 OFFCURVE",
"826 1196 CURVE SMOOTH",
"866 1196 OFFCURVE",
"909 1224 OFFCURVE",
"956 1279 CURVE SMOOTH"
);
}
);
width = 1200;
}
);
note = uni1787;
unicode = 1787;
},
{
glyphname = uni1788;
lastChange = "2021-04-01 12:34:42 +0000";
layers = (
{
layerId = "27714DAC-5FBA-4222-9599-87EDA629626A";
paths = (
{
closed = 1;
nodes = (
"1531 120 OFFCURVE",
"1575 92 OFFCURVE",
"1627 63 CURVE SMOOTH",
"1702 21 OFFCURVE",
"1756 0 OFFCURVE",
"1790 0 CURVE SMOOTH",
"1824 0 OFFCURVE",
"1901 33 OFFCURVE",
"2021 100 CURVE SMOOTH",
"2140 167 OFFCURVE",
"2200 233 OFFCURVE",
"2200 300 CURVE SMOOTH",
"2200 924 LINE SMOOTH",
"2200 977 OFFCURVE",
"2179 1020 OFFCURVE",
"2137 1053 CURVE SMOOTH",
"2095 1087 OFFCURVE",
"2032 1112 OFFCURVE",
"1948 1127 CURVE",
"2017 1300 LINE",
"2150 1300 LINE SMOOTH",
"2183 1300 OFFCURVE",
"2200 1289 OFFCURVE",
"2200 1266 CURVE SMOOTH",
"2200 1243 OFFCURVE",
"2195 1211 OFFCURVE",
"2184 1170 CURVE",
"2226 1195 OFFCURVE",
"2256 1236 OFFCURVE",
"2274 1293 CURVE SMOOTH",
"2291 1350 OFFCURVE",
"2300 1419 OFFCURVE",
"2300 1500 CURVE",
"2000 1500 LINE",
"1835 1086 LINE SMOOTH",
"1818 1046 OFFCURVE",
"1810 1013 OFFCURVE",
"1810 986 CURVE SMOOTH",
"1810 959 OFFCURVE",
"1826 944 OFFCURVE",
"1858 940 CURVE SMOOTH",
"1953 927 OFFCURVE",
"2000 900 OFFCURVE",
"2000 860 CURVE SMOOTH",
"2000 300 LINE SMOOTH",
"2000 224 OFFCURVE",
"1991 181 OFFCURVE",
"1974 172 CURVE SMOOTH",
"1958 162 OFFCURVE",
"1937 157 OFFCURVE",
"1912 157 CURVE SMOOTH",
"1887 157 OFFCURVE",
"1824 184 OFFCURVE",
"1724 237 CURVE SMOOTH",
"1664 270 OFFCURVE",
"1623 297 OFFCURVE",
"1600 318 CURVE",
"1600 924 LINE SMOOTH",
"1600 977 OFFCURVE",
"1579 1020 OFFCURVE",
"1537 1053 CURVE SMOOTH",
"1495 1087 OFFCURVE",
"1432 1112 OFFCURVE",
"1348 1127 CURVE",
"1417 1300 LINE",
"1550 1300 LINE SMOOTH",
"1583 1300 OFFCURVE",
"1600 1289 OFFCURVE",
"1600 1266 CURVE SMOOTH",
"1600 1243 OFFCURVE",
"1595 1211 OFFCURVE",
"1584 1170 CURVE",
"1626 1195 OFFCURVE",
"1656 1236 OFFCURVE",
"1674 1293 CURVE SMOOTH",
"1691 1350 OFFCURVE",
"1700 1419 OFFCURVE",
"1700 1500 CURVE",
"1400 1500 LINE",
"1235 1086 LINE SMOOTH",
"1218 1046 OFFCURVE",
"1210 1013 OFFCURVE",
"1210 986 CURVE SMOOTH",
"1210 959 OFFCURVE",
"1226 944 OFFCURVE",
"1258 940 CURVE SMOOTH",
"1353 927 OFFCURVE",
"1400 900 OFFCURVE",
"1400 860 CURVE SMOOTH",
"1400 300 LINE SMOOTH",
"1400 224 OFFCURVE",
"1391 181 OFFCURVE",
"1374 172 CURVE SMOOTH",
"1358 162 OFFCURVE",
"1337 157 OFFCURVE",
"1312 157 CURVE SMOOTH",
"1287 157 OFFCURVE",
"1224 184 OFFCURVE",
"1124 237 CURVE SMOOTH",
"1028 290 OFFCURVE",
"980 327 OFFCURVE",
"980 349 CURVE",
"993 363 OFFCURVE",
"1000 383 OFFCURVE",
"1000 410 CURVE SMOOTH",
"1000 1500 LINE",
"200 1500 LINE",
"55 1126 LINE SMOOTH",
"38 1086 OFFCURVE",
"30 1053 OFFCURVE",
"30 1026 CURVE SMOOTH",
"30 999 OFFCURVE",
"46 984 OFFCURVE",
"78 980 CURVE SMOOTH",
"159 967 OFFCURVE",
"200 940 OFFCURVE",
"200 900 CURVE SMOOTH",
"200 40 LINE SMOOTH",
"200 13 OFFCURVE",
"208 0 OFFCURVE",
"225 0 CURVE SMOOTH",
"242 0 OFFCURVE",
"265 15 OFFCURVE",
"294 44 CURVE SMOOTH",
"469 219 LINE SMOOTH",
"556 306 OFFCURVE",
"600 400 OFFCURVE",
"600 500 CURVE SMOOTH",
"600 600 OFFCURVE",
"550 650 OFFCURVE",
"450 650 CURVE SMOOTH",
"400 650 LINE",
"400 964 LINE SMOOTH",
"400 1017 OFFCURVE",
"379 1060 OFFCURVE",
"337 1094 CURVE SMOOTH",
"295 1127 OFFCURVE",
"239 1152 OFFCURVE",
"168 1167 CURVE",
"217 1300 LINE",
"800 1300 LINE",
"800 430 LINE SMOOTH",
"800 390 OFFCURVE",
"791 364 OFFCURVE",
"748 345 CURVE",
"769 282 OFFCURVE",
"801 230 OFFCURVE",
"842 191 CURVE SMOOTH",
"883 152 OFFCURVE",
"945 109 OFFCURVE",
"1027 63 CURVE SMOOTH",
"1102 21 OFFCURVE",
"1156 0 OFFCURVE",
"1190 0 CURVE SMOOTH",
"1224 0 OFFCURVE",
"1301 33 OFFCURVE",
"1421 100 CURVE SMOOTH",
"1449 115 OFFCURVE",
"1474 131 OFFCURVE",
"1495 147 CURVE"
);
},
{
closed = 1;
nodes = (
"477 500 OFFCURVE",
"490 486 OFFCURVE",
"490 459 CURVE SMOOTH",
"490 418 OFFCURVE",
"460 368 OFFCURVE",
"400 309 CURVE",
"400 500 LINE",
"450 500 LINE SMOOTH"
);
}
);
width = 2400;
}
);
note = uni1788;
unicode = 1788;
},
{
glyphname = uni1789;
lastChange = "2021-04-01 12:34:42 +0000";
layers = (
{
layerId = "27714DAC-5FBA-4222-9599-87EDA629626A";
paths = (
{
closed = 1;
nodes = (
"1310 1500 LINE SMOOTH",
"1200 1500 OFFCURVE",
"1097 1433 OFFCURVE",
"1000 1300 CURVE",
"1000 1500 LINE",
"730 1500 LINE SMOOTH",
"673 1500 OFFCURVE",
"620 1457 OFFCURVE",
"570 1370 CURVE",
"570 1457 OFFCURVE",
"547 1500 OFFCURVE",
"500 1500 CURVE SMOOTH",
"200 1500 LINE",
"55 1126 LINE SMOOTH",
"38 1086 OFFCURVE",
"30 1053 OFFCURVE",
"30 1026 CURVE SMOOTH",
"30 999 OFFCURVE",
"46 984 OFFCURVE",
"78 980 CURVE SMOOTH",
"159 967 OFFCURVE",
"200 940 OFFCURVE",
"200 900 CURVE SMOOTH",
"200 40 LINE SMOOTH",
"200 13 OFFCURVE",
"208 0 OFFCURVE",
"225 0 CURVE SMOOTH",
"242 0 OFFCURVE",
"265 15 OFFCURVE",
"294 44 CURVE SMOOTH",
"469 219 LINE SMOOTH",
"556 306 OFFCURVE",
"600 400 OFFCURVE",
"600 500 CURVE SMOOTH",
"600 600 OFFCURVE",
"550 650 OFFCURVE",
"450 650 CURVE SMOOTH",
"400 650 LINE",
"400 964 LINE SMOOTH",
"400 1017 OFFCURVE",
"379 1060 OFFCURVE",
"337 1094 CURVE SMOOTH",
"295 1127 OFFCURVE",
"239 1152 OFFCURVE",
"168 1167 CURVE",
"217 1300 LINE",
"460 1300 LINE SMOOTH",
"489 1300 OFFCURVE",
"504 1278 OFFCURVE",
"504 1234 CURVE SMOOTH",
"504 1218 OFFCURVE",
"502 1200 OFFCURVE",
"499 1179 CURVE SMOOTH",
"492 1138 LINE",
"571 1246 OFFCURVE",
"641 1300 OFFCURVE",
"700 1300 CURVE SMOOTH",
"800 1300 LINE",
"800 -50 LINE",
"1000 150 LINE",
"1000 1149 LINE",
"1078 1250 OFFCURVE",
"1171 1300 OFFCURVE",
"1280 1300 CURVE SMOOTH",
"1400 1300 LINE",
"1400 -50 LINE",
"1600 150 LINE",
"1600 1500 LINE"
);
},
{
closed = 1;
nodes = (
"477 500 OFFCURVE",
"490 486 OFFCURVE",
"490 459 CURVE SMOOTH",
"490 418 OFFCURVE",
"460 368 OFFCURVE",
"400 309 CURVE",
"400 500 LINE",
"450 500 LINE SMOOTH"
);
},
{
closed = 1;
nodes = (
"324 -320 OFFCURVE",
"384 -290 OFFCURVE",
"453 -290 CURVE SMOOTH",
"495 -290 OFFCURVE",
"609 -342 OFFCURVE",
"795 -447 CURVE SMOOTH",
"940 -529 OFFCURVE",
"1123 -570 OFFCURVE",
"1346 -570 CURVE SMOOTH",
"1431 -570 OFFCURVE",
"1494 -550 OFFCURVE",
"1537 -510 CURVE SMOOTH",
"1579 -470 OFFCURVE",
"1600 -410 OFFCURVE",
"1600 -330 CURVE SMOOTH",
"1600 -250 OFFCURVE",
"1540 -190 OFFCURVE",
"1420 -150 CURVE",
"1270 -300 LINE",
"1336 -301 OFFCURVE",
"1383 -314 OFFCURVE",
"1410 -340 CURVE SMOOTH",
"1437 -367 OFFCURVE",
"1450 -395 OFFCURVE",
"1450 -425 CURVE SMOOTH",
"1450 -455 OFFCURVE",
"1415 -470 OFFCURVE",
"1345 -470 CURVE SMOOTH",
"1274 -470 OFFCURVE",
"1152 -420 OFFCURVE",
"978 -320 CURVE SMOOTH",
"804 -220 OFFCURVE",
"658 -170 OFFCURVE",
"540 -170 CURVE SMOOTH",
"422 -170 OFFCURVE",
"328 -212 OFFCURVE",
"257 -295 CURVE SMOOTH",
"206 -356 OFFCURVE",
"180 -403 OFFCURVE",
"180 -437 CURVE SMOOTH",
"180 -450 OFFCURVE",
"184 -460 OFFCURVE",
"191 -469 CURVE",
"271 -379 LINE SMOOTH"
);
}
);
width = 1800;
}
);
note = uni1789;
unicode = 1789;
},
{
glyphname = uni178A;
lastChange = "2021-04-01 12:34:42 +0000";
layers = (
{
layerId = "27714DAC-5FBA-4222-9599-87EDA629626A";
paths = (
{
closed = 1;
nodes = (
"933 1233 OFFCURVE",
"1000 1334 OFFCURVE",
"1000 1432 CURVE SMOOTH",
"1000 1501 OFFCURVE",
"981 1570 OFFCURVE",
"942 1639 CURVE SMOOTH",
"903 1708 OFFCURVE",
"884 1755 OFFCURVE",
"883 1780 CURVE SMOOTH",
"883 1827 OFFCURVE",
"906 1880 OFFCURVE",
"951 1939 CURVE",
"875 1915 OFFCURVE",
"821 1883 OFFCURVE",
"789 1843 CURVE SMOOTH",
"756 1803 OFFCURVE",
"740 1761 OFFCURVE",
"740 1716 CURVE SMOOTH",
"740 1629 OFFCURVE",
"763 1542 OFFCURVE",
"810 1454 CURVE SMOOTH",
"829 1418 OFFCURVE",
"839 1385 OFFCURVE",
"839 1355 CURVE SMOOTH",
"839 1311 OFFCURVE",
"819 1273 OFFCURVE",
"778 1241 CURVE SMOOTH",
"737 1208 OFFCURVE",
"684 1192 OFFCURVE",
"617 1192 CURVE SMOOTH",
"574 1192 OFFCURVE",
"525 1199 OFFCURVE",
"470 1213 CURVE SMOOTH",
"347 1244 OFFCURVE",
"286 1271 OFFCURVE",
"286 1294 CURVE SMOOTH",
"286 1297 OFFCURVE",
"287 1299 OFFCURVE",
"289 1302 CURVE SMOOTH",
"302 1319 OFFCURVE",
"319 1328 OFFCURVE",
"341 1328 CURVE SMOOTH",
"349 1328 OFFCURVE",
"357 1327 OFFCURVE",
"366 1325 CURVE SMOOTH",
"390 1319 OFFCURVE",
"402 1308 OFFCURVE",
"402 1293 CURVE SMOOTH",
"402 1286 OFFCURVE",
"400 1279 OFFCURVE",
"395 1271 CURVE",
"426 1263 OFFCURVE",
"455 1259 OFFCURVE",
"480 1259 CURVE SMOOTH",
"542 1259 OFFCURVE",
"589 1281 OFFCURVE",
"620 1325 CURVE SMOOTH",
"639 1351 OFFCURVE",
"648 1374 OFFCURVE",
"648 1395 CURVE SMOOTH",
"648 1406 OFFCURVE",
"645 1417 OFFCURVE",
"640 1426 CURVE SMOOTH",
"625 1454 OFFCURVE",
"587 1476 OFFCURVE",
"527 1491 CURVE SMOOTH",
"502 1497 OFFCURVE",
"477 1500 OFFCURVE",
"454 1500 CURVE SMOOTH",
"422 1500 OFFCURVE",
"391 1494 OFFCURVE",
"362 1483 CURVE SMOOTH",
"311 1462 OFFCURVE",
"265 1424 OFFCURVE",
"224 1369 CURVE",
"161 1270 OFFCURVE",
"130 1208 OFFCURVE",
"130 1181 CURVE SMOOTH",
"130 1126 OFFCURVE",
"208 1077 OFFCURVE",
"364 1035 CURVE SMOOTH",
"409 1022 OFFCURVE",
"454 1016 OFFCURVE",
"497 1016 CURVE SMOOTH",
"603 1016 OFFCURVE",
"704 1053 OFFCURVE",
"799 1128 CURVE SMOOTH"
);
},
{
closed = 1;
nodes = (
"200 13 OFFCURVE",
"208 0 OFFCURVE",
"225 0 CURVE SMOOTH",
"242 0 OFFCURVE",
"262 14 OFFCURVE",
"285 41 CURVE SMOOTH",
"526 327 LINE",
"732 82 LINE SMOOTH",
"777 27 OFFCURVE",
"808 0 OFFCURVE",
"825 0 CURVE SMOOTH",
"842 0 OFFCURVE",
"875 25 OFFCURVE",
"925 75 CURVE SMOOTH",
"1000 150 LINE",
"1000 1100 LINE",
"800 900 LINE",
"800 309 LINE",
"600 548 LINE",
"400 309 LINE",
"400 900 LINE",
"200 900 LINE",
"200 40 LINE SMOOTH"
);
}
);
width = 1200;
}
);
note = uni178A;
unicode = 178A;
},
{
glyphname = uni178B;
lastChange = "2021-04-01 12:34:42 +0000";
layers = (
{
layerId = "27714DAC-5FBA-4222-9599-87EDA629626A";
paths = (
{
closed = 1;
nodes = (
"1119 1330 OFFCURVE",
"1145 1405 OFFCURVE",
"1155 1502 CURVE SMOOTH",
"1158 1524 OFFCURVE",
"1160 1548 OFFCURVE",
"1160 1573 CURVE SMOOTH",
"1160 1635 OFFCURVE",
"1138 1691 OFFCURVE",
"1093 1740 CURVE SMOOTH",
"1048 1789 OFFCURVE",
"1026 1829 OFFCURVE",
"1025 1858 CURVE SMOOTH",
"1025 1901 OFFCURVE",
"1051 1948 OFFCURVE",
"1104 2000 CURVE",
"1016 1979 OFFCURVE",
"953 1950 OFFCURVE",
"916 1914 CURVE SMOOTH",
"879 1878 OFFCURVE",
"860 1840 OFFCURVE",
"860 1801 CURVE SMOOTH",
"860 1746 OFFCURVE",
"897 1677 OFFCURVE",
"972 1596 CURVE SMOOTH",
"1018 1546 OFFCURVE",
"1049 1508 OFFCURVE",
"1065 1482 CURVE SMOOTH",
"1071 1473 OFFCURVE",
"1074 1462 OFFCURVE",
"1074 1451 CURVE SMOOTH",
"1074 1444 OFFCURVE",
"1073 1437 OFFCURVE",
"1071 1430 CURVE SMOOTH",
"1064 1410 OFFCURVE",
"1051 1393 OFFCURVE",
"1030 1378 CURVE",
"1030 1419 OFFCURVE",
"1023 1449 OFFCURVE",
"1008 1470 CURVE SMOOTH",
"993 1490 OFFCURVE",
"970 1500 OFFCURVE",
"940 1500 CURVE SMOOTH",
"800 1500 LINE",
"635 1086 LINE SMOOTH",
"618 1046 OFFCURVE",
"610 1013 OFFCURVE",
"610 986 CURVE SMOOTH",
"610 959 OFFCURVE",
"626 944 OFFCURVE",
"658 940 CURVE SMOOTH",
"753 927 OFFCURVE",
"800 900 OFFCURVE",
"800 860 CURVE SMOOTH",
"800 300 LINE SMOOTH",
"800 224 OFFCURVE",
"791 181 OFFCURVE",
"774 172 CURVE SMOOTH",
"758 162 OFFCURVE",
"737 157 OFFCURVE",
"712 157 CURVE SMOOTH",
"687 157 OFFCURVE",
"624 184 OFFCURVE",
"524 237 CURVE SMOOTH",
"428 290 OFFCURVE",
"380 327 OFFCURVE",
"380 349 CURVE",
"393 363 OFFCURVE",
"400 383 OFFCURVE",
"400 410 CURVE SMOOTH",
"400 900 LINE",
"447 947 OFFCURVE",
"483 1000 OFFCURVE",
"510 1060 CURVE SMOOTH",
"537 1120 OFFCURVE",
"550 1187 OFFCURVE",
"550 1260 CURVE SMOOTH",
"550 1327 OFFCURVE",
"528 1383 OFFCURVE",
"485 1430 CURVE SMOOTH",
"442 1477 OFFCURVE",
"380 1500 OFFCURVE",
"300 1500 CURVE SMOOTH",
"247 1500 OFFCURVE",
"200 1483 OFFCURVE",
"160 1450 CURVE SMOOTH",
"120 1417 OFFCURVE",
"100 1367 OFFCURVE",
"100 1300 CURVE SMOOTH",
"100 1213 OFFCURVE",
"144 1169 OFFCURVE",
"231 1167 CURVE SMOOTH",
"240 1167 LINE SMOOTH",
"320 1167 OFFCURVE",
"360 1193 OFFCURVE",
"360 1245 CURVE SMOOTH",
"360 1246 LINE",
"320 1249 OFFCURVE",
"300 1265 OFFCURVE",
"300 1295 CURVE SMOOTH",
"300 1325 OFFCURVE",
"317 1340 OFFCURVE",
"350 1340 CURVE SMOOTH",
"397 1340 OFFCURVE",
"440 1311 OFFCURVE",
"440 1254 CURVE SMOOTH",
"440 1216 OFFCURVE",
"424 1178 OFFCURVE",
"393 1141 CURVE SMOOTH",
"362 1103 OFFCURVE",
"297 1079 OFFCURVE",
"200 1070 CURVE",
"200 430 LINE SMOOTH",
"200 390 OFFCURVE",
"191 364 OFFCURVE",
"148 345 CURVE",
"169 282 OFFCURVE",
"201 230 OFFCURVE",
"242 191 CURVE SMOOTH",
"283 152 OFFCURVE",
"345 109 OFFCURVE",
"427 63 CURVE SMOOTH",
"502 21 OFFCURVE",
"556 0 OFFCURVE",
"590 0 CURVE SMOOTH",
"624 0 OFFCURVE",
"701 33 OFFCURVE",
"821 100 CURVE SMOOTH",
"940 167 OFFCURVE",
"1000 233 OFFCURVE",
"1000 300 CURVE SMOOTH",
"1000 924 LINE SMOOTH",
"1000 977 OFFCURVE",
"979 1020 OFFCURVE",
"937 1053 CURVE SMOOTH",
"895 1087 OFFCURVE",
"832 1112 OFFCURVE",
"748 1127 CURVE",
"817 1300 LINE",
"901 1300 LINE SMOOTH",
"926 1300 OFFCURVE",
"939 1290 OFFCURVE",
"939 1271 CURVE SMOOTH",
"939 1266 LINE SMOOTH",
"936 1243 OFFCURVE",
"930 1221 OFFCURVE",
"921 1200 CURVE",
"930 1197 OFFCURVE",
"938 1196 OFFCURVE",
"946 1196 CURVE SMOOTH",
"986 1196 OFFCURVE",
"1029 1224 OFFCURVE",
"1076 1279 CURVE SMOOTH"
);
}
);
width = 1200;
}
);
note = uni178B;
unicode = 178B;
},
{
glyphname = uni178C;
lastChange = "2021-04-01 12:34:42 +0000";
layers = (
{
layerId = "27714DAC-5FBA-4222-9599-87EDA629626A";
paths = (
{
closed = 1;
nodes = (
"1000 750 LINE",
"800 550 LINE",
"800 202 LINE",
"706 145 LINE SMOOTH",
"693 136 OFFCURVE",
"678 132 OFFCURVE",
"662 132 CURVE SMOOTH",
"599 132 OFFCURVE",
"512 195 OFFCURVE",
"400 320 CURVE",
"400 510 LINE",
"700 710 LINE SMOOTH",
"900 843 OFFCURVE",
"1000 940 OFFCURVE",
"1000 1000 CURVE SMOOTH",
"1000 1500 LINE",
"770 1500 LINE SMOOTH",
"713 1500 OFFCURVE",
"660 1457 OFFCURVE",
"610 1370 CURVE",
"610 1457 OFFCURVE",
"587 1500 OFFCURVE",
"540 1500 CURVE SMOOTH",
"300 1500 LINE",
"250 1390 LINE SMOOTH",
"217 1317 OFFCURVE",
"200 1233 OFFCURVE",
"200 1138 CURVE SMOOTH",
"200 1043 OFFCURVE",
"214 985 OFFCURVE",
"243 964 CURVE SMOOTH",
"272 943 OFFCURVE",
"323 925 OFFCURVE",
"398 909 CURVE",
"457 950 OFFCURVE",
"501 1006 OFFCURVE",
"528 1078 CURVE",
"406 1118 OFFCURVE",
"335 1152 OFFCURVE",
"315 1179 CURVE SMOOTH",
"305 1192 OFFCURVE",
"300 1207 OFFCURVE",
"300 1226 CURVE SMOOTH",
"300 1247 OFFCURVE",
"306 1272 OFFCURVE",
"318 1300 CURVE",
"500 1300 LINE SMOOTH",
"529 1300 OFFCURVE",
"544 1278 OFFCURVE",
"544 1234 CURVE SMOOTH",
"544 1218 OFFCURVE",
"542 1200 OFFCURVE",
"539 1179 CURVE SMOOTH",
"532 1138 LINE",
"611 1246 OFFCURVE",
"681 1300 OFFCURVE",
"740 1300 CURVE SMOOTH",
"800 1300 LINE",
"800 1000 LINE SMOOTH",
"800 940 OFFCURVE",
"733 863 OFFCURVE",
"600 770 CURVE SMOOTH",
"467 677 OFFCURVE",
"333 630 OFFCURVE",
"200 630 CURVE",
"200 300 LINE SMOOTH",
"200 233 OFFCURVE",
"258 167 OFFCURVE",
"375 100 CURVE SMOOTH",
"492 33 OFFCURVE",
"567 0 OFFCURVE",
"600 0 CURVE SMOOTH",
"633 0 OFFCURVE",
"686 21 OFFCURVE",
"759 63 CURVE SMOOTH",
"801 88 LINE",
"801 -100 LINE",
"1000 100 LINE"
);
}
);
width = 1200;
}
);
note = uni178C;
unicode = 178C;
},
{
glyphname = uni178D;
lastChange = "2021-04-01 12:34:42 +0000";
layers = (
{
layerId = "27714DAC-5FBA-4222-9599-87EDA629626A";
paths = (
{
closed = 1;
nodes = (
"1400 233 OFFCURVE",
"1382 200 OFFCURVE",
"1345 200 CURVE SMOOTH",
"1298 200 OFFCURVE",
"1275 250 OFFCURVE",
"1275 350 CURVE SMOOTH",
"1275 433 OFFCURVE",
"1252 496 OFFCURVE",
"1206 538 CURVE SMOOTH",
"1161 579 OFFCURVE",
"1092 600 OFFCURVE",
"1000 600 CURVE",
"1000 1500 LINE",
"730 1500 LINE SMOOTH",
"673 1500 OFFCURVE",
"620 1457 OFFCURVE",
"570 1370 CURVE",
"570 1457 OFFCURVE",
"547 1500 OFFCURVE",
"500 1500 CURVE SMOOTH",
"200 1500 LINE",
"55 1126 LINE SMOOTH",
"38 1086 OFFCURVE",
"30 1053 OFFCURVE",
"30 1026 CURVE SMOOTH",
"30 999 OFFCURVE",
"46 984 OFFCURVE",
"78 980 CURVE SMOOTH",
"159 967 OFFCURVE",
"200 940 OFFCURVE",
"200 900 CURVE SMOOTH",
"200 40 LINE SMOOTH",
"200 13 OFFCURVE",
"208 0 OFFCURVE",
"225 0 CURVE SMOOTH",
"242 0 OFFCURVE",
"264 17 OFFCURVE",
"293 50 CURVE SMOOTH",
"463 250 LINE SMOOTH",
"548 350 OFFCURVE",
"590 440 OFFCURVE",
"590 520 CURVE SMOOTH",
"590 563 OFFCURVE",
"578 596 OFFCURVE",
"553 618 CURVE SMOOTH",
"528 639 OFFCURVE",
"490 650 OFFCURVE",
"440 650 CURVE SMOOTH",
"400 650 LINE",
"400 964 LINE SMOOTH",
"400 1017 OFFCURVE",
"379 1060 OFFCURVE",
"337 1094 CURVE SMOOTH",
"295 1127 OFFCURVE",
"239 1152 OFFCURVE",
"168 1167 CURVE",
"217 1300 LINE",
"460 1300 LINE SMOOTH",
"489 1300 OFFCURVE",
"504 1278 OFFCURVE",
"504 1234 CURVE SMOOTH",
"504 1218 OFFCURVE",
"502 1200 OFFCURVE",
"499 1179 CURVE SMOOTH",
"492 1138 LINE",
"571 1246 OFFCURVE",
"641 1300 OFFCURVE",
"700 1300 CURVE SMOOTH",
"800 1300 LINE",
"800 580 LINE",
"660 483 LINE SMOOTH",
"627 461 OFFCURVE",
"610 433 OFFCURVE",
"610 400 CURVE SMOOTH",
"610 333 OFFCURVE",
"642 270 OFFCURVE",
"705 209 CURVE SMOOTH",
"768 148 OFFCURVE",
"800 90 OFFCURVE",
"800 35 CURVE SMOOTH",
"800 12 OFFCURVE",
"808 0 OFFCURVE",
"825 0 CURVE SMOOTH",
"842 0 OFFCURVE",
"863 13 OFFCURVE",
"888 38 CURVE SMOOTH",
"1000 150 LINE",
"1000 500 LINE",
"1043 500 OFFCURVE",
"1076 488 OFFCURVE",
"1098 463 CURVE SMOOTH",
"1119 438 OFFCURVE",
"1130 400 OFFCURVE",
"1130 350 CURVE SMOOTH",
"1130 233 OFFCURVE",
"1148 146 OFFCURVE",
"1184 88 CURVE SMOOTH",
"1220 29 OFFCURVE",
"1274 0 OFFCURVE",
"1345 0 CURVE SMOOTH",
"1430 0 OFFCURVE",
"1494 25 OFFCURVE",
"1536 75 CURVE SMOOTH",
"1579 125 OFFCURVE",
"1600 200 OFFCURVE",
"1600 300 CURVE SMOOTH",
"1600 924 LINE SMOOTH",
"1600 977 OFFCURVE",
"1579 1020 OFFCURVE",
"1537 1053 CURVE SMOOTH",
"1495 1087 OFFCURVE",
"1432 1112 OFFCURVE",
"1348 1127 CURVE",
"1417 1300 LINE",
"1550 1300 LINE SMOOTH",
"1583 1300 OFFCURVE",
"1600 1289 OFFCURVE",
"1600 1266 CURVE SMOOTH",
"1600 1243 OFFCURVE",
"1595 1211 OFFCURVE",
"1584 1170 CURVE",
"1626 1195 OFFCURVE",
"1656 1236 OFFCURVE",
"1674 1293 CURVE SMOOTH",
"1691 1350 OFFCURVE",
"1700 1419 OFFCURVE",
"1700 1500 CURVE",
"1400 1500 LINE",
"1235 1086 LINE SMOOTH",
"1218 1046 OFFCURVE",
"1210 1013 OFFCURVE",
"1210 986 CURVE SMOOTH",
"1210 959 OFFCURVE",
"1226 944 OFFCURVE",
"1258 940 CURVE SMOOTH",
"1353 927 OFFCURVE",
"1400 900 OFFCURVE",
"1400 860 CURVE SMOOTH",
"1400 300 LINE SMOOTH"
);
},
{
closed = 1;
nodes = (
"465 500 OFFCURVE",
"477 490 OFFCURVE",
"477 469 CURVE SMOOTH",
"477 435 OFFCURVE",
"451 388 OFFCURVE",
"400 329 CURVE",
"400 500 LINE",
"440 500 LINE SMOOTH"
);
},
{
closed = 1;
nodes = (
"803 484 LINE",
"803 379 LINE",
"750 441 LINE"
);
}
);
width = 1800;
}
);
note = uni178D;
unicode = 178D;
},
{
glyphname = uni178E;
lastChange = "2021-04-01 12:34:42 +0000";
layers = (
{
layerId = "27714DAC-5FBA-4222-9599-87EDA629626A";
paths = (
{
closed = 1;
nodes = (
"800 13 OFFCURVE",
"808 0 OFFCURVE",
"825 0 CURVE SMOOTH",
"842 0 OFFCURVE",
"862 14 OFFCURVE",
"885 41 CURVE SMOOTH",
"1126 327 LINE",
"1332 82 LINE SMOOTH",
"1377 27 OFFCURVE",
"1408 0 OFFCURVE",
"1425 0 CURVE SMOOTH",
"1442 0 OFFCURVE",
"1475 25 OFFCURVE",
"1525 75 CURVE SMOOTH",
"1600 150 LINE",
"1600 964 LINE SMOOTH",
"1600 1017 OFFCURVE",
"1579 1060 OFFCURVE",
"1537 1094 CURVE SMOOTH",
"1495 1127 OFFCURVE",
"1439 1152 OFFCURVE",
"1368 1167 CURVE",
"1417 1300 LINE",
"2000 1300 LINE",
"2000 -50 LINE",
"2200 150 LINE",
"2200 1500 LINE",
"1400 1500 LINE",
"1255 1126 LINE SMOOTH",
"1238 1086 OFFCURVE",
"1230 1053 OFFCURVE",
"1230 1026 CURVE SMOOTH",
"1230 999 OFFCURVE",
"1246 984 OFFCURVE",
"1278 980 CURVE SMOOTH",
"1359 967 OFFCURVE",
"1400 940 OFFCURVE",
"1400 900 CURVE SMOOTH",
"1400 309 LINE",
"1200 548 LINE",
"1000 309 LINE",
"1000 1500 LINE",
"200 1500 LINE",
"55 1126 LINE SMOOTH",
"38 1086 OFFCURVE",
"30 1053 OFFCURVE",
"30 1026 CURVE SMOOTH",
"30 999 OFFCURVE",
"46 984 OFFCURVE",
"78 980 CURVE SMOOTH",
"159 967 OFFCURVE",
"200 940 OFFCURVE",
"200 900 CURVE SMOOTH",
"200 40 LINE SMOOTH",
"200 13 OFFCURVE",
"208 0 OFFCURVE",
"225 0 CURVE SMOOTH",
"242 0 OFFCURVE",
"265 15 OFFCURVE",
"294 44 CURVE SMOOTH",
"469 219 LINE SMOOTH",
"556 306 OFFCURVE",
"600 400 OFFCURVE",
"600 500 CURVE SMOOTH",
"600 600 OFFCURVE",
"550 650 OFFCURVE",
"450 650 CURVE SMOOTH",
"400 650 LINE",
"400 964 LINE SMOOTH",
"400 1017 OFFCURVE",
"379 1060 OFFCURVE",
"337 1094 CURVE SMOOTH",
"295 1127 OFFCURVE",
"239 1152 OFFCURVE",
"168 1167 CURVE",
"217 1300 LINE",
"800 1300 LINE",
"800 40 LINE SMOOTH"
);
},
{
closed = 1;
nodes = (
"477 500 OFFCURVE",
"490 486 OFFCURVE",
"490 459 CURVE SMOOTH",
"490 418 OFFCURVE",
"460 368 OFFCURVE",
"400 309 CURVE",
"400 500 LINE",
"450 500 LINE SMOOTH"
);
}
);
width = 2400;
}
);
note = uni178E;
unicode = 178E;
},
{
glyphname = uni178F;
lastChange = "2021-04-01 12:34:42 +0000";
layers = (
{
layerId = "27714DAC-5FBA-4222-9599-87EDA629626A";
paths = (
{
closed = 1;
nodes = (
"335 1010 OFFCURVE",
"371 1034 OFFCURVE",
"402 1071 CURVE SMOOTH",
"416 1088 OFFCURVE",
"423 1105 OFFCURVE",
"423 1121 CURVE SMOOTH",
"423 1140 OFFCURVE",
"413 1158 OFFCURVE",
"394 1175 CURVE SMOOTH",
"358 1207 OFFCURVE",
"318 1232 OFFCURVE",
"274 1250 CURVE",
"298 1300 LINE",
"560 1300 LINE SMOOTH",
"587 1300 OFFCURVE",
"600 1282 OFFCURVE",
"600 1247 CURVE SMOOTH",
"600 1229 OFFCURVE",
"597 1207 OFFCURVE",
"590 1180 CURVE",
"637 1260 OFFCURVE",
"681 1300 OFFCURVE",
"720 1300 CURVE SMOOTH",
"902 1300 LINE SMOOTH",
"927 1300 OFFCURVE",
"940 1290 OFFCURVE",
"940 1271 CURVE SMOOTH",
"940 1266 LINE SMOOTH",
"937 1243 OFFCURVE",
"928 1204 OFFCURVE",
"914 1151 CURVE",
"969 1188 OFFCURVE",
"1006 1236 OFFCURVE",
"1024 1293 CURVE SMOOTH",
"1041 1350 OFFCURVE",
"1050 1419 OFFCURVE",
"1050 1500 CURVE",
"760 1500 LINE SMOOTH",
"730 1500 OFFCURVE",
"693 1467 OFFCURVE",
"650 1400 CURVE",
"650 1467 OFFCURVE",
"637 1500 OFFCURVE",
"610 1500 CURVE SMOOTH",
"300 1500 LINE",
"100 1100 LINE",
"114 1100 LINE SMOOTH",
"153 1100 OFFCURVE",
"186 1093 OFFCURVE",
"215 1078 CURVE SMOOTH",
"248 1061 OFFCURVE",
"274 1035 OFFCURVE",
"294 1000 CURVE"
);
},
{
closed = 1;
nodes = (
"242 0 OFFCURVE",
"265 15 OFFCURVE",
"294 44 CURVE SMOOTH",
"469 219 LINE SMOOTH",
"556 306 OFFCURVE",
"600 384 OFFCURVE",
"600 451 CURVE SMOOTH",
"600 484 OFFCURVE",
"588 509 OFFCURVE",
"563 525 CURVE SMOOTH",
"538 542 OFFCURVE",
"500 550 OFFCURVE",
"450 550 CURVE SMOOTH",
"400 550 LINE",
"400 800 LINE SMOOTH",
"400 876 OFFCURVE",
"408 919 OFFCURVE",
"425 928 CURVE SMOOTH",
"441 938 OFFCURVE",
"461 943 OFFCURVE",
"486 943 CURVE SMOOTH",
"511 943 OFFCURVE",
"569 917 OFFCURVE",
"662 864 CURVE SMOOTH",
"754 811 OFFCURVE",
"800 773 OFFCURVE",
"800 750 CURVE SMOOTH",
"800 -50 LINE",
"1000 150 LINE",
"1000 800 LINE SMOOTH",
"1000 867 OFFCURVE",
"920 946 OFFCURVE",
"759 1037 CURVE SMOOTH",
"686 1079 OFFCURVE",
"633 1100 OFFCURVE",
"600 1100 CURVE SMOOTH",
"567 1100 OFFCURVE",
"492 1067 OFFCURVE",
"375 1000 CURVE SMOOTH",
"258 933 OFFCURVE",
"200 867 OFFCURVE",
"200 800 CURVE SMOOTH",
"200 40 LINE SMOOTH",
"200 13 OFFCURVE",
"208 0 OFFCURVE",
"225 0 CURVE SMOOTH"
);
},
{
closed = 1;
nodes = (
"477 450 OFFCURVE",
"490 441 OFFCURVE",
"490 424 CURVE SMOOTH",
"490 407 OFFCURVE",
"460 368 OFFCURVE",
"400 309 CURVE",
"400 450 LINE",
"450 450 LINE SMOOTH"
);
}
);
width = 1200;
}
);
note = uni178F;
unicode = 178F;
},
{
glyphname = uni1790;
lastChange = "2021-04-01 12:34:42 +0000";
layers = (
{
layerId = "27714DAC-5FBA-4222-9599-87EDA629626A";
paths = (
{
closed = 1;
nodes = (
"999 1330 OFFCURVE",
"1025 1405 OFFCURVE",
"1035 1502 CURVE SMOOTH",
"1038 1524 OFFCURVE",
"1040 1548 OFFCURVE",
"1040 1573 CURVE SMOOTH",
"1040 1635 OFFCURVE",
"1018 1691 OFFCURVE",
"973 1740 CURVE SMOOTH",
"928 1789 OFFCURVE",
"906 1829 OFFCURVE",
"905 1858 CURVE SMOOTH",
"905 1901 OFFCURVE",
"931 1948 OFFCURVE",
"984 2000 CURVE",
"896 1979 OFFCURVE",
"833 1950 OFFCURVE",
"796 1914 CURVE SMOOTH",
"759 1878 OFFCURVE",
"740 1840 OFFCURVE",
"740 1801 CURVE SMOOTH",
"740 1746 OFFCURVE",
"777 1677 OFFCURVE",
"852 1596 CURVE SMOOTH",
"898 1546 OFFCURVE",
"929 1508 OFFCURVE",
"945 1482 CURVE SMOOTH",
"951 1473 OFFCURVE",
"954 1462 OFFCURVE",
"954 1451 CURVE SMOOTH",
"954 1444 OFFCURVE",
"953 1437 OFFCURVE",
"951 1430 CURVE SMOOTH",
"944 1410 OFFCURVE",
"931 1393 OFFCURVE",
"910 1378 CURVE",
"910 1419 OFFCURVE",
"903 1449 OFFCURVE",
"888 1470 CURVE SMOOTH",
"873 1490 OFFCURVE",
"850 1500 OFFCURVE",
"820 1500 CURVE SMOOTH",
"200 1500 LINE",
"55 1126 LINE SMOOTH",
"38 1086 OFFCURVE",
"30 1053 OFFCURVE",
"30 1026 CURVE SMOOTH",
"30 999 OFFCURVE",
"46 984 OFFCURVE",
"78 980 CURVE SMOOTH",
"159 967 OFFCURVE",
"200 940 OFFCURVE",
"200 900 CURVE SMOOTH",
"200 430 LINE SMOOTH",
"200 390 OFFCURVE",
"191 364 OFFCURVE",
"148 345 CURVE",
"169 282 OFFCURVE",
"201 230 OFFCURVE",
"242 191 CURVE SMOOTH",
"283 152 OFFCURVE",
"345 109 OFFCURVE",
"427 63 CURVE SMOOTH",
"502 21 OFFCURVE",
"556 0 OFFCURVE",
"590 0 CURVE SMOOTH",
"624 0 OFFCURVE",
"701 33 OFFCURVE",
"821 100 CURVE SMOOTH",
"940 167 OFFCURVE",
"1000 233 OFFCURVE",
"1000 300 CURVE SMOOTH",
"1000 1000 LINE SMOOTH",
"1000 1067 OFFCURVE",
"965 1100 OFFCURVE",
"895 1100 CURVE SMOOTH",
"864 1100 OFFCURVE",
"810 1061 OFFCURVE",
"731 982 CURVE SMOOTH",
"644 895 OFFCURVE",
"600 817 OFFCURVE",
"600 750 CURVE SMOOTH",
"600 655 OFFCURVE",
"643 600 OFFCURVE",
"770 600 CURVE SMOOTH",
"800 600 LINE",
"800 300 LINE SMOOTH",
"800 224 OFFCURVE",
"791 181 OFFCURVE",
"774 172 CURVE SMOOTH",
"758 162 OFFCURVE",
"737 157 OFFCURVE",
"712 157 CURVE SMOOTH",
"687 157 OFFCURVE",
"624 184 OFFCURVE",
"524 237 CURVE SMOOTH",
"428 290 OFFCURVE",
"380 327 OFFCURVE",
"380 349 CURVE",
"393 363 OFFCURVE",
"400 383 OFFCURVE",
"400 410 CURVE SMOOTH",
"400 964 LINE SMOOTH",
"400 1017 OFFCURVE",
"379 1060 OFFCURVE",
"337 1094 CURVE SMOOTH",
"295 1127 OFFCURVE",
"239 1152 OFFCURVE",
"168 1167 CURVE",
"217 1300 LINE",
"781 1300 LINE SMOOTH",
"806 1300 OFFCURVE",
"819 1290 OFFCURVE",
"819 1271 CURVE SMOOTH",
"819 1266 LINE SMOOTH",
"816 1243 OFFCURVE",
"810 1221 OFFCURVE",
"801 1200 CURVE",
"810 1197 OFFCURVE",
"818 1196 OFFCURVE",
"826 1196 CURVE SMOOTH",
"866 1196 OFFCURVE",
"909 1224 OFFCURVE",
"956 1279 CURVE SMOOTH"
);
},
{
closed = 1;
nodes = (
"743 751 OFFCURVE",
"730 763 OFFCURVE",
"730 787 CURVE SMOOTH",
"730 811 OFFCURVE",
"753 846 OFFCURVE",
"800 892 CURVE",
"800 751 LINE",
"770 751 LINE SMOOTH"
);
}
);
width = 1200;
}
);
note = uni1790;
unicode = 1790;
},
{
glyphname = uni1791;
lastChange = "2021-04-01 12:34:42 +0000";
layers = (
{
layerId = "27714DAC-5FBA-4222-9599-87EDA629626A";
paths = (
{
closed = 1;
nodes = (
"276 838 OFFCURVE",
"394 773 OFFCURVE",
"531 734 CURVE SMOOTH",
"738 677 LINE",
"806 657 LINE SMOOTH",
"817 654 OFFCURVE",
"827 653 OFFCURVE",
"838 653 CURVE SMOOTH",
"875 653 OFFCURVE",
"913 669 OFFCURVE",
"953 702 CURVE SMOOTH",
"1004 744 OFFCURVE",
"1030 816 OFFCURVE",
"1030 918 CURVE",
"996 869 OFFCURVE",
"955 845 OFFCURVE",
"906 845 CURVE SMOOTH",
"893 845 OFFCURVE",
"878 847 OFFCURVE",
"863 851 CURVE SMOOTH",
"589 926 LINE SMOOTH",
"479 955 OFFCURVE",
"395 998 OFFCURVE",
"338 1054 CURVE SMOOTH",
"251 1137 LINE",
"317 1300 LINE",
"870 1300 LINE SMOOTH",
"895 1300 OFFCURVE",
"908 1292 OFFCURVE",
"908 1275 CURVE SMOOTH",
"908 1268 OFFCURVE",
"906 1259 OFFCURVE",
"902 1250 CURVE SMOOTH",
"887 1217 OFFCURVE",
"852 1200 OFFCURVE",
"796 1200 CURVE SMOOTH",
"740 1200 OFFCURVE",
"681 1218 OFFCURVE",
"619 1255 CURVE",
"447 1126 LINE",
"586 1042 OFFCURVE",
"695 1000 OFFCURVE",
"776 1000 CURVE SMOOTH",
"857 1000 OFFCURVE",
"914 1047 OFFCURVE",
"947 1142 CURVE SMOOTH",
"997 1284 LINE SMOOTH",
"1019 1347 OFFCURVE",
"1030 1419 OFFCURVE",
"1030 1500 CURVE",
"300 1500 LINE",
"173 1200 LINE SMOOTH",
"144 1133 OFFCURVE",
"130 1059 OFFCURVE",
"130 976 CURVE",
"179 930 LINE SMOOTH"
);
},
{
closed = 1;
nodes = (
"358 730 OFFCURVE",
"338 718 OFFCURVE",
"313 693 CURVE SMOOTH",
"200 580 LINE",
"200 300 LINE SMOOTH",
"200 233 OFFCURVE",
"280 154 OFFCURVE",
"441 63 CURVE SMOOTH",
"514 21 OFFCURVE",
"567 0 OFFCURVE",
"600 0 CURVE SMOOTH",
"633 0 OFFCURVE",
"708 33 OFFCURVE",
"825 100 CURVE SMOOTH",
"942 167 OFFCURVE",
"1000 233 OFFCURVE",
"1000 300 CURVE SMOOTH",
"1000 711 LINE",
"983 679 OFFCURVE",
"958 654 OFFCURVE",
"923 636 CURVE SMOOTH",
"894 621 OFFCURVE",
"862 613 OFFCURVE",
"825 613 CURVE SMOOTH",
"817 613 OFFCURVE",
"809 613 OFFCURVE",
"800 614 CURVE",
"800 300 LINE SMOOTH",
"800 224 OFFCURVE",
"792 181 OFFCURVE",
"775 172 CURVE SMOOTH",
"759 162 OFFCURVE",
"739 157 OFFCURVE",
"714 157 CURVE SMOOTH",
"689 157 OFFCURVE",
"631 183 OFFCURVE",
"538 236 CURVE SMOOTH",
"446 289 OFFCURVE",
"400 327 OFFCURVE",
"400 350 CURVE SMOOTH",
"400 680 LINE SMOOTH",
"400 713 OFFCURVE",
"392 730 OFFCURVE",
"375 730 CURVE SMOOTH"
);
}
);
width = 1200;
}
);
note = uni1791;
unicode = 1791;
},
{
glyphname = uni1792;
lastChange = "2021-04-01 12:34:42 +0000";
layers = (
{
layerId = "27714DAC-5FBA-4222-9599-87EDA629626A";
paths = (
{
closed = 1;
nodes = (
"400 309 LINE",
"400 964 LINE SMOOTH",
"400 1017 OFFCURVE",
"379 1060 OFFCURVE",
"337 1094 CURVE SMOOTH",
"295 1127 OFFCURVE",
"239 1152 OFFCURVE",
"168 1167 CURVE",
"217 1300 LINE",
"519 1300 LINE SMOOTH",
"546 1300 OFFCURVE",
"559 1282 OFFCURVE",
"559 1247 CURVE SMOOTH",
"559 1229 OFFCURVE",
"556 1207 OFFCURVE",
"549 1180 CURVE",
"596 1260 OFFCURVE",
"640 1300 OFFCURVE",
"679 1300 CURVE SMOOTH",
"891 1300 LINE SMOOTH",
"916 1300 OFFCURVE",
"929 1290 OFFCURVE",
"929 1271 CURVE SMOOTH",
"929 1266 LINE SMOOTH",
"926 1243 OFFCURVE",
"917 1204 OFFCURVE",
"903 1151 CURVE",
"958 1188 OFFCURVE",
"995 1236 OFFCURVE",
"1013 1293 CURVE SMOOTH",
"1030 1350 OFFCURVE",
"1039 1419 OFFCURVE",
"1039 1500 CURVE",
"719 1500 LINE SMOOTH",
"689 1500 OFFCURVE",
"652 1467 OFFCURVE",
"609 1400 CURVE",
"609 1467 OFFCURVE",
"596 1500 OFFCURVE",
"569 1500 CURVE SMOOTH",
"200 1500 LINE",
"55 1126 LINE SMOOTH",
"38 1086 OFFCURVE",
"30 1053 OFFCURVE",
"30 1026 CURVE SMOOTH",
"30 999 OFFCURVE",
"46 984 OFFCURVE",
"78 980 CURVE SMOOTH",
"159 967 OFFCURVE",
"200 940 OFFCURVE",
"200 900 CURVE SMOOTH",
"200 40 LINE SMOOTH",
"200 13 OFFCURVE",
"208 0 OFFCURVE",
"225 0 CURVE SMOOTH",
"242 0 OFFCURVE",
"262 14 OFFCURVE",
"285 41 CURVE SMOOTH",
"526 327 LINE",
"732 82 LINE SMOOTH",
"777 27 OFFCURVE",
"808 0 OFFCURVE",
"825 0 CURVE SMOOTH",
"842 0 OFFCURVE",
"875 25 OFFCURVE",
"925 75 CURVE SMOOTH",
"1000 150 LINE",
"1000 1000 LINE SMOOTH",
"1000 1067 OFFCURVE",
"965 1100 OFFCURVE",
"895 1100 CURVE SMOOTH",
"864 1100 OFFCURVE",
"810 1061 OFFCURVE",
"731 982 CURVE SMOOTH",
"644 895 OFFCURVE",
"600 817 OFFCURVE",
"600 750 CURVE SMOOTH",
"600 655 OFFCURVE",
"643 600 OFFCURVE",
"770 600 CURVE SMOOTH",
"800 600 LINE",
"800 309 LINE",
"600 548 LINE"
);
},
{
closed = 1;
nodes = (
"743 751 OFFCURVE",
"730 763 OFFCURVE",
"730 787 CURVE SMOOTH",
"730 811 OFFCURVE",
"753 846 OFFCURVE",
"800 892 CURVE",
"800 751 LINE",
"770 751 LINE SMOOTH"
);
}
);
width = 1200;
}
);
note = uni1792;
unicode = 1792;
},
{
glyphname = uni1793;
lastChange = "2021-04-01 12:34:42 +0000";
layers = (
{
layerId = "27714DAC-5FBA-4222-9599-87EDA629626A";
paths = (
{
closed = 1;
nodes = (
"276 838 OFFCURVE",
"394 773 OFFCURVE",
"531 734 CURVE SMOOTH",
"738 677 LINE",
"806 657 LINE SMOOTH",
"817 654 OFFCURVE",
"827 653 OFFCURVE",
"838 653 CURVE SMOOTH",
"875 653 OFFCURVE",
"913 669 OFFCURVE",
"953 702 CURVE SMOOTH",
"1004 744 OFFCURVE",
"1030 816 OFFCURVE",
"1030 918 CURVE",
"996 869 OFFCURVE",
"955 845 OFFCURVE",
"906 845 CURVE SMOOTH",
"893 845 OFFCURVE",
"878 847 OFFCURVE",
"863 851 CURVE SMOOTH",
"589 926 LINE SMOOTH",
"479 955 OFFCURVE",
"395 998 OFFCURVE",
"338 1054 CURVE SMOOTH",
"251 1137 LINE",
"317 1300 LINE",
"870 1300 LINE SMOOTH",
"895 1300 OFFCURVE",
"908 1292 OFFCURVE",
"908 1275 CURVE SMOOTH",
"908 1268 OFFCURVE",
"906 1259 OFFCURVE",
"902 1250 CURVE SMOOTH",
"887 1217 OFFCURVE",
"852 1200 OFFCURVE",
"796 1200 CURVE SMOOTH",
"740 1200 OFFCURVE",
"681 1218 OFFCURVE",
"619 1255 CURVE",
"447 1126 LINE",
"586 1042 OFFCURVE",
"695 1000 OFFCURVE",
"776 1000 CURVE SMOOTH",
"857 1000 OFFCURVE",
"914 1047 OFFCURVE",
"947 1142 CURVE SMOOTH",
"997 1284 LINE SMOOTH",
"1019 1347 OFFCURVE",
"1030 1419 OFFCURVE",
"1030 1500 CURVE",
"300 1500 LINE",
"173 1200 LINE SMOOTH",
"144 1133 OFFCURVE",
"130 1059 OFFCURVE",
"130 976 CURVE",
"179 930 LINE SMOOTH"
);
},
{
closed = 1;
nodes = (
"200 13 OFFCURVE",
"208 0 OFFCURVE",
"225 0 CURVE SMOOTH",
"242 0 OFFCURVE",
"262 14 OFFCURVE",
"285 41 CURVE SMOOTH",
"526 327 LINE",
"732 82 LINE SMOOTH",
"777 27 OFFCURVE",
"808 0 OFFCURVE",
"825 0 CURVE SMOOTH",
"842 0 OFFCURVE",
"875 25 OFFCURVE",
"925 75 CURVE SMOOTH",
"1000 150 LINE",
"1000 711 LINE",
"983 679 OFFCURVE",
"958 654 OFFCURVE",
"923 636 CURVE SMOOTH",
"894 621 OFFCURVE",
"862 613 OFFCURVE",
"825 613 CURVE SMOOTH",
"817 613 OFFCURVE",
"809 613 OFFCURVE",
"800 614 CURVE",
"800 309 LINE",
"600 548 LINE",
"400 309 LINE",
"400 680 LINE SMOOTH",
"400 713 OFFCURVE",
"392 730 OFFCURVE",
"375 730 CURVE SMOOTH",
"358 730 OFFCURVE",
"338 718 OFFCURVE",
"313 693 CURVE SMOOTH",
"200 580 LINE",
"200 40 LINE SMOOTH"
);
}
);
width = 1200;
}
);
note = uni1793;
unicode = 1793;
},
{
glyphname = uni1794;
lastChange = "2021-04-01 12:34:42 +0000";
layers = (
{
layerId = "27714DAC-5FBA-4222-9599-87EDA629626A";
paths = (
{
closed = 1;
nodes = (
"1000 977 OFFCURVE",
"979 1020 OFFCURVE",
"937 1053 CURVE SMOOTH",
"895 1087 OFFCURVE",
"832 1112 OFFCURVE",
"748 1127 CURVE",
"817 1300 LINE",
"950 1300 LINE SMOOTH",
"983 1300 OFFCURVE",
"1000 1289 OFFCURVE",
"1000 1266 CURVE SMOOTH",
"1000 1243 OFFCURVE",
"995 1211 OFFCURVE",
"984 1170 CURVE",
"1026 1195 OFFCURVE",
"1056 1236 OFFCURVE",
"1074 1293 CURVE SMOOTH",
"1091 1350 OFFCURVE",
"1100 1419 OFFCURVE",
"1100 1500 CURVE",
"800 1500 LINE",
"635 1086 LINE SMOOTH",
"618 1046 OFFCURVE",
"610 1013 OFFCURVE",
"610 986 CURVE SMOOTH",
"610 959 OFFCURVE",
"626 944 OFFCURVE",
"658 940 CURVE SMOOTH",
"753 927 OFFCURVE",
"800 900 OFFCURVE",
"800 860 CURVE SMOOTH",
"800 300 LINE SMOOTH",
"800 224 OFFCURVE",
"791 181 OFFCURVE",
"774 172 CURVE SMOOTH",
"758 162 OFFCURVE",
"737 157 OFFCURVE",
"712 157 CURVE SMOOTH",
"687 157 OFFCURVE",
"624 184 OFFCURVE",
"524 237 CURVE SMOOTH",
"428 290 OFFCURVE",
"380 327 OFFCURVE",
"380 349 CURVE",
"393 363 OFFCURVE",
"400 383 OFFCURVE",
"400 410 CURVE SMOOTH",
"400 924 LINE SMOOTH",
"400 977 OFFCURVE",
"379 1020 OFFCURVE",
"337 1053 CURVE SMOOTH",
"295 1087 OFFCURVE",
"232 1112 OFFCURVE",
"148 1127 CURVE",
"217 1300 LINE",
"350 1300 LINE SMOOTH",
"383 1300 OFFCURVE",
"400 1289 OFFCURVE",
"400 1266 CURVE SMOOTH",
"400 1243 OFFCURVE",
"395 1211 OFFCURVE",
"384 1170 CURVE",
"426 1195 OFFCURVE",
"456 1236 OFFCURVE",
"474 1293 CURVE SMOOTH",
"491 1350 OFFCURVE",
"500 1419 OFFCURVE",
"500 1500 CURVE",
"200 1500 LINE",
"35 1086 LINE SMOOTH",
"18 1046 OFFCURVE",
"10 1013 OFFCURVE",
"10 986 CURVE SMOOTH",
"10 959 OFFCURVE",
"26 944 OFFCURVE",
"58 940 CURVE SMOOTH",
"153 927 OFFCURVE",
"200 900 OFFCURVE",
"200 860 CURVE SMOOTH",
"200 430 LINE SMOOTH",
"200 390 OFFCURVE",
"191 364 OFFCURVE",
"148 345 CURVE",
"169 282 OFFCURVE",
"201 230 OFFCURVE",
"242 191 CURVE SMOOTH",
"283 152 OFFCURVE",
"345 109 OFFCURVE",
"427 63 CURVE SMOOTH",
"502 21 OFFCURVE",
"556 0 OFFCURVE",
"590 0 CURVE SMOOTH",
"624 0 OFFCURVE",
"701 33 OFFCURVE",
"821 100 CURVE SMOOTH",
"940 167 OFFCURVE",
"1000 233 OFFCURVE",
"1000 300 CURVE SMOOTH",
"1000 924 LINE SMOOTH"
);
}
);
width = 1200;
}
);
note = uni1794;
unicode = 1794;
},
{
glyphname = uni1795;
lastChange = "2021-04-01 12:34:42 +0000";
layers = (
{
layerId = "27714DAC-5FBA-4222-9599-87EDA629626A";
paths = (
{
closed = 1;
nodes = (
"999 1330 OFFCURVE",
"1025 1405 OFFCURVE",
"1035 1502 CURVE SMOOTH",
"1038 1524 OFFCURVE",
"1040 1548 OFFCURVE",
"1040 1573 CURVE SMOOTH",
"1040 1635 OFFCURVE",
"1018 1691 OFFCURVE",
"973 1740 CURVE SMOOTH",
"928 1789 OFFCURVE",
"906 1829 OFFCURVE",
"905 1858 CURVE SMOOTH",
"905 1901 OFFCURVE",
"931 1948 OFFCURVE",
"984 2000 CURVE",
"896 1979 OFFCURVE",
"833 1950 OFFCURVE",
"796 1914 CURVE SMOOTH",
"759 1878 OFFCURVE",
"740 1840 OFFCURVE",
"740 1801 CURVE SMOOTH",
"740 1746 OFFCURVE",
"777 1677 OFFCURVE",
"852 1596 CURVE SMOOTH",
"898 1546 OFFCURVE",
"929 1508 OFFCURVE",
"945 1482 CURVE SMOOTH",
"951 1473 OFFCURVE",
"954 1462 OFFCURVE",
"954 1451 CURVE SMOOTH",
"954 1444 OFFCURVE",
"953 1437 OFFCURVE",
"951 1430 CURVE SMOOTH",
"944 1410 OFFCURVE",
"931 1393 OFFCURVE",
"910 1378 CURVE",
"910 1419 OFFCURVE",
"903 1449 OFFCURVE",
"888 1470 CURVE SMOOTH",
"873 1490 OFFCURVE",
"850 1500 OFFCURVE",
"820 1500 CURVE SMOOTH",
"200 1500 LINE",
"55 1126 LINE SMOOTH",
"38 1086 OFFCURVE",
"30 1053 OFFCURVE",
"30 1026 CURVE SMOOTH",
"30 999 OFFCURVE",
"46 984 OFFCURVE",
"78 980 CURVE SMOOTH",
"159 967 OFFCURVE",
"200 940 OFFCURVE",
"200 900 CURVE SMOOTH",
"200 40 LINE SMOOTH",
"200 13 OFFCURVE",
"208 0 OFFCURVE",
"225 0 CURVE SMOOTH",
"242 0 OFFCURVE",
"262 14 OFFCURVE",
"285 41 CURVE SMOOTH",
"526 327 LINE",
"732 82 LINE SMOOTH",
"777 27 OFFCURVE",
"808 0 OFFCURVE",
"825 0 CURVE SMOOTH",
"842 0 OFFCURVE",
"875 25 OFFCURVE",
"925 75 CURVE SMOOTH",
"1000 150 LINE",
"1000 1000 LINE SMOOTH",
"1000 1067 OFFCURVE",
"965 1100 OFFCURVE",
"895 1100 CURVE SMOOTH",
"864 1100 OFFCURVE",
"810 1061 OFFCURVE",
"731 982 CURVE SMOOTH",
"644 895 OFFCURVE",
"600 817 OFFCURVE",
"600 750 CURVE SMOOTH",
"600 655 OFFCURVE",
"643 600 OFFCURVE",
"770 600 CURVE SMOOTH",
"800 600 LINE",
"800 309 LINE",
"600 548 LINE",
"400 309 LINE",
"400 964 LINE SMOOTH",
"400 1017 OFFCURVE",
"379 1060 OFFCURVE",
"337 1094 CURVE SMOOTH",
"295 1127 OFFCURVE",
"239 1152 OFFCURVE",
"168 1167 CURVE",
"217 1300 LINE",
"781 1300 LINE SMOOTH",
"806 1300 OFFCURVE",
"819 1290 OFFCURVE",
"819 1271 CURVE SMOOTH",
"819 1266 LINE SMOOTH",
"816 1243 OFFCURVE",
"810 1221 OFFCURVE",
"801 1200 CURVE",
"810 1197 OFFCURVE",
"818 1196 OFFCURVE",
"826 1196 CURVE SMOOTH",
"866 1196 OFFCURVE",
"909 1224 OFFCURVE",
"956 1279 CURVE SMOOTH"
);
},
{
closed = 1;
nodes = (
"743 751 OFFCURVE",
"730 763 OFFCURVE",
"730 787 CURVE SMOOTH",
"730 811 OFFCURVE",
"753 846 OFFCURVE",
"800 892 CURVE",
"800 751 LINE",
"770 751 LINE SMOOTH"
);
}
);
width = 1200;
}
);
note = uni1795;
unicode = 1795;
},
{
glyphname = uni1796;
lastChange = "2021-04-01 12:34:42 +0000";
layers = (
{
layerId = "27714DAC-5FBA-4222-9599-87EDA629626A";
paths = (
{
closed = 1;
nodes = (
"489 1300 OFFCURVE",
"504 1278 OFFCURVE",
"504 1234 CURVE SMOOTH",
"504 1218 OFFCURVE",
"502 1200 OFFCURVE",
"499 1179 CURVE SMOOTH",
"492 1138 LINE",
"571 1246 OFFCURVE",
"641 1300 OFFCURVE",
"700 1300 CURVE SMOOTH",
"800 1300 LINE",
"800 -50 LINE",
"1000 150 LINE",
"1000 1500 LINE",
"730 1500 LINE SMOOTH",
"673 1500 OFFCURVE",
"620 1457 OFFCURVE",
"570 1370 CURVE",
"570 1457 OFFCURVE",
"547 1500 OFFCURVE",
"500 1500 CURVE SMOOTH",
"200 1500 LINE",
"55 1126 LINE SMOOTH",
"38 1086 OFFCURVE",
"30 1053 OFFCURVE",
"30 1026 CURVE SMOOTH",
"30 999 OFFCURVE",
"46 984 OFFCURVE",
"78 980 CURVE SMOOTH",
"159 967 OFFCURVE",
"200 940 OFFCURVE",
"200 900 CURVE SMOOTH",
"200 40 LINE SMOOTH",
"200 13 OFFCURVE",
"208 0 OFFCURVE",
"225 0 CURVE SMOOTH",
"242 0 OFFCURVE",
"265 15 OFFCURVE",
"294 44 CURVE SMOOTH",
"469 219 LINE SMOOTH",
"556 306 OFFCURVE",
"600 400 OFFCURVE",
"600 500 CURVE SMOOTH",
"600 600 OFFCURVE",
"550 650 OFFCURVE",
"450 650 CURVE SMOOTH",
"400 650 LINE",
"400 964 LINE SMOOTH",
"400 1017 OFFCURVE",
"379 1060 OFFCURVE",
"337 1094 CURVE SMOOTH",
"295 1127 OFFCURVE",
"239 1152 OFFCURVE",
"168 1167 CURVE",
"217 1300 LINE",
"460 1300 LINE SMOOTH"
);
},
{
closed = 1;
nodes = (
"477 500 OFFCURVE",
"490 486 OFFCURVE",
"490 459 CURVE SMOOTH",
"490 418 OFFCURVE",
"460 368 OFFCURVE",
"400 309 CURVE",
"400 500 LINE",
"450 500 LINE SMOOTH"
);
}
);
width = 1200;
}
);
note = uni1796;
unicode = 1796;
},
{
glyphname = uni1797;
lastChange = "2021-04-01 12:34:42 +0000";
layers = (
{
layerId = "27714DAC-5FBA-4222-9599-87EDA629626A";
paths = (
{
closed = 1;
nodes = (
"335 1010 OFFCURVE",
"371 1034 OFFCURVE",
"402 1071 CURVE SMOOTH",
"416 1088 OFFCURVE",
"423 1105 OFFCURVE",
"423 1121 CURVE SMOOTH",
"423 1140 OFFCURVE",
"413 1158 OFFCURVE",
"394 1175 CURVE SMOOTH",
"358 1207 OFFCURVE",
"318 1232 OFFCURVE",
"274 1250 CURVE",
"298 1300 LINE",
"560 1300 LINE SMOOTH",
"587 1300 OFFCURVE",
"600 1282 OFFCURVE",
"600 1247 CURVE SMOOTH",
"600 1229 OFFCURVE",
"597 1207 OFFCURVE",
"590 1180 CURVE",
"637 1260 OFFCURVE",
"681 1300 OFFCURVE",
"720 1300 CURVE SMOOTH",
"902 1300 LINE SMOOTH",
"927 1300 OFFCURVE",
"940 1290 OFFCURVE",
"940 1271 CURVE SMOOTH",
"940 1266 LINE SMOOTH",
"937 1243 OFFCURVE",
"928 1204 OFFCURVE",
"914 1151 CURVE",
"969 1188 OFFCURVE",
"1006 1236 OFFCURVE",
"1024 1293 CURVE SMOOTH",
"1041 1350 OFFCURVE",
"1050 1419 OFFCURVE",
"1050 1500 CURVE",
"760 1500 LINE SMOOTH",
"730 1500 OFFCURVE",
"693 1467 OFFCURVE",
"650 1400 CURVE",
"650 1467 OFFCURVE",
"637 1500 OFFCURVE",
"610 1500 CURVE SMOOTH",
"300 1500 LINE",
"100 1100 LINE",
"114 1100 LINE SMOOTH",
"153 1100 OFFCURVE",
"186 1093 OFFCURVE",
"215 1078 CURVE SMOOTH",
"248 1061 OFFCURVE",
"274 1035 OFFCURVE",
"294 1000 CURVE"
);
},
{
closed = 1;
nodes = (
"501 0 OFFCURVE",
"542 28 OFFCURVE",
"585 85 CURVE SMOOTH",
"628 142 OFFCURVE",
"650 207 OFFCURVE",
"650 280 CURVE SMOOTH",
"650 370 LINE SMOOTH",
"650 449 OFFCURVE",
"634 518 OFFCURVE",
"603 575 CURVE SMOOTH",
"572 632 OFFCURVE",
"525 679 OFFCURVE",
"463 714 CURVE SMOOTH",
"421 738 OFFCURVE",
"400 783 OFFCURVE",
"400 850 CURVE SMOOTH",
"400 893 OFFCURVE",
"408 919 OFFCURVE",
"425 928 CURVE SMOOTH",
"441 938 OFFCURVE",
"461 943 OFFCURVE",
"486 943 CURVE SMOOTH",
"511 943 OFFCURVE",
"569 917 OFFCURVE",
"662 864 CURVE SMOOTH",
"754 811 OFFCURVE",
"800 773 OFFCURVE",
"800 750 CURVE SMOOTH",
"800 -50 LINE",
"1000 150 LINE",
"1000 800 LINE SMOOTH",
"1000 867 OFFCURVE",
"920 946 OFFCURVE",
"759 1037 CURVE SMOOTH",
"686 1079 OFFCURVE",
"633 1100 OFFCURVE",
"600 1100 CURVE SMOOTH",
"567 1100 OFFCURVE",
"492 1067 OFFCURVE",
"375 1000 CURVE SMOOTH",
"258 933 OFFCURVE",
"200 883 OFFCURVE",
"200 850 CURVE SMOOTH",
"200 779 OFFCURVE",
"215 717 OFFCURVE",
"244 664 CURVE SMOOTH",
"273 611 OFFCURVE",
"317 568 OFFCURVE",
"375 534 CURVE SMOOTH",
"434 501 OFFCURVE",
"477 463 OFFCURVE",
"506 420 CURVE SMOOTH",
"535 377 OFFCURVE",
"550 331 OFFCURVE",
"550 280 CURVE SMOOTH",
"550 247 OFFCURVE",
"540 222 OFFCURVE",
"519 206 CURVE SMOOTH",
"512 201 OFFCURVE",
"503 198 OFFCURVE",
"492 198 CURVE SMOOTH",
"469 198 OFFCURVE",
"439 209 OFFCURVE",
"400 231 CURVE SMOOTH",
"333 269 OFFCURVE",
"300 339 OFFCURVE",
"300 440 CURVE",
"233 413 OFFCURVE",
"200 353 OFFCURVE",
"200 258 CURVE SMOOTH",
"200 163 OFFCURVE",
"234 97 OFFCURVE",
"302 58 CURVE SMOOTH",
"369 19 OFFCURVE",
"423 0 OFFCURVE",
"462 0 CURVE SMOOTH"
);
}
);
width = 1200;
}
);
note = uni1797;
unicode = 1797;
},
{
glyphname = uni1798;
lastChange = "2021-04-01 12:34:42 +0000";
layers = (
{
layerId = "27714DAC-5FBA-4222-9599-87EDA629626A";
paths = (
{
closed = 1;
nodes = (
"727 634 OFFCURVE",
"670 644 OFFCURVE",
"627 663 CURVE SMOOTH",
"580 684 OFFCURVE",
"538 730 OFFCURVE",
"502 800 CURVE",
"400 673 LINE",
"400 924 LINE SMOOTH",
"400 977 OFFCURVE",
"379 1020 OFFCURVE",
"337 1053 CURVE SMOOTH",
"295 1087 OFFCURVE",
"232 1112 OFFCURVE",
"148 1127 CURVE",
"217 1300 LINE",
"350 1300 LINE SMOOTH",
"383 1300 OFFCURVE",
"400 1289 OFFCURVE",
"400 1266 CURVE SMOOTH",
"400 1243 OFFCURVE",
"395 1211 OFFCURVE",
"384 1170 CURVE",
"426 1195 OFFCURVE",
"456 1236 OFFCURVE",
"474 1293 CURVE SMOOTH",
"491 1350 OFFCURVE",
"500 1419 OFFCURVE",
"500 1500 CURVE",
"200 1500 LINE",
"35 1086 LINE SMOOTH",
"18 1046 OFFCURVE",
"10 1013 OFFCURVE",
"10 986 CURVE SMOOTH",
"10 959 OFFCURVE",
"26 944 OFFCURVE",
"58 940 CURVE SMOOTH",
"153 927 OFFCURVE",
"200 900 OFFCURVE",
"200 860 CURVE SMOOTH",
"200 430 LINE SMOOTH",
"200 390 OFFCURVE",
"191 364 OFFCURVE",
"148 345 CURVE",
"169 282 OFFCURVE",
"201 230 OFFCURVE",
"242 191 CURVE SMOOTH",
"283 152 OFFCURVE",
"345 109 OFFCURVE",
"427 63 CURVE SMOOTH",
"502 21 OFFCURVE",
"556 0 OFFCURVE",
"590 0 CURVE SMOOTH",
"624 0 OFFCURVE",
"701 33 OFFCURVE",
"821 100 CURVE SMOOTH",
"940 167 OFFCURVE",
"1000 233 OFFCURVE",
"1000 300 CURVE SMOOTH",
"1000 924 LINE SMOOTH",
"1000 977 OFFCURVE",
"979 1020 OFFCURVE",
"937 1053 CURVE SMOOTH",
"895 1087 OFFCURVE",
"832 1112 OFFCURVE",
"748 1127 CURVE",
"817 1300 LINE",
"950 1300 LINE SMOOTH",
"983 1300 OFFCURVE",
"1000 1289 OFFCURVE",
"1000 1266 CURVE SMOOTH",
"1000 1243 OFFCURVE",
"995 1211 OFFCURVE",
"984 1170 CURVE",
"1026 1195 OFFCURVE",
"1056 1236 OFFCURVE",
"1074 1293 CURVE SMOOTH",
"1091 1350 OFFCURVE",
"1100 1419 OFFCURVE",
"1100 1500 CURVE",
"800 1500 LINE",
"635 1086 LINE SMOOTH",
"618 1046 OFFCURVE",
"610 1013 OFFCURVE",
"610 986 CURVE SMOOTH",
"610 959 OFFCURVE",
"626 944 OFFCURVE",
"658 940 CURVE SMOOTH",
"753 927 OFFCURVE",
"800 900 OFFCURVE",
"800 860 CURVE SMOOTH",
"800 632 LINE"
);
},
{
closed = 1;
nodes = (
"475 563 OFFCURVE",
"540 541 OFFCURVE",
"596 539 CURVE SMOOTH",
"605 539 LINE SMOOTH",
"661 539 OFFCURVE",
"726 563 OFFCURVE",
"800 612 CURVE",
"800 300 LINE SMOOTH",
"800 224 OFFCURVE",
"791 181 OFFCURVE",
"774 172 CURVE SMOOTH",
"758 162 OFFCURVE",
"737 157 OFFCURVE",
"712 157 CURVE SMOOTH",
"687 157 OFFCURVE",
"624 184 OFFCURVE",
"524 237 CURVE SMOOTH",
"428 290 OFFCURVE",
"380 327 OFFCURVE",
"380 349 CURVE",
"393 363 OFFCURVE",
"400 383 OFFCURVE",
"400 410 CURVE SMOOTH",
"400 604 LINE"
);
}
);
width = 1200;
}
);
note = uni1798;
unicode = 1798;
},
{
glyphname = uni1799;
lastChange = "2021-04-01 12:34:42 +0000";
layers = (
{
layerId = "27714DAC-5FBA-4222-9599-87EDA629626A";
paths = (
{
closed = 1;
nodes = (
"931 120 OFFCURVE",
"975 92 OFFCURVE",
"1027 63 CURVE SMOOTH",
"1102 21 OFFCURVE",
"1156 0 OFFCURVE",
"1190 0 CURVE SMOOTH",
"1224 0 OFFCURVE",
"1301 33 OFFCURVE",
"1421 100 CURVE SMOOTH",
"1540 167 OFFCURVE",
"1600 233 OFFCURVE",
"1600 300 CURVE SMOOTH",
"1600 924 LINE SMOOTH",
"1600 977 OFFCURVE",
"1579 1020 OFFCURVE",
"1537 1053 CURVE SMOOTH",
"1495 1087 OFFCURVE",
"1432 1112 OFFCURVE",
"1348 1127 CURVE",
"1417 1300 LINE",
"1550 1300 LINE SMOOTH",
"1583 1300 OFFCURVE",
"1600 1289 OFFCURVE",
"1600 1266 CURVE SMOOTH",
"1600 1243 OFFCURVE",
"1595 1211 OFFCURVE",
"1584 1170 CURVE",
"1626 1195 OFFCURVE",
"1656 1236 OFFCURVE",
"1674 1293 CURVE SMOOTH",
"1691 1350 OFFCURVE",
"1700 1419 OFFCURVE",
"1700 1500 CURVE",
"1400 1500 LINE",
"1235 1086 LINE SMOOTH",
"1218 1046 OFFCURVE",
"1210 1013 OFFCURVE",
"1210 986 CURVE SMOOTH",
"1210 959 OFFCURVE",
"1226 944 OFFCURVE",
"1258 940 CURVE SMOOTH",
"1353 927 OFFCURVE",
"1400 900 OFFCURVE",
"1400 860 CURVE SMOOTH",
"1400 300 LINE SMOOTH",
"1400 224 OFFCURVE",
"1391 181 OFFCURVE",
"1374 172 CURVE SMOOTH",
"1358 162 OFFCURVE",
"1337 157 OFFCURVE",
"1312 157 CURVE SMOOTH",
"1287 157 OFFCURVE",
"1224 184 OFFCURVE",
"1124 237 CURVE SMOOTH",
"1064 270 OFFCURVE",
"1023 297 OFFCURVE",
"1000 318 CURVE",
"1000 924 LINE SMOOTH",
"1000 977 OFFCURVE",
"979 1020 OFFCURVE",
"937 1053 CURVE SMOOTH",
"895 1087 OFFCURVE",
"832 1112 OFFCURVE",
"748 1127 CURVE",
"817 1300 LINE",
"950 1300 LINE SMOOTH",
"983 1300 OFFCURVE",
"1000 1289 OFFCURVE",
"1000 1266 CURVE SMOOTH",
"1000 1243 OFFCURVE",
"995 1211 OFFCURVE",
"984 1170 CURVE",
"1026 1195 OFFCURVE",
"1056 1236 OFFCURVE",
"1074 1293 CURVE SMOOTH",
"1091 1350 OFFCURVE",
"1100 1419 OFFCURVE",
"1100 1500 CURVE",
"800 1500 LINE",
"635 1086 LINE SMOOTH",
"618 1046 OFFCURVE",
"610 1013 OFFCURVE",
"610 986 CURVE SMOOTH",
"610 959 OFFCURVE",
"626 944 OFFCURVE",
"658 940 CURVE SMOOTH",
"753 927 OFFCURVE",
"800 900 OFFCURVE",
"800 860 CURVE SMOOTH",
"800 300 LINE SMOOTH",
"800 224 OFFCURVE",
"791 181 OFFCURVE",
"774 172 CURVE SMOOTH",
"758 162 OFFCURVE",
"737 157 OFFCURVE",
"712 157 CURVE SMOOTH",
"687 157 OFFCURVE",
"624 184 OFFCURVE",
"524 237 CURVE SMOOTH",
"428 290 OFFCURVE",
"380 327 OFFCURVE",
"380 349 CURVE",
"393 363 OFFCURVE",
"400 383 OFFCURVE",
"400 410 CURVE SMOOTH",
"400 1100 LINE",
"359 1095 OFFCURVE",
"324 1093 OFFCURVE",
"293 1093 CURVE SMOOTH",
"251 1093 OFFCURVE",
"219 1097 OFFCURVE",
"197 1106 CURVE SMOOTH",
"159 1120 OFFCURVE",
"140 1143 OFFCURVE",
"140 1174 CURVE SMOOTH",
"140 1229 OFFCURVE",
"149 1271 OFFCURVE",
"168 1298 CURVE SMOOTH",
"186 1326 OFFCURVE",
"213 1340 OFFCURVE",
"250 1340 CURVE SMOOTH",
"283 1340 OFFCURVE",
"300 1328 OFFCURVE",
"300 1305 CURVE SMOOTH",
"300 1282 OFFCURVE",
"273 1249 OFFCURVE",
"220 1206 CURVE",
"229 1169 OFFCURVE",
"255 1150 OFFCURVE",
"298 1150 CURVE SMOOTH",
"319 1150 OFFCURVE",
"343 1154 OFFCURVE",
"370 1162 CURVE SMOOTH",
"457 1187 OFFCURVE",
"500 1233 OFFCURVE",
"500 1300 CURVE SMOOTH",
"500 1367 OFFCURVE",
"483 1417 OFFCURVE",
"450 1450 CURVE SMOOTH",
"417 1483 OFFCURVE",
"367 1500 OFFCURVE",
"300 1500 CURVE SMOOTH",
"207 1500 OFFCURVE",
"138 1467 OFFCURVE",
"95 1400 CURVE SMOOTH",
"52 1333 OFFCURVE",
"30 1260 OFFCURVE",
"30 1180 CURVE SMOOTH",
"30 1113 OFFCURVE",
"43 1053 OFFCURVE",
"70 1000 CURVE SMOOTH",
"97 947 OFFCURVE",
"140 913 OFFCURVE",
"200 900 CURVE",
"200 430 LINE SMOOTH",
"200 390 OFFCURVE",
"191 364 OFFCURVE",
"148 345 CURVE",
"169 282 OFFCURVE",
"201 230 OFFCURVE",
"242 191 CURVE SMOOTH",
"283 152 OFFCURVE",
"345 109 OFFCURVE",
"427 63 CURVE SMOOTH",
"502 21 OFFCURVE",
"556 0 OFFCURVE",
"590 0 CURVE SMOOTH",
"624 0 OFFCURVE",
"701 33 OFFCURVE",
"821 100 CURVE SMOOTH",
"849 115 OFFCURVE",
"874 131 OFFCURVE",
"895 147 CURVE"
);
}
);
width = 1800;
}
);
note = uni1799;
unicode = 1799;
},
{
glyphname = uni179A;
lastChange = "2021-04-01 12:34:42 +0000";
layers = (
{
layerId = "27714DAC-5FBA-4222-9599-87EDA629626A";
paths = (
{
closed = 1;
nodes = (
"400 977 OFFCURVE",
"379 1020 OFFCURVE",
"337 1053 CURVE SMOOTH",
"295 1087 OFFCURVE",
"232 1112 OFFCURVE",
"148 1127 CURVE",
"217 1300 LINE",
"350 1300 LINE SMOOTH",
"383 1300 OFFCURVE",
"400 1289 OFFCURVE",
"400 1266 CURVE SMOOTH",
"400 1243 OFFCURVE",
"395 1211 OFFCURVE",
"384 1170 CURVE",
"426 1195 OFFCURVE",
"456 1236 OFFCURVE",
"474 1293 CURVE SMOOTH",
"491 1350 OFFCURVE",
"500 1419 OFFCURVE",
"500 1500 CURVE",
"200 1500 LINE",
"35 1086 LINE SMOOTH",
"18 1046 OFFCURVE",
"10 1013 OFFCURVE",
"10 986 CURVE SMOOTH",
"10 959 OFFCURVE",
"26 944 OFFCURVE",
"58 940 CURVE SMOOTH",
"153 927 OFFCURVE",
"200 900 OFFCURVE",
"200 860 CURVE SMOOTH",
"200 580 LINE",
"60 483 LINE SMOOTH",
"27 461 OFFCURVE",
"10 433 OFFCURVE",
"10 400 CURVE SMOOTH",
"10 333 OFFCURVE",
"42 270 OFFCURVE",
"105 209 CURVE SMOOTH",
"168 148 OFFCURVE",
"200 90 OFFCURVE",
"200 35 CURVE SMOOTH",
"200 12 OFFCURVE",
"208 0 OFFCURVE",
"225 0 CURVE SMOOTH",
"242 0 OFFCURVE",
"263 13 OFFCURVE",
"288 38 CURVE SMOOTH",
"400 150 LINE",
"400 924 LINE SMOOTH"
);
},
{
closed = 1;
nodes = (
"203 484 LINE",
"203 379 LINE",
"150 441 LINE"
);
}
);
width = 600;
}
);
note = uni179A;
unicode = 179A;
},
{
glyphname = uni179B;
lastChange = "2021-04-01 12:34:42 +0000";
layers = (
{
layerId = "27714DAC-5FBA-4222-9599-87EDA629626A";
paths = (
{
closed = 1;
nodes = (
"55 1126 LINE SMOOTH",
"38 1086 OFFCURVE",
"30 1053 OFFCURVE",
"30 1026 CURVE SMOOTH",
"30 999 OFFCURVE",
"46 984 OFFCURVE",
"78 980 CURVE SMOOTH",
"159 967 OFFCURVE",
"200 940 OFFCURVE",
"200 900 CURVE SMOOTH",
"200 40 LINE SMOOTH",
"200 13 OFFCURVE",
"208 0 OFFCURVE",
"225 0 CURVE SMOOTH",
"242 0 OFFCURVE",
"265 15 OFFCURVE",
"294 44 CURVE SMOOTH",
"469 219 LINE SMOOTH",
"556 306 OFFCURVE",
"600 400 OFFCURVE",
"600 500 CURVE SMOOTH",
"600 600 OFFCURVE",
"550 650 OFFCURVE",
"450 650 CURVE SMOOTH",
"400 650 LINE",
"400 964 LINE SMOOTH",
"400 1017 OFFCURVE",
"379 1060 OFFCURVE",
"337 1094 CURVE SMOOTH",
"295 1127 OFFCURVE",
"239 1152 OFFCURVE",
"168 1167 CURVE",
"217 1300 LINE",
"800 1300 LINE",
"800 430 LINE SMOOTH",
"800 390 OFFCURVE",
"791 364 OFFCURVE",
"748 345 CURVE",
"769 282 OFFCURVE",
"801 230 OFFCURVE",
"842 191 CURVE SMOOTH",
"883 152 OFFCURVE",
"945 109 OFFCURVE",
"1027 63 CURVE SMOOTH",
"1102 21 OFFCURVE",
"1156 0 OFFCURVE",
"1190 0 CURVE SMOOTH",
"1224 0 OFFCURVE",
"1301 33 OFFCURVE",
"1421 100 CURVE SMOOTH",
"1540 167 OFFCURVE",
"1600 233 OFFCURVE",
"1600 300 CURVE SMOOTH",
"1600 924 LINE SMOOTH",
"1600 977 OFFCURVE",
"1579 1020 OFFCURVE",
"1537 1053 CURVE SMOOTH",
"1495 1087 OFFCURVE",
"1432 1112 OFFCURVE",
"1348 1127 CURVE",
"1417 1300 LINE",
"1550 1300 LINE SMOOTH",
"1583 1300 OFFCURVE",
"1600 1289 OFFCURVE",
"1600 1266 CURVE SMOOTH",
"1600 1243 OFFCURVE",
"1595 1211 OFFCURVE",
"1584 1170 CURVE",
"1626 1195 OFFCURVE",
"1656 1236 OFFCURVE",
"1674 1293 CURVE SMOOTH",
"1691 1350 OFFCURVE",
"1700 1419 OFFCURVE",
"1700 1500 CURVE",
"1400 1500 LINE",
"1235 1086 LINE SMOOTH",
"1218 1046 OFFCURVE",
"1210 1013 OFFCURVE",
"1210 986 CURVE SMOOTH",
"1210 959 OFFCURVE",
"1226 944 OFFCURVE",
"1258 940 CURVE SMOOTH",
"1353 927 OFFCURVE",
"1400 900 OFFCURVE",
"1400 860 CURVE SMOOTH",
"1400 300 LINE SMOOTH",
"1400 224 OFFCURVE",
"1391 181 OFFCURVE",
"1374 172 CURVE SMOOTH",
"1358 162 OFFCURVE",
"1337 157 OFFCURVE",
"1312 157 CURVE SMOOTH",
"1287 157 OFFCURVE",
"1224 184 OFFCURVE",
"1124 237 CURVE SMOOTH",
"1028 290 OFFCURVE",
"980 327 OFFCURVE",
"980 349 CURVE",
"993 363 OFFCURVE",
"1000 383 OFFCURVE",
"1000 410 CURVE SMOOTH",
"1000 1500 LINE",
"200 1500 LINE"
);
},
{
closed = 1;
nodes = (
"477 500 OFFCURVE",
"490 486 OFFCURVE",
"490 459 CURVE SMOOTH",
"490 418 OFFCURVE",
"460 368 OFFCURVE",
"400 309 CURVE",
"400 500 LINE",
"450 500 LINE SMOOTH"
);
}
);
width = 1800;
}
);
note = uni179B;
unicode = 179B;
},
{
glyphname = uni179C;
lastChange = "2021-04-01 12:34:42 +0000";
layers = (
{
layerId = "27714DAC-5FBA-4222-9599-87EDA629626A";
paths = (
{
closed = 1;
nodes = (
"481 1473 OFFCURVE",
"484 1462 OFFCURVE",
"484 1451 CURVE SMOOTH",
"484 1444 OFFCURVE",
"483 1437 OFFCURVE",
"481 1430 CURVE SMOOTH",
"474 1410 OFFCURVE",
"461 1393 OFFCURVE",
"440 1378 CURVE",
"440 1419 OFFCURVE",
"433 1449 OFFCURVE",
"418 1470 CURVE SMOOTH",
"403 1490 OFFCURVE",
"380 1500 OFFCURVE",
"350 1500 CURVE SMOOTH",
"200 1500 LINE",
"35 1086 LINE SMOOTH",
"18 1046 OFFCURVE",
"10 1013 OFFCURVE",
"10 986 CURVE SMOOTH",
"10 959 OFFCURVE",
"26 944 OFFCURVE",
"58 940 CURVE SMOOTH",
"153 927 OFFCURVE",
"200 900 OFFCURVE",
"200 860 CURVE SMOOTH",
"200 580 LINE",
"60 483 LINE SMOOTH",
"27 461 OFFCURVE",
"10 433 OFFCURVE",
"10 400 CURVE SMOOTH",
"10 333 OFFCURVE",
"42 270 OFFCURVE",
"105 209 CURVE SMOOTH",
"168 148 OFFCURVE",
"200 90 OFFCURVE",
"200 35 CURVE SMOOTH",
"200 12 OFFCURVE",
"208 0 OFFCURVE",
"225 0 CURVE SMOOTH",
"242 0 OFFCURVE",
"263 13 OFFCURVE",
"288 38 CURVE SMOOTH",
"400 150 LINE",
"400 924 LINE SMOOTH",
"400 977 OFFCURVE",
"379 1020 OFFCURVE",
"337 1053 CURVE SMOOTH",
"295 1087 OFFCURVE",
"232 1112 OFFCURVE",
"148 1127 CURVE",
"217 1300 LINE",
"311 1300 LINE SMOOTH",
"336 1300 OFFCURVE",
"349 1290 OFFCURVE",
"349 1271 CURVE SMOOTH",
"349 1266 LINE SMOOTH",
"346 1243 OFFCURVE",
"340 1221 OFFCURVE",
"331 1200 CURVE",
"340 1197 OFFCURVE",
"348 1196 OFFCURVE",
"356 1196 CURVE SMOOTH",
"396 1196 OFFCURVE",
"439 1224 OFFCURVE",
"486 1279 CURVE SMOOTH",
"529 1330 OFFCURVE",
"555 1405 OFFCURVE",
"565 1502 CURVE SMOOTH",
"568 1524 OFFCURVE",
"570 1548 OFFCURVE",
"570 1573 CURVE SMOOTH",
"570 1635 OFFCURVE",
"548 1691 OFFCURVE",
"503 1740 CURVE SMOOTH",
"458 1789 OFFCURVE",
"436 1829 OFFCURVE",
"435 1858 CURVE SMOOTH",
"435 1901 OFFCURVE",
"461 1948 OFFCURVE",
"514 2000 CURVE",
"426 1979 OFFCURVE",
"363 1950 OFFCURVE",
"326 1914 CURVE SMOOTH",
"289 1878 OFFCURVE",
"270 1840 OFFCURVE",
"270 1801 CURVE SMOOTH",
"270 1746 OFFCURVE",
"307 1677 OFFCURVE",
"382 1596 CURVE SMOOTH",
"428 1546 OFFCURVE",
"459 1508 OFFCURVE",
"475 1482 CURVE SMOOTH"
);
},
{
closed = 1;
nodes = (
"203 484 LINE",
"203 379 LINE",
"150 441 LINE"
);
}
);
width = 600;
}
);
note = uni179C;
unicode = 179C;
},
{
glyphname = uni179D;
lastChange = "2021-04-01 12:34:42 +0000";
layers = (
{
layerId = "27714DAC-5FBA-4222-9599-87EDA629626A";
paths = (
{
closed = 1;
nodes = (
"335 1010 OFFCURVE",
"371 1034 OFFCURVE",
"402 1071 CURVE SMOOTH",
"416 1088 OFFCURVE",
"423 1105 OFFCURVE",
"423 1121 CURVE SMOOTH",
"423 1140 OFFCURVE",
"413 1158 OFFCURVE",
"394 1175 CURVE SMOOTH",
"358 1207 OFFCURVE",
"318 1232 OFFCURVE",
"274 1250 CURVE",
"298 1300 LINE",
"560 1300 LINE SMOOTH",
"587 1300 OFFCURVE",
"600 1282 OFFCURVE",
"600 1247 CURVE SMOOTH",
"600 1229 OFFCURVE",
"597 1207 OFFCURVE",
"590 1180 CURVE",
"637 1260 OFFCURVE",
"681 1300 OFFCURVE",
"720 1300 CURVE SMOOTH",
"902 1300 LINE SMOOTH",
"927 1300 OFFCURVE",
"940 1290 OFFCURVE",
"940 1271 CURVE SMOOTH",
"940 1266 LINE SMOOTH",
"937 1243 OFFCURVE",
"928 1204 OFFCURVE",
"914 1151 CURVE",
"969 1188 OFFCURVE",
"1006 1236 OFFCURVE",
"1024 1293 CURVE SMOOTH",
"1041 1350 OFFCURVE",
"1050 1419 OFFCURVE",
"1050 1500 CURVE",
"760 1500 LINE SMOOTH",
"730 1500 OFFCURVE",
"693 1467 OFFCURVE",
"650 1400 CURVE",
"650 1467 OFFCURVE",
"637 1500 OFFCURVE",
"610 1500 CURVE SMOOTH",
"300 1500 LINE",
"100 1100 LINE",
"114 1100 LINE SMOOTH",
"153 1100 OFFCURVE",
"186 1093 OFFCURVE",
"215 1078 CURVE SMOOTH",
"248 1061 OFFCURVE",
"274 1035 OFFCURVE",
"294 1000 CURVE"
);
},
{
closed = 1;
nodes = (
"730 433 OFFCURVE",
"766 414 OFFCURVE",
"800 400 CURVE",
"800 -50 LINE",
"1000 150 LINE",
"1000 379 LINE",
"1048 392 OFFCURVE",
"1101 420 OFFCURVE",
"1160 462 CURVE",
"1149 462 LINE SMOOTH",
"1090 462 OFFCURVE",
"1040 467 OFFCURVE",
"1000 478 CURVE",
"1000 800 LINE SMOOTH",
"1000 867 OFFCURVE",
"920 946 OFFCURVE",
"759 1037 CURVE SMOOTH",
"686 1079 OFFCURVE",
"633 1100 OFFCURVE",
"600 1100 CURVE SMOOTH",
"567 1100 OFFCURVE",
"492 1067 OFFCURVE",
"375 1000 CURVE SMOOTH",
"258 933 OFFCURVE",
"200 867 OFFCURVE",
"200 800 CURVE SMOOTH",
"200 40 LINE SMOOTH",
"200 13 OFFCURVE",
"208 0 OFFCURVE",
"225 0 CURVE SMOOTH",
"242 0 OFFCURVE",
"260 13 OFFCURVE",
"281 38 CURVE SMOOTH",
"466 263 LINE SMOOTH",
"487 288 OFFCURVE",
"506 300 OFFCURVE",
"525 300 CURVE SMOOTH",
"563 300 OFFCURVE",
"588 285 OFFCURVE",
"600 255 CURVE",
"667 285 OFFCURVE",
"700 322 OFFCURVE",
"700 365 CURVE SMOOTH",
"700 408 OFFCURVE",
"684 441 OFFCURVE",
"653 465 CURVE SMOOTH",
"621 488 OFFCURVE",
"591 500 OFFCURVE",
"562 500 CURVE SMOOTH",
"497 500 OFFCURVE",
"443 450 OFFCURVE",
"400 349 CURVE",
"400 800 LINE SMOOTH",
"400 876 OFFCURVE",
"408 919 OFFCURVE",
"425 928 CURVE SMOOTH",
"441 938 OFFCURVE",
"461 943 OFFCURVE",
"486 943 CURVE SMOOTH",
"511 943 OFFCURVE",
"569 917 OFFCURVE",
"662 864 CURVE SMOOTH",
"754 811 OFFCURVE",
"800 773 OFFCURVE",
"800 750 CURVE SMOOTH",
"800 590 LINE",
"692 456 LINE"
);
}
);
width = 1200;
}
);
note = uni179D;
unicode = 179D;
},
{
glyphname = uni179E;
lastChange = "2021-04-01 12:34:42 +0000";
layers = (
{
layerId = "27714DAC-5FBA-4222-9599-87EDA629626A";
paths = (
{
closed = 1;
nodes = (
"1048 562 OFFCURVE",
"1101 590 OFFCURVE",
"1160 632 CURVE",
"1149 632 LINE SMOOTH",
"1090 632 OFFCURVE",
"1040 637 OFFCURVE",
"1000 648 CURVE",
"1000 924 LINE SMOOTH",
"1000 977 OFFCURVE",
"979 1020 OFFCURVE",
"937 1053 CURVE SMOOTH",
"895 1087 OFFCURVE",
"832 1112 OFFCURVE",
"748 1127 CURVE",
"817 1300 LINE",
"950 1300 LINE SMOOTH",
"983 1300 OFFCURVE",
"1000 1289 OFFCURVE",
"1000 1266 CURVE SMOOTH",
"1000 1243 OFFCURVE",
"995 1211 OFFCURVE",
"984 1170 CURVE",
"1026 1195 OFFCURVE",
"1056 1236 OFFCURVE",
"1074 1293 CURVE SMOOTH",
"1091 1350 OFFCURVE",
"1100 1419 OFFCURVE",
"1100 1500 CURVE",
"800 1500 LINE",
"635 1086 LINE SMOOTH",
"618 1046 OFFCURVE",
"610 1013 OFFCURVE",
"610 986 CURVE SMOOTH",
"610 959 OFFCURVE",
"626 944 OFFCURVE",
"658 940 CURVE SMOOTH",
"753 927 OFFCURVE",
"800 900 OFFCURVE",
"800 860 CURVE SMOOTH",
"800 760 LINE",
"692 626 LINE",
"730 603 OFFCURVE",
"766 584 OFFCURVE",
"800 570 CURVE",
"800 300 LINE SMOOTH",
"800 224 OFFCURVE",
"791 181 OFFCURVE",
"774 172 CURVE SMOOTH",
"758 162 OFFCURVE",
"737 157 OFFCURVE",
"712 157 CURVE SMOOTH",
"687 157 OFFCURVE",
"624 184 OFFCURVE",
"524 237 CURVE SMOOTH",
"428 290 OFFCURVE",
"380 327 OFFCURVE",
"380 349 CURVE",
"393 363 OFFCURVE",
"400 383 OFFCURVE",
"400 410 CURVE SMOOTH",
"400 924 LINE SMOOTH",
"400 977 OFFCURVE",
"379 1020 OFFCURVE",
"337 1053 CURVE SMOOTH",
"295 1087 OFFCURVE",
"232 1112 OFFCURVE",
"148 1127 CURVE",
"217 1300 LINE",
"350 1300 LINE SMOOTH",
"383 1300 OFFCURVE",
"400 1289 OFFCURVE",
"400 1266 CURVE SMOOTH",
"400 1243 OFFCURVE",
"395 1211 OFFCURVE",
"384 1170 CURVE",
"426 1195 OFFCURVE",
"456 1236 OFFCURVE",
"474 1293 CURVE SMOOTH",
"491 1350 OFFCURVE",
"500 1419 OFFCURVE",
"500 1500 CURVE",
"200 1500 LINE",
"35 1086 LINE SMOOTH",
"18 1046 OFFCURVE",
"10 1013 OFFCURVE",
"10 986 CURVE SMOOTH",
"10 959 OFFCURVE",
"26 944 OFFCURVE",
"58 940 CURVE SMOOTH",
"153 927 OFFCURVE",
"200 900 OFFCURVE",
"200 860 CURVE SMOOTH",
"200 430 LINE SMOOTH",
"200 390 OFFCURVE",
"191 364 OFFCURVE",
"148 345 CURVE",
"169 282 OFFCURVE",
"201 230 OFFCURVE",
"242 191 CURVE SMOOTH",
"283 152 OFFCURVE",
"345 109 OFFCURVE",
"427 63 CURVE SMOOTH",
"502 21 OFFCURVE",
"556 0 OFFCURVE",
"590 0 CURVE SMOOTH",
"624 0 OFFCURVE",
"701 33 OFFCURVE",
"821 100 CURVE SMOOTH",
"940 167 OFFCURVE",
"1000 233 OFFCURVE",
"1000 300 CURVE SMOOTH",
"1000 549 LINE"
);
}
);
width = 1200;
}
);
note = uni179E;
unicode = 179E;
},
{
glyphname = uni179F;
lastChange = "2021-04-01 12:34:42 +0000";
layers = (
{
layerId = "27714DAC-5FBA-4222-9599-87EDA629626A";
paths = (
{
closed = 1;
nodes = (
"248 919 OFFCURVE",
"201 859 OFFCURVE",
"201 800 CURVE SMOOTH",
"201 40 LINE SMOOTH",
"201 13 OFFCURVE",
"209 0 OFFCURVE",
"226 0 CURVE SMOOTH",
"243 0 OFFCURVE",
"266 15 OFFCURVE",
"295 44 CURVE SMOOTH",
"470 219 LINE SMOOTH",
"557 306 OFFCURVE",
"601 384 OFFCURVE",
"601 451 CURVE SMOOTH",
"601 484 OFFCURVE",
"589 509 OFFCURVE",
"564 525 CURVE SMOOTH",
"539 542 OFFCURVE",
"501 550 OFFCURVE",
"451 550 CURVE SMOOTH",
"401 550 LINE",
"401 800 LINE SMOOTH",
"401 876 OFFCURVE",
"409 919 OFFCURVE",
"426 928 CURVE SMOOTH",
"442 938 OFFCURVE",
"462 943 OFFCURVE",
"487 943 CURVE SMOOTH",
"512 943 OFFCURVE",
"570 917 OFFCURVE",
"663 864 CURVE SMOOTH",
"755 811 OFFCURVE",
"801 773 OFFCURVE",
"801 750 CURVE SMOOTH",
"801 430 LINE SMOOTH",
"801 390 OFFCURVE",
"792 364 OFFCURVE",
"749 345 CURVE",
"770 282 OFFCURVE",
"802 230 OFFCURVE",
"843 191 CURVE SMOOTH",
"884 152 OFFCURVE",
"946 109 OFFCURVE",
"1028 63 CURVE SMOOTH",
"1103 21 OFFCURVE",
"1157 0 OFFCURVE",
"1191 0 CURVE SMOOTH",
"1225 0 OFFCURVE",
"1302 33 OFFCURVE",
"1422 100 CURVE SMOOTH",
"1541 167 OFFCURVE",
"1601 233 OFFCURVE",
"1601 300 CURVE SMOOTH",
"1601 924 LINE SMOOTH",
"1601 977 OFFCURVE",
"1580 1020 OFFCURVE",
"1538 1053 CURVE SMOOTH",
"1496 1087 OFFCURVE",
"1433 1112 OFFCURVE",
"1349 1127 CURVE",
"1418 1300 LINE",
"1551 1300 LINE SMOOTH",
"1584 1300 OFFCURVE",
"1601 1289 OFFCURVE",
"1601 1266 CURVE SMOOTH",
"1601 1243 OFFCURVE",
"1596 1211 OFFCURVE",
"1585 1170 CURVE",
"1627 1195 OFFCURVE",
"1657 1236 OFFCURVE",
"1675 1293 CURVE SMOOTH",
"1692 1350 OFFCURVE",
"1701 1419 OFFCURVE",
"1701 1500 CURVE",
"1401 1500 LINE",
"1236 1086 LINE SMOOTH",
"1219 1046 OFFCURVE",
"1211 1013 OFFCURVE",
"1211 986 CURVE SMOOTH",
"1211 959 OFFCURVE",
"1227 944 OFFCURVE",
"1259 940 CURVE SMOOTH",
"1354 927 OFFCURVE",
"1401 900 OFFCURVE",
"1401 860 CURVE SMOOTH",
"1401 300 LINE SMOOTH",
"1401 224 OFFCURVE",
"1392 181 OFFCURVE",
"1375 172 CURVE SMOOTH",
"1359 162 OFFCURVE",
"1338 157 OFFCURVE",
"1313 157 CURVE SMOOTH",
"1288 157 OFFCURVE",
"1225 184 OFFCURVE",
"1125 237 CURVE SMOOTH",
"1029 290 OFFCURVE",
"981 327 OFFCURVE",
"981 349 CURVE",
"994 363 OFFCURVE",
"1001 383 OFFCURVE",
"1001 410 CURVE SMOOTH",
"1001 800 LINE SMOOTH",
"1001 867 OFFCURVE",
"921 946 OFFCURVE",
"760 1037 CURVE SMOOTH",
"687 1079 OFFCURVE",
"634 1100 OFFCURVE",
"601 1100 CURVE SMOOTH",
"581 1100 OFFCURVE",
"546 1088 OFFCURVE",
"496 1064 CURVE",
"479 1095 OFFCURVE",
"459 1124 OFFCURVE",
"434 1150 CURVE SMOOTH",
"395 1191 OFFCURVE",
"345 1224 OFFCURVE",
"285 1250 CURVE",
"309 1300 LINE",
"833 1300 LINE SMOOTH",
"858 1300 OFFCURVE",
"871 1290 OFFCURVE",
"871 1271 CURVE SMOOTH",
"871 1266 LINE SMOOTH",
"868 1243 OFFCURVE",
"859 1204 OFFCURVE",
"845 1151 CURVE",
"900 1188 OFFCURVE",
"937 1236 OFFCURVE",
"955 1293 CURVE SMOOTH",
"972 1350 OFFCURVE",
"981 1419 OFFCURVE",
"981 1500 CURVE",
"311 1500 LINE",
"111 1100 LINE",
"188 1100 OFFCURVE",
"242 1087 OFFCURVE",
"271 1062 CURVE SMOOTH",
"293 1042 OFFCURVE",
"316 1014 OFFCURVE",
"341 979 CURVE"
);
},
{
closed = 1;
nodes = (
"478 450 OFFCURVE",
"491 441 OFFCURVE",
"491 424 CURVE SMOOTH",
"491 407 OFFCURVE",
"461 368 OFFCURVE",
"401 309 CURVE",
"401 450 LINE",
"451 450 LINE SMOOTH"
);
}
);
width = 1800;
}
);
note = uni179F;
unicode = 179F;
},
{
glyphname = uni17A0;
lastChange = "2021-04-01 12:34:42 +0000";
layers = (
{
layerId = "27714DAC-5FBA-4222-9599-87EDA629626A";
paths = (
{
closed = 1;
nodes = (
"1000 1017 OFFCURVE",
"979 1060 OFFCURVE",
"937 1094 CURVE SMOOTH",
"895 1127 OFFCURVE",
"839 1152 OFFCURVE",
"768 1167 CURVE",
"817 1300 LINE",
"1400 1300 LINE",
"1400 -50 LINE",
"1600 150 LINE",
"1600 1500 LINE",
"800 1500 LINE",
"655 1126 LINE SMOOTH",
"638 1086 OFFCURVE",
"630 1053 OFFCURVE",
"630 1026 CURVE SMOOTH",
"630 999 OFFCURVE",
"646 984 OFFCURVE",
"678 980 CURVE SMOOTH",
"759 967 OFFCURVE",
"800 940 OFFCURVE",
"800 900 CURVE SMOOTH",
"800 300 LINE SMOOTH",
"800 224 OFFCURVE",
"791 181 OFFCURVE",
"774 172 CURVE SMOOTH",
"758 162 OFFCURVE",
"737 157 OFFCURVE",
"712 157 CURVE SMOOTH",
"687 157 OFFCURVE",
"624 184 OFFCURVE",
"524 237 CURVE SMOOTH",
"428 290 OFFCURVE",
"380 327 OFFCURVE",
"380 349 CURVE",
"393 363 OFFCURVE",
"400 383 OFFCURVE",
"400 410 CURVE SMOOTH",
"400 924 LINE SMOOTH",
"400 977 OFFCURVE",
"379 1020 OFFCURVE",
"337 1053 CURVE SMOOTH",
"295 1087 OFFCURVE",
"232 1112 OFFCURVE",
"148 1127 CURVE",
"217 1300 LINE",
"350 1300 LINE SMOOTH",
"383 1300 OFFCURVE",
"400 1289 OFFCURVE",
"400 1266 CURVE SMOOTH",
"400 1243 OFFCURVE",
"395 1211 OFFCURVE",
"384 1170 CURVE",
"426 1195 OFFCURVE",
"456 1236 OFFCURVE",
"474 1293 CURVE SMOOTH",
"491 1350 OFFCURVE",
"500 1419 OFFCURVE",
"500 1500 CURVE",
"200 1500 LINE",
"35 1086 LINE SMOOTH",
"18 1046 OFFCURVE",
"10 1013 OFFCURVE",
"10 986 CURVE SMOOTH",
"10 959 OFFCURVE",
"26 944 OFFCURVE",
"58 940 CURVE SMOOTH",
"153 927 OFFCURVE",
"200 900 OFFCURVE",
"200 860 CURVE SMOOTH",
"200 430 LINE SMOOTH",
"200 390 OFFCURVE",
"191 364 OFFCURVE",
"148 345 CURVE",
"169 282 OFFCURVE",
"201 230 OFFCURVE",
"242 191 CURVE SMOOTH",
"283 152 OFFCURVE",
"345 109 OFFCURVE",
"427 63 CURVE SMOOTH",
"502 21 OFFCURVE",
"556 0 OFFCURVE",
"590 0 CURVE SMOOTH",
"624 0 OFFCURVE",
"701 33 OFFCURVE",
"821 100 CURVE SMOOTH",
"940 167 OFFCURVE",
"1000 233 OFFCURVE",
"1000 300 CURVE SMOOTH",
"1000 964 LINE SMOOTH"
);
}
);
width = 1800;
}
);
note = uni17A0;
unicode = 17A0;
},
{
glyphname = uni17A1;
lastChange = "2021-04-01 12:34:42 +0000";
layers = (
{
layerId = "27714DAC-5FBA-4222-9599-87EDA629626A";
paths = (
{
closed = 1;
nodes = (
"276 838 OFFCURVE",
"394 773 OFFCURVE",
"531 734 CURVE SMOOTH",
"738 677 LINE",
"806 657 LINE SMOOTH",
"817 654 OFFCURVE",
"827 653 OFFCURVE",
"838 653 CURVE SMOOTH",
"875 653 OFFCURVE",
"913 669 OFFCURVE",
"953 702 CURVE SMOOTH",
"1004 744 OFFCURVE",
"1030 816 OFFCURVE",
"1030 918 CURVE",
"996 869 OFFCURVE",
"955 845 OFFCURVE",
"906 845 CURVE SMOOTH",
"893 845 OFFCURVE",
"878 847 OFFCURVE",
"863 851 CURVE SMOOTH",
"589 926 LINE SMOOTH",
"479 955 OFFCURVE",
"395 998 OFFCURVE",
"338 1054 CURVE SMOOTH",
"251 1137 LINE",
"317 1300 LINE",
"870 1300 LINE SMOOTH",
"895 1300 OFFCURVE",
"908 1292 OFFCURVE",
"908 1275 CURVE SMOOTH",
"908 1268 OFFCURVE",
"906 1259 OFFCURVE",
"902 1250 CURVE SMOOTH",
"887 1217 OFFCURVE",
"852 1200 OFFCURVE",
"796 1200 CURVE SMOOTH",
"740 1200 OFFCURVE",
"681 1218 OFFCURVE",
"619 1255 CURVE",
"447 1126 LINE",
"586 1042 OFFCURVE",
"695 1000 OFFCURVE",
"776 1000 CURVE SMOOTH",
"857 1000 OFFCURVE",
"914 1047 OFFCURVE",
"947 1142 CURVE SMOOTH",
"997 1284 LINE SMOOTH",
"1019 1347 OFFCURVE",
"1030 1419 OFFCURVE",
"1030 1500 CURVE",
"300 1500 LINE",
"173 1200 LINE SMOOTH",
"144 1133 OFFCURVE",
"130 1059 OFFCURVE",
"130 976 CURVE",
"179 930 LINE SMOOTH"
);
},
{
closed = 1;
nodes = (
"1000 -385 LINE",
"1000 -101 LINE",
"959 -67 OFFCURVE",
"919 -50 OFFCURVE",
"880 -50 CURVE SMOOTH",
"840 -50 OFFCURVE",
"804 -65 OFFCURVE",
"773 -94 CURVE SMOOTH",
"678 -184 LINE SMOOTH",
"646 -215 OFFCURVE",
"630 -241 OFFCURVE",
"630 -264 CURVE SMOOTH",
"630 -287 OFFCURVE",
"644 -307 OFFCURVE",
"673 -326 CURVE SMOOTH",
"800 -410 LINE",
"800 -615 LINE SMOOTH",
"800 -638 OFFCURVE",
"808 -650 OFFCURVE",
"825 -650 CURVE SMOOTH",
"842 -650 OFFCURVE",
"862 -638 OFFCURVE",
"885 -614 CURVE SMOOTH",
"1126 -369 LINE",
"1332 -579 LINE SMOOTH",
"1377 -626 OFFCURVE",
"1408 -650 OFFCURVE",
"1425 -650 CURVE SMOOTH",
"1442 -650 OFFCURVE",
"1475 -628 OFFCURVE",
"1525 -585 CURVE SMOOTH",
"1600 -521 LINE",
"1600 924 LINE SMOOTH",
"1600 977 OFFCURVE",
"1579 1020 OFFCURVE",
"1537 1053 CURVE SMOOTH",
"1495 1087 OFFCURVE",
"1432 1112 OFFCURVE",
"1348 1127 CURVE",
"1417 1300 LINE",
"1550 1300 LINE SMOOTH",
"1583 1300 OFFCURVE",
"1600 1289 OFFCURVE",
"1600 1266 CURVE SMOOTH",
"1600 1243 OFFCURVE",
"1595 1211 OFFCURVE",
"1584 1170 CURVE",
"1626 1195 OFFCURVE",
"1656 1236 OFFCURVE",
"1674 1293 CURVE SMOOTH",
"1691 1350 OFFCURVE",
"1700 1419 OFFCURVE",
"1700 1500 CURVE",
"1400 1500 LINE",
"1235 1086 LINE SMOOTH",
"1218 1046 OFFCURVE",
"1210 1013 OFFCURVE",
"1210 986 CURVE SMOOTH",
"1210 959 OFFCURVE",
"1226 944 OFFCURVE",
"1258 940 CURVE SMOOTH",
"1353 927 OFFCURVE",
"1400 900 OFFCURVE",
"1400 860 CURVE SMOOTH",
"1400 -385 LINE",
"1200 -180 LINE"
);
},
{
closed = 1;
nodes = (
"400 713 OFFCURVE",
"392 730 OFFCURVE",
"375 730 CURVE SMOOTH",
"358 730 OFFCURVE",
"338 718 OFFCURVE",
"313 693 CURVE SMOOTH",
"200 580 LINE",
"200 300 LINE SMOOTH",
"200 233 OFFCURVE",
"280 154 OFFCURVE",
"441 63 CURVE SMOOTH",
"514 21 OFFCURVE",
"567 0 OFFCURVE",
"600 0 CURVE SMOOTH",
"633 0 OFFCURVE",
"708 33 OFFCURVE",
"825 100 CURVE SMOOTH",
"942 167 OFFCURVE",
"1000 233 OFFCURVE",
"1000 300 CURVE SMOOTH",
"1000 711 LINE",
"983 679 OFFCURVE",
"958 654 OFFCURVE",
"923 636 CURVE SMOOTH",
"894 621 OFFCURVE",
"862 613 OFFCURVE",
"825 613 CURVE SMOOTH",
"817 613 OFFCURVE",
"809 613 OFFCURVE",
"800 614 CURVE",
"800 300 LINE SMOOTH",
"800 224 OFFCURVE",
"792 181 OFFCURVE",
"775 172 CURVE SMOOTH",
"759 162 OFFCURVE",
"739 157 OFFCURVE",
"714 157 CURVE SMOOTH",
"689 157 OFFCURVE",
"631 183 OFFCURVE",
"538 236 CURVE SMOOTH",
"446 289 OFFCURVE",
"400 327 OFFCURVE",
"400 350 CURVE SMOOTH",
"400 680 LINE SMOOTH"
);
},
{
closed = 1;
nodes = (
"800 -291 LINE",
"760 -265 LINE",
"800 -229 LINE"
);
}
);
width = 1800;
}
);
note = uni17A1;
unicode = 17A1;
},
{
glyphname = uni17A2;
lastChange = "2021-04-01 12:34:42 +0000";
layers = (
{
layerId = "27714DAC-5FBA-4222-9599-87EDA629626A";
paths = (
{
closed = 1;
nodes = (
"475 633 OFFCURVE",
"540 611 OFFCURVE",
"596 609 CURVE SMOOTH",
"605 609 LINE SMOOTH",
"661 609 OFFCURVE",
"726 633 OFFCURVE",
"800 682 CURVE",
"800 580 LINE",
"660 483 LINE SMOOTH",
"627 461 OFFCURVE",
"610 433 OFFCURVE",
"610 400 CURVE SMOOTH",
"610 333 OFFCURVE",
"642 270 OFFCURVE",
"705 209 CURVE SMOOTH",
"768 148 OFFCURVE",
"800 90 OFFCURVE",
"800 35 CURVE SMOOTH",
"800 12 OFFCURVE",
"808 0 OFFCURVE",
"825 0 CURVE SMOOTH",
"842 0 OFFCURVE",
"863 13 OFFCURVE",
"888 38 CURVE SMOOTH",
"1000 150 LINE",
"1000 924 LINE SMOOTH",
"1000 977 OFFCURVE",
"979 1020 OFFCURVE",
"937 1053 CURVE SMOOTH",
"895 1087 OFFCURVE",
"832 1112 OFFCURVE",
"748 1127 CURVE",
"817 1300 LINE",
"950 1300 LINE SMOOTH",
"983 1300 OFFCURVE",
"1000 1289 OFFCURVE",
"1000 1266 CURVE SMOOTH",
"1000 1243 OFFCURVE",
"995 1211 OFFCURVE",
"984 1170 CURVE",
"1026 1195 OFFCURVE",
"1056 1236 OFFCURVE",
"1074 1293 CURVE SMOOTH",
"1091 1350 OFFCURVE",
"1100 1419 OFFCURVE",
"1100 1500 CURVE",
"800 1500 LINE",
"635 1086 LINE SMOOTH",
"618 1046 OFFCURVE",
"610 1013 OFFCURVE",
"610 986 CURVE SMOOTH",
"610 959 OFFCURVE",
"626 944 OFFCURVE",
"658 940 CURVE SMOOTH",
"753 927 OFFCURVE",
"800 900 OFFCURVE",
"800 860 CURVE SMOOTH",
"800 702 LINE",
"727 704 OFFCURVE",
"670 714 OFFCURVE",
"627 733 CURVE SMOOTH",
"580 754 OFFCURVE",
"538 800 OFFCURVE",
"502 870 CURVE",
"400 743 LINE",
"400 924 LINE SMOOTH",
"400 977 OFFCURVE",
"379 1020 OFFCURVE",
"337 1053 CURVE SMOOTH",
"295 1087 OFFCURVE",
"232 1112 OFFCURVE",
"148 1127 CURVE",
"217 1300 LINE",
"350 1300 LINE SMOOTH",
"383 1300 OFFCURVE",
"400 1289 OFFCURVE",
"400 1266 CURVE SMOOTH",
"400 1243 OFFCURVE",
"395 1211 OFFCURVE",
"384 1170 CURVE",
"426 1195 OFFCURVE",
"456 1236 OFFCURVE",
"474 1293 CURVE SMOOTH",
"491 1350 OFFCURVE",
"500 1419 OFFCURVE",
"500 1500 CURVE",
"200 1500 LINE",
"35 1086 LINE SMOOTH",
"18 1046 OFFCURVE",
"10 1013 OFFCURVE",
"10 986 CURVE SMOOTH",
"10 959 OFFCURVE",
"26 944 OFFCURVE",
"58 940 CURVE SMOOTH",
"153 927 OFFCURVE",
"200 900 OFFCURVE",
"200 860 CURVE SMOOTH",
"200 580 LINE",
"60 483 LINE SMOOTH",
"27 461 OFFCURVE",
"10 433 OFFCURVE",
"10 400 CURVE SMOOTH",
"10 333 OFFCURVE",
"42 270 OFFCURVE",
"105 209 CURVE SMOOTH",
"168 148 OFFCURVE",
"200 90 OFFCURVE",
"200 35 CURVE SMOOTH",
"200 12 OFFCURVE",
"208 0 OFFCURVE",
"225 0 CURVE SMOOTH",
"242 0 OFFCURVE",
"263 13 OFFCURVE",
"288 38 CURVE SMOOTH",
"400 150 LINE",
"400 674 LINE"
);
},
{
closed = 1;
nodes = (
"203 484 LINE",
"203 379 LINE",
"150 441 LINE"
);
},
{
closed = 1;
nodes = (
"803 484 LINE",
"803 379 LINE",
"750 441 LINE"
);
}
);
width = 1200;
}
);
note = uni17A2;
unicode = 17A2;
},
{
glyphname = uni17A5;
lastChange = "2021-04-01 12:34:42 +0000";
layers = (
{
layerId = "27714DAC-5FBA-4222-9599-87EDA629626A";
paths = (
{
closed = 1;
nodes = (
"806 1300 OFFCURVE",
"819 1290 OFFCURVE",
"819 1271 CURVE SMOOTH",
"819 1266 LINE SMOOTH",
"816 1243 OFFCURVE",
"810 1221 OFFCURVE",
"801 1200 CURVE",
"810 1197 OFFCURVE",
"818 1196 OFFCURVE",
"826 1196 CURVE SMOOTH",
"866 1196 OFFCURVE",
"909 1224 OFFCURVE",
"956 1279 CURVE SMOOTH",
"1012 1346 OFFCURVE",
"1040 1453 OFFCURVE",
"1040 1600 CURVE SMOOTH",
"1040 1687 OFFCURVE",
"1018 1764 OFFCURVE",
"973 1833 CURVE SMOOTH",
"928 1902 OFFCURVE",
"906 1956 OFFCURVE",
"905 1996 CURVE SMOOTH",
"905 2055 OFFCURVE",
"931 2121 OFFCURVE",
"984 2194 CURVE",
"896 2164 OFFCURVE",
"833 2124 OFFCURVE",
"796 2074 CURVE SMOOTH",
"759 2025 OFFCURVE",
"740 1972 OFFCURVE",
"740 1917 CURVE SMOOTH",
"740 1859 OFFCURVE",
"777 1773 OFFCURVE",
"852 1660 CURVE SMOOTH",
"922 1554 OFFCURVE",
"957 1487 OFFCURVE",
"957 1460 CURVE SMOOTH",
"957 1455 LINE",
"953 1432 OFFCURVE",
"937 1406 OFFCURVE",
"910 1378 CURVE",
"910 1419 OFFCURVE",
"903 1449 OFFCURVE",
"888 1470 CURVE SMOOTH",
"873 1490 OFFCURVE",
"850 1500 OFFCURVE",
"820 1500 CURVE SMOOTH",
"300 1500 LINE",
"100 1100 LINE",
"114 1100 LINE SMOOTH",
"153 1100 OFFCURVE",
"186 1093 OFFCURVE",
"215 1078 CURVE SMOOTH",
"248 1061 OFFCURVE",
"274 1035 OFFCURVE",
"294 1000 CURVE",
"335 1010 OFFCURVE",
"371 1034 OFFCURVE",
"402 1071 CURVE SMOOTH",
"416 1088 OFFCURVE",
"423 1105 OFFCURVE",
"423 1121 CURVE SMOOTH",
"423 1140 OFFCURVE",
"413 1158 OFFCURVE",
"394 1175 CURVE SMOOTH",
"358 1207 OFFCURVE",
"318 1232 OFFCURVE",
"274 1250 CURVE",
"298 1300 LINE",
"781 1300 LINE SMOOTH"
);
},
{
closed = 1;
nodes = (
"200 13 OFFCURVE",
"208 0 OFFCURVE",
"225 0 CURVE SMOOTH",
"242 0 OFFCURVE",
"265 15 OFFCURVE",
"294 44 CURVE SMOOTH",
"469 219 LINE SMOOTH",
"556 306 OFFCURVE",
"600 384 OFFCURVE",
"600 451 CURVE SMOOTH",
"600 484 OFFCURVE",
"588 509 OFFCURVE",
"563 525 CURVE SMOOTH",
"538 542 OFFCURVE",
"500 550 OFFCURVE",
"450 550 CURVE SMOOTH",
"400 550 LINE",
"400 800 LINE SMOOTH",
"400 876 OFFCURVE",
"408 919 OFFCURVE",
"425 928 CURVE SMOOTH",
"441 938 OFFCURVE",
"461 943 OFFCURVE",
"486 943 CURVE SMOOTH",
"511 943 OFFCURVE",
"569 917 OFFCURVE",
"662 864 CURVE SMOOTH",
"754 811 OFFCURVE",
"800 773 OFFCURVE",
"800 750 CURVE SMOOTH",
"800 -50 LINE",
"1000 150 LINE",
"1000 800 LINE SMOOTH",
"1000 867 OFFCURVE",
"920 946 OFFCURVE",
"759 1037 CURVE SMOOTH",
"686 1079 OFFCURVE",
"633 1100 OFFCURVE",
"600 1100 CURVE SMOOTH",
"567 1100 OFFCURVE",
"492 1067 OFFCURVE",
"375 1000 CURVE SMOOTH",
"258 933 OFFCURVE",
"200 867 OFFCURVE",
"200 800 CURVE SMOOTH",
"200 40 LINE SMOOTH"
);
},
{
closed = 1;
nodes = (
"477 450 OFFCURVE",
"490 441 OFFCURVE",
"490 424 CURVE SMOOTH",
"490 407 OFFCURVE",
"460 368 OFFCURVE",
"400 309 CURVE",
"400 450 LINE",
"450 450 LINE SMOOTH"
);
}
);
width = 1200;
}
);
note = uni17A5;
unicode = 17A5;
},
{
glyphname = uni17A6;
lastChange = "2021-04-01 12:34:42 +0000";
layers = (
{
layerId = "27714DAC-5FBA-4222-9599-87EDA629626A";
paths = (
{
closed = 1;
nodes = (
"1029 -775 OFFCURVE",
"1111 -800 OFFCURVE",
"1200 -800 CURVE SMOOTH",
"1467 -800 OFFCURVE",
"1600 -700 OFFCURVE",
"1600 -500 CURVE SMOOTH",
"1600 924 LINE SMOOTH",
"1600 977 OFFCURVE",
"1579 1020 OFFCURVE",
"1537 1053 CURVE SMOOTH",
"1495 1087 OFFCURVE",
"1432 1112 OFFCURVE",
"1348 1127 CURVE",
"1417 1300 LINE",
"1511 1300 LINE SMOOTH",
"1536 1300 OFFCURVE",
"1549 1290 OFFCURVE",
"1549 1271 CURVE SMOOTH",
"1549 1266 LINE SMOOTH",
"1546 1243 OFFCURVE",
"1540 1221 OFFCURVE",
"1531 1200 CURVE",
"1540 1197 OFFCURVE",
"1548 1196 OFFCURVE",
"1556 1196 CURVE SMOOTH",
"1596 1196 OFFCURVE",
"1639 1224 OFFCURVE",
"1686 1279 CURVE SMOOTH",
"1742 1346 OFFCURVE",
"1770 1453 OFFCURVE",
"1770 1600 CURVE SMOOTH",
"1770 1687 OFFCURVE",
"1748 1764 OFFCURVE",
"1703 1833 CURVE SMOOTH",
"1658 1902 OFFCURVE",
"1636 1956 OFFCURVE",
"1635 1996 CURVE SMOOTH",
"1635 2055 OFFCURVE",
"1661 2121 OFFCURVE",
"1714 2194 CURVE",
"1626 2164 OFFCURVE",
"1563 2124 OFFCURVE",
"1526 2074 CURVE SMOOTH",
"1489 2025 OFFCURVE",
"1470 1972 OFFCURVE",
"1470 1917 CURVE SMOOTH",
"1470 1859 OFFCURVE",
"1507 1773 OFFCURVE",
"1582 1660 CURVE SMOOTH",
"1652 1554 OFFCURVE",
"1687 1487 OFFCURVE",
"1687 1460 CURVE SMOOTH",
"1687 1455 LINE",
"1683 1432 OFFCURVE",
"1667 1406 OFFCURVE",
"1640 1378 CURVE",
"1640 1419 OFFCURVE",
"1633 1449 OFFCURVE",
"1618 1470 CURVE SMOOTH",
"1603 1490 OFFCURVE",
"1580 1500 OFFCURVE",
"1550 1500 CURVE SMOOTH",
"1400 1500 LINE",
"1235 1086 LINE SMOOTH",
"1218 1046 OFFCURVE",
"1210 1013 OFFCURVE",
"1210 986 CURVE SMOOTH",
"1210 959 OFFCURVE",
"1226 944 OFFCURVE",
"1258 940 CURVE SMOOTH",
"1353 927 OFFCURVE",
"1400 900 OFFCURVE",
"1400 860 CURVE SMOOTH",
"1400 -500 LINE SMOOTH",
"1400 -633 OFFCURVE",
"1345 -700 OFFCURVE",
"1235 -700 CURVE SMOOTH",
"1125 -700 OFFCURVE",
"1047 -633 OFFCURVE",
"1000 -500 CURVE",
"1000 -400 LINE SMOOTH",
"1000 -333 OFFCURVE",
"920 -254 OFFCURVE",
"759 -163 CURVE SMOOTH",
"686 -121 OFFCURVE",
"633 -100 OFFCURVE",
"600 -100 CURVE SMOOTH",
"567 -100 OFFCURVE",
"492 -133 OFFCURVE",
"375 -200 CURVE SMOOTH",
"258 -267 OFFCURVE",
"200 -317 OFFCURVE",
"200 -350 CURVE SMOOTH",
"200 -700 LINE SMOOTH",
"200 -767 OFFCURVE",
"233 -800 OFFCURVE",
"300 -800 CURVE SMOOTH",
"367 -800 OFFCURVE",
"423 -777 OFFCURVE",
"469 -731 CURVE SMOOTH",
"556 -644 OFFCURVE",
"600 -566 OFFCURVE",
"600 -499 CURVE SMOOTH",
"600 -466 OFFCURVE",
"588 -441 OFFCURVE",
"563 -425 CURVE SMOOTH",
"538 -408 OFFCURVE",
"500 -400 OFFCURVE",
"450 -400 CURVE SMOOTH",
"400 -400 LINE",
"400 -350 LINE SMOOTH",
"400 -307 OFFCURVE",
"408 -281 OFFCURVE",
"425 -272 CURVE SMOOTH",
"441 -262 OFFCURVE",
"461 -257 OFFCURVE",
"486 -257 CURVE SMOOTH",
"511 -257 OFFCURVE",
"569 -283 OFFCURVE",
"662 -336 CURVE SMOOTH",
"754 -389 OFFCURVE",
"800 -427 OFFCURVE",
"800 -450 CURVE SMOOTH",
"800 -820 LINE",
"956 -726 LINE"
);
},
{
closed = 1;
nodes = (
"200 13 OFFCURVE",
"208 0 OFFCURVE",
"225 0 CURVE SMOOTH",
"242 0 OFFCURVE",
"265 15 OFFCURVE",
"294 44 CURVE SMOOTH",
"469 219 LINE SMOOTH",
"556 306 OFFCURVE",
"600 400 OFFCURVE",
"600 500 CURVE SMOOTH",
"600 600 OFFCURVE",
"550 650 OFFCURVE",
"450 650 CURVE SMOOTH",
"400 650 LINE",
"400 1200 LINE SMOOTH",
"400 1276 OFFCURVE",
"408 1319 OFFCURVE",
"425 1328 CURVE SMOOTH",
"441 1338 OFFCURVE",
"461 1343 OFFCURVE",
"486 1343 CURVE SMOOTH",
"511 1343 OFFCURVE",
"569 1317 OFFCURVE",
"662 1264 CURVE SMOOTH",
"754 1211 OFFCURVE",
"800 1173 OFFCURVE",
"800 1150 CURVE SMOOTH",
"800 -50 LINE",
"1000 150 LINE",
"1000 1200 LINE SMOOTH",
"1000 1267 OFFCURVE",
"920 1346 OFFCURVE",
"759 1437 CURVE SMOOTH",
"686 1479 OFFCURVE",
"633 1500 OFFCURVE",
"600 1500 CURVE SMOOTH",
"567 1500 OFFCURVE",
"492 1467 OFFCURVE",
"375 1400 CURVE SMOOTH",
"258 1333 OFFCURVE",
"200 1267 OFFCURVE",
"200 1200 CURVE SMOOTH",
"200 40 LINE SMOOTH"
);
},
{
closed = 1;
nodes = (
"477 500 OFFCURVE",
"490 486 OFFCURVE",
"490 459 CURVE SMOOTH",
"490 418 OFFCURVE",
"460 368 OFFCURVE",
"400 309 CURVE",
"400 500 LINE",
"450 500 LINE SMOOTH"
);
},
{
closed = 1;
nodes = (
"477 -500 OFFCURVE",
"490 -509 OFFCURVE",
"490 -526 CURVE SMOOTH",
"490 -543 OFFCURVE",
"460 -582 OFFCURVE",
"400 -641 CURVE",
"400 -500 LINE",
"450 -500 LINE SMOOTH"
);
}
);
width = 1800;
}
);
note = uni17A6;
unicode = 17A6;
},
{
glyphname = uni17A7;
lastChange = "2021-04-01 12:34:42 +0000";
layers = (
{
layerId = "27714DAC-5FBA-4222-9599-87EDA629626A";
paths = (
{
closed = 1;
nodes = (
"200 233 OFFCURVE",
"258 167 OFFCURVE",
"375 100 CURVE SMOOTH",
"492 33 OFFCURVE",
"567 0 OFFCURVE",
"600 0 CURVE SMOOTH",
"633 0 OFFCURVE",
"686 21 OFFCURVE",
"759 63 CURVE SMOOTH",
"801 88 LINE",
"801 -110 LINE SMOOTH",
"801 -157 OFFCURVE",
"786 -189 OFFCURVE",
"757 -206 CURVE SMOOTH",
"751 -210 OFFCURVE",
"743 -212 OFFCURVE",
"733 -212 CURVE SMOOTH",
"696 -212 OFFCURVE",
"635 -187 OFFCURVE",
"550 -137 CURVE SMOOTH",
"511 -114 OFFCURVE",
"471 -102 OFFCURVE",
"432 -102 CURVE SMOOTH",
"417 -102 OFFCURVE",
"402 -104 OFFCURVE",
"387 -107 CURVE SMOOTH",
"333 -118 OFFCURVE",
"288 -143 OFFCURVE",
"252 -180 CURVE SMOOTH",
"216 -217 OFFCURVE",
"194 -248 OFFCURVE",
"186 -274 CURVE SMOOTH",
"181 -291 OFFCURVE",
"178 -311 OFFCURVE",
"178 -332 CURVE SMOOTH",
"178 -342 OFFCURVE",
"179 -352 OFFCURVE",
"180 -363 CURVE",
"229 -304 OFFCURVE",
"275 -275 OFFCURVE",
"318 -275 CURVE SMOOTH",
"325 -275 LINE SMOOTH",
"370 -278 OFFCURVE",
"415 -292 OFFCURVE",
"461 -318 CURVE SMOOTH",
"498 -339 OFFCURVE",
"539 -350 OFFCURVE",
"583 -350 CURVE SMOOTH",
"593 -350 OFFCURVE",
"603 -349 OFFCURVE",
"614 -348 CURVE SMOOTH",
"671 -342 OFFCURVE",
"732 -320 OFFCURVE",
"799 -281 CURVE SMOOTH",
"933 -204 OFFCURVE",
"1000 -131 OFFCURVE",
"1000 -60 CURVE SMOOTH",
"1000 750 LINE",
"800 550 LINE",
"800 202 LINE",
"706 145 LINE SMOOTH",
"693 136 OFFCURVE",
"678 132 OFFCURVE",
"662 132 CURVE SMOOTH",
"599 132 OFFCURVE",
"512 195 OFFCURVE",
"400 320 CURVE",
"400 510 LINE",
"700 710 LINE SMOOTH",
"900 843 OFFCURVE",
"1000 940 OFFCURVE",
"1000 1000 CURVE SMOOTH",
"1000 1200 LINE SMOOTH",
"1000 1267 OFFCURVE",
"920 1346 OFFCURVE",
"759 1437 CURVE SMOOTH",
"686 1479 OFFCURVE",
"633 1500 OFFCURVE",
"600 1500 CURVE SMOOTH",
"567 1500 OFFCURVE",
"492 1467 OFFCURVE",
"375 1400 CURVE SMOOTH",
"258 1333 OFFCURVE",
"200 1267 OFFCURVE",
"200 1200 CURVE SMOOTH",
"200 880 LINE SMOOTH",
"200 827 OFFCURVE",
"215 800 OFFCURVE",
"245 800 CURVE SMOOTH",
"282 800 OFFCURVE",
"350 832 OFFCURVE",
"450 895 CURVE SMOOTH",
"550 958 OFFCURVE",
"600 1025 OFFCURVE",
"600 1095 CURVE SMOOTH",
"600 1165 OFFCURVE",
"547 1200 OFFCURVE",
"440 1200 CURVE SMOOTH",
"400 1200 LINE",
"400 1276 OFFCURVE",
"408 1319 OFFCURVE",
"425 1328 CURVE SMOOTH",
"441 1338 OFFCURVE",
"461 1343 OFFCURVE",
"486 1343 CURVE SMOOTH",
"511 1343 OFFCURVE",
"569 1317 OFFCURVE",
"662 1264 CURVE SMOOTH",
"754 1211 OFFCURVE",
"800 1173 OFFCURVE",
"800 1150 CURVE SMOOTH",
"800 1000 LINE SMOOTH",
"800 940 OFFCURVE",
"733 863 OFFCURVE",
"600 770 CURVE SMOOTH",
"467 677 OFFCURVE",
"333 630 OFFCURVE",
"200 630 CURVE",
"200 300 LINE SMOOTH"
);
},
{
closed = 1;
nodes = (
"457 1090 OFFCURVE",
"468 1081 OFFCURVE",
"468 1062 CURVE SMOOTH",
"468 1049 OFFCURVE",
"445 1030 OFFCURVE",
"400 1005 CURVE",
"400 1090 LINE",
"434 1090 LINE SMOOTH"
);
}
);
width = 1200;
}
);
note = uni17A7;
unicode = 17A7;
},
{
glyphname = uni17A8;
lastChange = "2021-04-01 12:34:42 +0000";
layers = (
{
layerId = "27714DAC-5FBA-4222-9599-87EDA629626A";
paths = (
{
closed = 1;
nodes = (
"335 1400 OFFCURVE",
"371 1424 OFFCURVE",
"402 1461 CURVE SMOOTH",
"416 1478 OFFCURVE",
"423 1495 OFFCURVE",
"423 1511 CURVE SMOOTH",
"423 1530 OFFCURVE",
"413 1548 OFFCURVE",
"394 1565 CURVE SMOOTH",
"358 1597 OFFCURVE",
"318 1622 OFFCURVE",
"274 1640 CURVE",
"298 1690 LINE",
"560 1690 LINE SMOOTH",
"587 1690 OFFCURVE",
"600 1672 OFFCURVE",
"600 1637 CURVE SMOOTH",
"600 1619 OFFCURVE",
"597 1597 OFFCURVE",
"590 1570 CURVE",
"637 1650 OFFCURVE",
"681 1690 OFFCURVE",
"720 1690 CURVE SMOOTH",
"902 1690 LINE SMOOTH",
"927 1690 OFFCURVE",
"940 1680 OFFCURVE",
"940 1661 CURVE SMOOTH",
"940 1656 LINE SMOOTH",
"937 1633 OFFCURVE",
"928 1594 OFFCURVE",
"914 1541 CURVE",
"969 1578 OFFCURVE",
"1006 1626 OFFCURVE",
"1024 1683 CURVE SMOOTH",
"1041 1740 OFFCURVE",
"1050 1809 OFFCURVE",
"1050 1890 CURVE",
"760 1890 LINE SMOOTH",
"730 1890 OFFCURVE",
"693 1857 OFFCURVE",
"650 1790 CURVE",
"650 1857 OFFCURVE",
"637 1890 OFFCURVE",
"610 1890 CURVE SMOOTH",
"300 1890 LINE",
"100 1490 LINE",
"114 1490 LINE SMOOTH",
"153 1490 OFFCURVE",
"186 1483 OFFCURVE",
"215 1468 CURVE SMOOTH",
"248 1451 OFFCURVE",
"274 1425 OFFCURVE",
"294 1390 CURVE"
);
},
{
closed = 1;
nodes = (
"200 233 OFFCURVE",
"258 167 OFFCURVE",
"375 100 CURVE SMOOTH",
"492 33 OFFCURVE",
"567 0 OFFCURVE",
"600 0 CURVE SMOOTH",
"633 0 OFFCURVE",
"686 21 OFFCURVE",
"759 63 CURVE SMOOTH",
"801 88 LINE",
"801 -110 LINE SMOOTH",
"801 -157 OFFCURVE",
"786 -189 OFFCURVE",
"757 -206 CURVE SMOOTH",
"751 -210 OFFCURVE",
"743 -212 OFFCURVE",
"733 -212 CURVE SMOOTH",
"696 -212 OFFCURVE",
"635 -187 OFFCURVE",
"550 -137 CURVE SMOOTH",
"511 -114 OFFCURVE",
"471 -102 OFFCURVE",
"432 -102 CURVE SMOOTH",
"417 -102 OFFCURVE",
"402 -104 OFFCURVE",
"387 -107 CURVE SMOOTH",
"333 -118 OFFCURVE",
"288 -143 OFFCURVE",
"252 -180 CURVE SMOOTH",
"216 -217 OFFCURVE",
"194 -248 OFFCURVE",
"186 -274 CURVE SMOOTH",
"181 -292 OFFCURVE",
"178 -312 OFFCURVE",
"178 -333 CURVE SMOOTH",
"178 -342 OFFCURVE",
"179 -352 OFFCURVE",
"180 -363 CURVE",
"229 -304 OFFCURVE",
"275 -275 OFFCURVE",
"318 -275 CURVE SMOOTH",
"325 -275 LINE SMOOTH",
"370 -278 OFFCURVE",
"415 -292 OFFCURVE",
"461 -318 CURVE SMOOTH",
"498 -339 OFFCURVE",
"539 -350 OFFCURVE",
"583 -350 CURVE SMOOTH",
"593 -350 OFFCURVE",
"603 -349 OFFCURVE",
"614 -348 CURVE SMOOTH",
"671 -342 OFFCURVE",
"732 -320 OFFCURVE",
"799 -281 CURVE SMOOTH",
"933 -204 OFFCURVE",
"1000 -131 OFFCURVE",
"1000 -60 CURVE SMOOTH",
"1000 750 LINE",
"800 550 LINE",
"800 202 LINE",
"706 145 LINE SMOOTH",
"693 136 OFFCURVE",
"678 132 OFFCURVE",
"662 132 CURVE SMOOTH",
"599 132 OFFCURVE",
"512 195 OFFCURVE",
"400 320 CURVE",
"400 510 LINE",
"700 710 LINE SMOOTH",
"900 843 OFFCURVE",
"1000 940 OFFCURVE",
"1000 1000 CURVE SMOOTH",
"1000 1200 LINE SMOOTH",
"1000 1267 OFFCURVE",
"920 1346 OFFCURVE",
"759 1437 CURVE SMOOTH",
"686 1479 OFFCURVE",
"633 1500 OFFCURVE",
"600 1500 CURVE SMOOTH",
"567 1500 OFFCURVE",
"492 1467 OFFCURVE",
"375 1400 CURVE SMOOTH",
"258 1333 OFFCURVE",
"200 1267 OFFCURVE",
"200 1200 CURVE SMOOTH",
"200 880 LINE SMOOTH",
"200 827 OFFCURVE",
"215 800 OFFCURVE",
"245 800 CURVE SMOOTH",
"282 800 OFFCURVE",
"350 832 OFFCURVE",
"450 895 CURVE SMOOTH",
"550 958 OFFCURVE",
"600 1025 OFFCURVE",
"600 1095 CURVE SMOOTH",
"600 1165 OFFCURVE",
"547 1200 OFFCURVE",
"440 1200 CURVE SMOOTH",
"400 1200 LINE",
"400 1276 OFFCURVE",
"408 1319 OFFCURVE",
"425 1328 CURVE SMOOTH",
"441 1338 OFFCURVE",
"461 1343 OFFCURVE",
"486 1343 CURVE SMOOTH",
"511 1343 OFFCURVE",
"569 1317 OFFCURVE",
"662 1264 CURVE SMOOTH",
"754 1211 OFFCURVE",
"800 1173 OFFCURVE",
"800 1150 CURVE SMOOTH",
"800 1000 LINE SMOOTH",
"800 940 OFFCURVE",
"733 863 OFFCURVE",
"600 770 CURVE SMOOTH",
"467 677 OFFCURVE",
"333 630 OFFCURVE",
"200 630 CURVE",
"200 300 LINE SMOOTH"
);
},
{
closed = 1;
nodes = (
"457 1090 OFFCURVE",
"468 1081 OFFCURVE",
"468 1062 CURVE SMOOTH",
"468 1049 OFFCURVE",
"445 1030 OFFCURVE",
"400 1005 CURVE",
"400 1090 LINE",
"434 1090 LINE SMOOTH"
);
}
);
width = 1200;
}
);
note = uni17A8;
unicode = 17A8;
},
{
glyphname = uni17A9;
lastChange = "2021-04-01 12:34:42 +0000";
layers = (
{
layerId = "27714DAC-5FBA-4222-9599-87EDA629626A";
paths = (
{
closed = 1;
nodes = (
"200 233 OFFCURVE",
"258 167 OFFCURVE",
"375 100 CURVE SMOOTH",
"492 33 OFFCURVE",
"567 0 OFFCURVE",
"600 0 CURVE SMOOTH",
"633 0 OFFCURVE",
"686 21 OFFCURVE",
"759 63 CURVE SMOOTH",
"801 88 LINE",
"801 -110 LINE SMOOTH",
"801 -157 OFFCURVE",
"786 -189 OFFCURVE",
"757 -206 CURVE SMOOTH",
"751 -210 OFFCURVE",
"743 -212 OFFCURVE",
"733 -212 CURVE SMOOTH",
"696 -212 OFFCURVE",
"635 -187 OFFCURVE",
"550 -137 CURVE SMOOTH",
"511 -114 OFFCURVE",
"471 -102 OFFCURVE",
"432 -102 CURVE SMOOTH",
"417 -102 OFFCURVE",
"402 -104 OFFCURVE",
"387 -107 CURVE SMOOTH",
"333 -118 OFFCURVE",
"288 -143 OFFCURVE",
"252 -180 CURVE SMOOTH",
"216 -217 OFFCURVE",
"194 -248 OFFCURVE",
"186 -274 CURVE SMOOTH",
"181 -291 OFFCURVE",
"178 -311 OFFCURVE",
"178 -332 CURVE SMOOTH",
"178 -342 OFFCURVE",
"179 -352 OFFCURVE",
"180 -363 CURVE",
"229 -304 OFFCURVE",
"275 -275 OFFCURVE",
"318 -275 CURVE SMOOTH",
"325 -275 LINE SMOOTH",
"370 -278 OFFCURVE",
"415 -292 OFFCURVE",
"461 -318 CURVE SMOOTH",
"498 -339 OFFCURVE",
"539 -350 OFFCURVE",
"583 -350 CURVE SMOOTH",
"593 -350 OFFCURVE",
"603 -349 OFFCURVE",
"614 -348 CURVE SMOOTH",
"671 -342 OFFCURVE",
"732 -320 OFFCURVE",
"799 -281 CURVE SMOOTH",
"933 -204 OFFCURVE",
"1000 -131 OFFCURVE",
"1000 -60 CURVE SMOOTH",
"1000 750 LINE",
"800 550 LINE",
"800 202 LINE",
"706 145 LINE SMOOTH",
"693 136 OFFCURVE",
"678 132 OFFCURVE",
"662 132 CURVE SMOOTH",
"599 132 OFFCURVE",
"512 195 OFFCURVE",
"400 320 CURVE",
"400 510 LINE",
"700 710 LINE SMOOTH",
"900 843 OFFCURVE",
"1000 940 OFFCURVE",
"1000 1000 CURVE SMOOTH",
"1000 1200 LINE SMOOTH",
"1000 1267 OFFCURVE",
"920 1346 OFFCURVE",
"759 1437 CURVE SMOOTH",
"686 1479 OFFCURVE",
"633 1500 OFFCURVE",
"600 1500 CURVE SMOOTH",
"567 1500 OFFCURVE",
"492 1467 OFFCURVE",
"375 1400 CURVE SMOOTH",
"258 1333 OFFCURVE",
"200 1267 OFFCURVE",
"200 1200 CURVE SMOOTH",
"200 880 LINE SMOOTH",
"200 827 OFFCURVE",
"215 800 OFFCURVE",
"245 800 CURVE SMOOTH",
"282 800 OFFCURVE",
"350 832 OFFCURVE",
"450 895 CURVE SMOOTH",
"550 958 OFFCURVE",
"600 1025 OFFCURVE",
"600 1095 CURVE SMOOTH",
"600 1165 OFFCURVE",
"547 1200 OFFCURVE",
"440 1200 CURVE SMOOTH",
"400 1200 LINE",
"400 1276 OFFCURVE",
"408 1319 OFFCURVE",
"425 1328 CURVE SMOOTH",
"441 1338 OFFCURVE",
"461 1343 OFFCURVE",
"486 1343 CURVE SMOOTH",
"511 1343 OFFCURVE",
"569 1317 OFFCURVE",
"662 1264 CURVE SMOOTH",
"754 1211 OFFCURVE",
"800 1173 OFFCURVE",
"800 1150 CURVE SMOOTH",
"800 1000 LINE SMOOTH",
"800 940 OFFCURVE",
"733 863 OFFCURVE",
"600 770 CURVE SMOOTH",
"467 677 OFFCURVE",
"333 630 OFFCURVE",
"200 630 CURVE",
"200 300 LINE SMOOTH"
);
},
{
closed = 1;
nodes = (
"457 1090 OFFCURVE",
"468 1081 OFFCURVE",
"468 1062 CURVE SMOOTH",
"468 1049 OFFCURVE",
"445 1030 OFFCURVE",
"400 1005 CURVE",
"400 1090 LINE",
"434 1090 LINE SMOOTH"
);
},
{
closed = 1;
nodes = (
"1300 800 LINE",
"1100 600 LINE",
"1100 -300 LINE",
"1300 -100 LINE"
);
}
);
width = 1347;
}
);
note = uni17A9;
unicode = 17A9;
},
{
glyphname = uni17AA;
lastChange = "2021-04-01 12:34:42 +0000";
layers = (
{
layerId = "27714DAC-5FBA-4222-9599-87EDA629626A";
paths = (
{
closed = 1;
nodes = (
"806 1700 OFFCURVE",
"819 1690 OFFCURVE",
"819 1671 CURVE SMOOTH",
"819 1666 LINE SMOOTH",
"816 1643 OFFCURVE",
"810 1621 OFFCURVE",
"801 1600 CURVE",
"810 1597 OFFCURVE",
"818 1596 OFFCURVE",
"826 1596 CURVE SMOOTH",
"866 1596 OFFCURVE",
"909 1624 OFFCURVE",
"956 1679 CURVE SMOOTH",
"1012 1746 OFFCURVE",
"1040 1853 OFFCURVE",
"1040 2000 CURVE SMOOTH",
"1040 2087 OFFCURVE",
"1018 2164 OFFCURVE",
"973 2233 CURVE SMOOTH",
"928 2302 OFFCURVE",
"906 2356 OFFCURVE",
"905 2396 CURVE SMOOTH",
"905 2455 OFFCURVE",
"931 2521 OFFCURVE",
"984 2594 CURVE",
"896 2564 OFFCURVE",
"833 2524 OFFCURVE",
"796 2474 CURVE SMOOTH",
"759 2425 OFFCURVE",
"740 2372 OFFCURVE",
"740 2317 CURVE SMOOTH",
"740 2259 OFFCURVE",
"777 2173 OFFCURVE",
"852 2060 CURVE SMOOTH",
"922 1954 OFFCURVE",
"957 1887 OFFCURVE",
"957 1860 CURVE SMOOTH",
"957 1855 LINE",
"953 1832 OFFCURVE",
"937 1806 OFFCURVE",
"910 1778 CURVE",
"910 1819 OFFCURVE",
"903 1849 OFFCURVE",
"888 1870 CURVE SMOOTH",
"873 1890 OFFCURVE",
"850 1900 OFFCURVE",
"820 1900 CURVE SMOOTH",
"300 1900 LINE",
"100 1500 LINE",
"114 1500 LINE SMOOTH",
"153 1500 OFFCURVE",
"186 1493 OFFCURVE",
"215 1478 CURVE SMOOTH",
"248 1461 OFFCURVE",
"274 1435 OFFCURVE",
"294 1400 CURVE",
"335 1410 OFFCURVE",
"371 1434 OFFCURVE",
"402 1471 CURVE SMOOTH",
"416 1488 OFFCURVE",
"423 1505 OFFCURVE",
"423 1521 CURVE SMOOTH",
"423 1540 OFFCURVE",
"413 1558 OFFCURVE",
"394 1575 CURVE SMOOTH",
"358 1607 OFFCURVE",
"318 1632 OFFCURVE",
"274 1650 CURVE",
"298 1700 LINE",
"781 1700 LINE SMOOTH"
);
},
{
closed = 1;
nodes = (
"200 233 OFFCURVE",
"258 167 OFFCURVE",
"375 100 CURVE SMOOTH",
"492 33 OFFCURVE",
"567 0 OFFCURVE",
"600 0 CURVE SMOOTH",
"633 0 OFFCURVE",
"686 21 OFFCURVE",
"759 63 CURVE SMOOTH",
"801 88 LINE",
"801 -110 LINE SMOOTH",
"801 -157 OFFCURVE",
"786 -189 OFFCURVE",
"757 -206 CURVE SMOOTH",
"751 -210 OFFCURVE",
"743 -212 OFFCURVE",
"733 -212 CURVE SMOOTH",
"696 -212 OFFCURVE",
"635 -187 OFFCURVE",
"550 -137 CURVE SMOOTH",
"511 -114 OFFCURVE",
"471 -102 OFFCURVE",
"432 -102 CURVE SMOOTH",
"417 -102 OFFCURVE",
"402 -104 OFFCURVE",
"387 -107 CURVE SMOOTH",
"333 -118 OFFCURVE",
"288 -143 OFFCURVE",
"252 -180 CURVE SMOOTH",
"216 -217 OFFCURVE",
"194 -248 OFFCURVE",
"186 -274 CURVE SMOOTH",
"181 -292 OFFCURVE",
"178 -312 OFFCURVE",
"178 -333 CURVE SMOOTH",
"178 -342 OFFCURVE",
"179 -352 OFFCURVE",
"180 -363 CURVE",
"229 -304 OFFCURVE",
"275 -275 OFFCURVE",
"318 -275 CURVE SMOOTH",
"325 -275 LINE SMOOTH",
"370 -278 OFFCURVE",
"415 -292 OFFCURVE",
"461 -318 CURVE SMOOTH",
"498 -339 OFFCURVE",
"539 -350 OFFCURVE",
"583 -350 CURVE SMOOTH",
"593 -350 OFFCURVE",
"603 -349 OFFCURVE",
"614 -348 CURVE SMOOTH",
"671 -342 OFFCURVE",
"732 -320 OFFCURVE",
"799 -281 CURVE SMOOTH",
"933 -204 OFFCURVE",
"1000 -131 OFFCURVE",
"1000 -60 CURVE SMOOTH",
"1000 750 LINE",
"800 550 LINE",
"800 202 LINE",
"706 145 LINE SMOOTH",
"693 136 OFFCURVE",
"678 132 OFFCURVE",
"662 132 CURVE SMOOTH",
"599 132 OFFCURVE",
"512 195 OFFCURVE",
"400 320 CURVE",
"400 510 LINE",
"700 710 LINE SMOOTH",
"900 843 OFFCURVE",
"1000 940 OFFCURVE",
"1000 1000 CURVE SMOOTH",
"1000 1200 LINE SMOOTH",
"1000 1267 OFFCURVE",
"920 1346 OFFCURVE",
"759 1437 CURVE SMOOTH",
"686 1479 OFFCURVE",
"633 1500 OFFCURVE",
"600 1500 CURVE SMOOTH",
"567 1500 OFFCURVE",
"492 1467 OFFCURVE",
"375 1400 CURVE SMOOTH",
"258 1333 OFFCURVE",
"200 1267 OFFCURVE",
"200 1200 CURVE SMOOTH",
"200 880 LINE SMOOTH",
"200 827 OFFCURVE",
"215 800 OFFCURVE",
"245 800 CURVE SMOOTH",
"282 800 OFFCURVE",
"350 832 OFFCURVE",
"450 895 CURVE SMOOTH",
"550 958 OFFCURVE",
"600 1025 OFFCURVE",
"600 1095 CURVE SMOOTH",
"600 1165 OFFCURVE",
"547 1200 OFFCURVE",
"440 1200 CURVE SMOOTH",
"400 1200 LINE",
"400 1276 OFFCURVE",
"408 1319 OFFCURVE",
"425 1328 CURVE SMOOTH",
"441 1338 OFFCURVE",
"461 1343 OFFCURVE",
"486 1343 CURVE SMOOTH",
"511 1343 OFFCURVE",
"569 1317 OFFCURVE",
"662 1264 CURVE SMOOTH",
"754 1211 OFFCURVE",
"800 1173 OFFCURVE",
"800 1150 CURVE SMOOTH",
"800 1000 LINE SMOOTH",
"800 940 OFFCURVE",
"733 863 OFFCURVE",
"600 770 CURVE SMOOTH",
"467 677 OFFCURVE",
"333 630 OFFCURVE",
"200 630 CURVE",
"200 300 LINE SMOOTH"
);
},
{
closed = 1;
nodes = (
"457 1090 OFFCURVE",
"468 1081 OFFCURVE",
"468 1062 CURVE SMOOTH",
"468 1049 OFFCURVE",
"445 1030 OFFCURVE",
"400 1005 CURVE",
"400 1090 LINE",
"434 1090 LINE SMOOTH"
);
}
);
width = 1200;
}
);
note = uni17AA;
unicode = 17AA;
},
{
glyphname = uni17AB;
lastChange = "2021-04-01 12:34:42 +0000";
layers = (
{
layerId = "27714DAC-5FBA-4222-9599-87EDA629626A";
paths = (
{
closed = 1;
nodes = (
"1000 977 OFFCURVE",
"979 1020 OFFCURVE",
"937 1053 CURVE SMOOTH",
"895 1087 OFFCURVE",
"832 1112 OFFCURVE",
"748 1127 CURVE",
"817 1300 LINE",
"950 1300 LINE SMOOTH",
"983 1300 OFFCURVE",
"1000 1289 OFFCURVE",
"1000 1266 CURVE SMOOTH",
"1000 1243 OFFCURVE",
"995 1211 OFFCURVE",
"984 1170 CURVE",
"1026 1195 OFFCURVE",
"1056 1236 OFFCURVE",
"1074 1293 CURVE SMOOTH",
"1091 1350 OFFCURVE",
"1100 1419 OFFCURVE",
"1100 1500 CURVE",
"800 1500 LINE",
"635 1086 LINE SMOOTH",
"618 1046 OFFCURVE",
"610 1013 OFFCURVE",
"610 986 CURVE SMOOTH",
"610 959 OFFCURVE",
"626 944 OFFCURVE",
"658 940 CURVE SMOOTH",
"753 927 OFFCURVE",
"800 900 OFFCURVE",
"800 860 CURVE SMOOTH",
"800 300 LINE SMOOTH",
"800 224 OFFCURVE",
"791 181 OFFCURVE",
"774 172 CURVE SMOOTH",
"758 162 OFFCURVE",
"737 157 OFFCURVE",
"712 157 CURVE SMOOTH",
"687 157 OFFCURVE",
"624 184 OFFCURVE",
"524 237 CURVE SMOOTH",
"428 290 OFFCURVE",
"380 327 OFFCURVE",
"380 349 CURVE",
"393 363 OFFCURVE",
"400 383 OFFCURVE",
"400 410 CURVE SMOOTH",
"400 924 LINE SMOOTH",
"400 977 OFFCURVE",
"379 1020 OFFCURVE",
"337 1053 CURVE SMOOTH",
"295 1087 OFFCURVE",
"232 1112 OFFCURVE",
"148 1127 CURVE",
"217 1300 LINE",
"350 1300 LINE SMOOTH",
"383 1300 OFFCURVE",
"400 1289 OFFCURVE",
"400 1266 CURVE SMOOTH",
"400 1243 OFFCURVE",
"395 1211 OFFCURVE",
"384 1170 CURVE",
"426 1195 OFFCURVE",
"456 1236 OFFCURVE",
"474 1293 CURVE SMOOTH",
"491 1350 OFFCURVE",
"500 1419 OFFCURVE",
"500 1500 CURVE",
"200 1500 LINE",
"35 1086 LINE SMOOTH",
"18 1046 OFFCURVE",
"10 1013 OFFCURVE",
"10 986 CURVE SMOOTH",
"10 959 OFFCURVE",
"26 944 OFFCURVE",
"58 940 CURVE SMOOTH",
"153 927 OFFCURVE",
"200 900 OFFCURVE",
"200 860 CURVE SMOOTH",
"200 430 LINE SMOOTH",
"200 390 OFFCURVE",
"191 364 OFFCURVE",
"148 345 CURVE",
"169 282 OFFCURVE",
"201 230 OFFCURVE",
"242 191 CURVE SMOOTH",
"283 152 OFFCURVE",
"345 109 OFFCURVE",
"427 63 CURVE SMOOTH",
"502 21 OFFCURVE",
"556 0 OFFCURVE",
"590 0 CURVE SMOOTH",
"624 0 OFFCURVE",
"701 33 OFFCURVE",
"821 100 CURVE SMOOTH",
"940 167 OFFCURVE",
"1000 233 OFFCURVE",
"1000 300 CURVE SMOOTH",
"1000 924 LINE SMOOTH"
);
},
{
closed = 1;
nodes = (
"151 -402 OFFCURVE",
"175 -355 OFFCURVE",
"206 -342 CURVE SMOOTH",
"213 -339 OFFCURVE",
"222 -338 OFFCURVE",
"234 -338 CURVE SMOOTH",
"280 -338 OFFCURVE",
"367 -356 OFFCURVE",
"495 -393 CURVE SMOOTH",
"557 -411 OFFCURVE",
"617 -420 OFFCURVE",
"674 -420 CURVE SMOOTH",
"733 -420 OFFCURVE",
"789 -411 OFFCURVE",
"842 -392 CURVE SMOOTH",
"947 -355 OFFCURVE",
"1000 -280 OFFCURVE",
"1000 -169 CURVE SMOOTH",
"1000 -113 OFFCURVE",
"986 -71 OFFCURVE",
"957 -43 CURVE SMOOTH",
"929 -14 OFFCURVE",
"887 0 OFFCURVE",
"830 0 CURVE",
"670 -200 LINE",
"728 -180 OFFCURVE",
"774 -170 OFFCURVE",
"807 -170 CURVE SMOOTH",
"824 -170 OFFCURVE",
"837 -173 OFFCURVE",
"847 -178 CURVE SMOOTH",
"877 -193 OFFCURVE",
"892 -215 OFFCURVE",
"892 -246 CURVE SMOOTH",
"892 -257 OFFCURVE",
"879 -262 OFFCURVE",
"853 -262 CURVE SMOOTH",
"802 -262 OFFCURVE",
"699 -241 OFFCURVE",
"546 -199 CURVE SMOOTH",
"499 -186 OFFCURVE",
"454 -180 OFFCURVE",
"411 -180 CURVE SMOOTH",
"348 -180 OFFCURVE",
"290 -193 OFFCURVE",
"236 -220 CURVE SMOOTH",
"145 -265 OFFCURVE",
"99 -314 OFFCURVE",
"99 -368 CURVE SMOOTH",
"99 -369 OFFCURVE",
"99 -369 OFFCURVE",
"100 -369 CURVE",
"100 -424 OFFCURVE",
"112 -462 OFFCURVE",
"136 -485 CURVE"
);
}
);
width = 1200;
}
);
note = uni17AB;
unicode = 17AB;
},
{
glyphname = uni17AC;
lastChange = "2021-04-01 12:34:42 +0000";
layers = (
{
layerId = "27714DAC-5FBA-4222-9599-87EDA629626A";
paths = (
{
closed = 1;
nodes = (
"1000 977 OFFCURVE",
"979 1020 OFFCURVE",
"937 1053 CURVE SMOOTH",
"895 1087 OFFCURVE",
"832 1112 OFFCURVE",
"748 1127 CURVE",
"817 1300 LINE",
"950 1300 LINE SMOOTH",
"983 1300 OFFCURVE",
"1000 1289 OFFCURVE",
"1000 1266 CURVE SMOOTH",
"1000 1243 OFFCURVE",
"995 1211 OFFCURVE",
"984 1170 CURVE",
"1026 1195 OFFCURVE",
"1056 1236 OFFCURVE",
"1074 1293 CURVE SMOOTH",
"1091 1350 OFFCURVE",
"1100 1419 OFFCURVE",
"1100 1500 CURVE",
"800 1500 LINE",
"635 1086 LINE SMOOTH",
"618 1046 OFFCURVE",
"610 1013 OFFCURVE",
"610 986 CURVE SMOOTH",
"610 959 OFFCURVE",
"626 944 OFFCURVE",
"658 940 CURVE SMOOTH",
"753 927 OFFCURVE",
"800 900 OFFCURVE",
"800 860 CURVE SMOOTH",
"800 300 LINE SMOOTH",
"800 224 OFFCURVE",
"791 181 OFFCURVE",
"774 172 CURVE SMOOTH",
"758 162 OFFCURVE",
"737 157 OFFCURVE",
"712 157 CURVE SMOOTH",
"687 157 OFFCURVE",
"624 184 OFFCURVE",
"524 237 CURVE SMOOTH",
"428 290 OFFCURVE",
"380 327 OFFCURVE",
"380 349 CURVE",
"393 363 OFFCURVE",
"400 383 OFFCURVE",
"400 410 CURVE SMOOTH",
"400 924 LINE SMOOTH",
"400 977 OFFCURVE",
"379 1020 OFFCURVE",
"337 1053 CURVE SMOOTH",
"295 1087 OFFCURVE",
"232 1112 OFFCURVE",
"148 1127 CURVE",
"217 1300 LINE",
"350 1300 LINE SMOOTH",
"383 1300 OFFCURVE",
"400 1289 OFFCURVE",
"400 1266 CURVE SMOOTH",
"400 1243 OFFCURVE",
"395 1211 OFFCURVE",
"384 1170 CURVE",
"426 1195 OFFCURVE",
"456 1236 OFFCURVE",
"474 1293 CURVE SMOOTH",
"491 1350 OFFCURVE",
"500 1419 OFFCURVE",
"500 1500 CURVE",
"200 1500 LINE",
"35 1086 LINE SMOOTH",
"18 1046 OFFCURVE",
"10 1013 OFFCURVE",
"10 986 CURVE SMOOTH",
"10 959 OFFCURVE",
"26 944 OFFCURVE",
"58 940 CURVE SMOOTH",
"153 927 OFFCURVE",
"200 900 OFFCURVE",
"200 860 CURVE SMOOTH",
"200 430 LINE SMOOTH",
"200 390 OFFCURVE",
"191 364 OFFCURVE",
"148 345 CURVE",
"169 282 OFFCURVE",
"201 230 OFFCURVE",
"242 191 CURVE SMOOTH",
"283 152 OFFCURVE",
"345 109 OFFCURVE",
"427 63 CURVE SMOOTH",
"502 21 OFFCURVE",
"556 0 OFFCURVE",
"590 0 CURVE SMOOTH",
"624 0 OFFCURVE",
"701 33 OFFCURVE",
"821 100 CURVE SMOOTH",
"940 167 OFFCURVE",
"1000 233 OFFCURVE",
"1000 300 CURVE SMOOTH",
"1000 924 LINE SMOOTH"
);
},
{
closed = 1;
nodes = (
"884 -450 OFFCURVE",
"940 -483 OFFCURVE",
"991 -498 CURVE SMOOTH",
"1010 -503 OFFCURVE",
"1030 -506 OFFCURVE",
"1053 -506 CURVE SMOOTH",
"1106 -506 OFFCURVE",
"1168 -491 OFFCURVE",
"1240 -462 CURVE",
"1155 -442 OFFCURVE",
"1091 -416 OFFCURVE",
"1050 -385 CURVE SMOOTH",
"1020 -361 OFFCURVE",
"996 -326 OFFCURVE",
"978 -279 CURVE",
"993 -247 OFFCURVE",
"1000 -210 OFFCURVE",
"1000 -169 CURVE SMOOTH",
"1000 -113 OFFCURVE",
"986 -71 OFFCURVE",
"957 -43 CURVE SMOOTH",
"929 -14 OFFCURVE",
"887 0 OFFCURVE",
"830 0 CURVE",
"670 -200 LINE",
"728 -180 OFFCURVE",
"774 -170 OFFCURVE",
"807 -170 CURVE SMOOTH",
"824 -170 OFFCURVE",
"837 -173 OFFCURVE",
"847 -178 CURVE SMOOTH",
"877 -193 OFFCURVE",
"892 -215 OFFCURVE",
"892 -246 CURVE SMOOTH",
"892 -257 OFFCURVE",
"879 -262 OFFCURVE",
"853 -262 CURVE SMOOTH",
"802 -262 OFFCURVE",
"699 -241 OFFCURVE",
"546 -199 CURVE SMOOTH",
"499 -186 OFFCURVE",
"454 -180 OFFCURVE",
"411 -180 CURVE SMOOTH",
"348 -180 OFFCURVE",
"290 -193 OFFCURVE",
"236 -220 CURVE SMOOTH",
"145 -265 OFFCURVE",
"99 -314 OFFCURVE",
"99 -368 CURVE SMOOTH",
"99 -369 OFFCURVE",
"99 -369 OFFCURVE",
"100 -369 CURVE",
"100 -424 OFFCURVE",
"112 -462 OFFCURVE",
"136 -485 CURVE",
"151 -402 OFFCURVE",
"175 -355 OFFCURVE",
"206 -342 CURVE SMOOTH",
"213 -339 OFFCURVE",
"222 -338 OFFCURVE",
"234 -338 CURVE SMOOTH",
"280 -338 OFFCURVE",
"367 -356 OFFCURVE",
"495 -393 CURVE SMOOTH",
"557 -411 OFFCURVE",
"616 -420 OFFCURVE",
"673 -420 CURVE SMOOTH",
"726 -420 OFFCURVE",
"776 -412 OFFCURVE",
"825 -397 CURVE"
);
}
);
width = 1200;
}
);
note = uni17AC;
unicode = 17AC;
},
{
glyphname = uni17AD;
lastChange = "2021-04-01 12:34:42 +0000";
layers = (
{
layerId = "27714DAC-5FBA-4222-9599-87EDA629626A";
paths = (
{
closed = 1;
nodes = (
"728 -180 OFFCURVE",
"774 -170 OFFCURVE",
"807 -170 CURVE SMOOTH",
"824 -170 OFFCURVE",
"837 -173 OFFCURVE",
"847 -178 CURVE SMOOTH",
"877 -193 OFFCURVE",
"892 -215 OFFCURVE",
"892 -246 CURVE SMOOTH",
"892 -257 OFFCURVE",
"879 -262 OFFCURVE",
"853 -262 CURVE SMOOTH",
"802 -262 OFFCURVE",
"699 -241 OFFCURVE",
"546 -199 CURVE SMOOTH",
"499 -186 OFFCURVE",
"454 -180 OFFCURVE",
"411 -180 CURVE SMOOTH",
"348 -180 OFFCURVE",
"290 -193 OFFCURVE",
"236 -220 CURVE SMOOTH",
"145 -265 OFFCURVE",
"99 -314 OFFCURVE",
"99 -368 CURVE SMOOTH",
"99 -369 OFFCURVE",
"99 -369 OFFCURVE",
"100 -369 CURVE",
"100 -424 OFFCURVE",
"112 -462 OFFCURVE",
"136 -485 CURVE",
"151 -402 OFFCURVE",
"175 -355 OFFCURVE",
"206 -342 CURVE SMOOTH",
"213 -339 OFFCURVE",
"222 -338 OFFCURVE",
"234 -338 CURVE SMOOTH",
"280 -338 OFFCURVE",
"367 -356 OFFCURVE",
"495 -393 CURVE SMOOTH",
"557 -411 OFFCURVE",
"617 -420 OFFCURVE",
"674 -420 CURVE SMOOTH",
"733 -420 OFFCURVE",
"789 -411 OFFCURVE",
"842 -392 CURVE SMOOTH",
"947 -355 OFFCURVE",
"1000 -280 OFFCURVE",
"1000 -169 CURVE SMOOTH",
"1000 -113 OFFCURVE",
"986 -71 OFFCURVE",
"957 -43 CURVE SMOOTH",
"932 -18 OFFCURVE",
"896 -3 OFFCURVE",
"849 0 CURVE",
"1000 150 LINE",
"1000 1500 LINE",
"730 1500 LINE SMOOTH",
"673 1500 OFFCURVE",
"620 1457 OFFCURVE",
"570 1370 CURVE",
"570 1457 OFFCURVE",
"547 1500 OFFCURVE",
"500 1500 CURVE SMOOTH",
"200 1500 LINE",
"55 1126 LINE SMOOTH",
"38 1086 OFFCURVE",
"30 1053 OFFCURVE",
"30 1026 CURVE SMOOTH",
"30 999 OFFCURVE",
"46 984 OFFCURVE",
"78 980 CURVE SMOOTH",
"159 967 OFFCURVE",
"200 940 OFFCURVE",
"200 900 CURVE SMOOTH",
"200 40 LINE SMOOTH",
"200 13 OFFCURVE",
"208 0 OFFCURVE",
"225 0 CURVE SMOOTH",
"242 0 OFFCURVE",
"265 15 OFFCURVE",
"294 44 CURVE SMOOTH",
"469 219 LINE SMOOTH",
"556 306 OFFCURVE",
"600 400 OFFCURVE",
"600 500 CURVE SMOOTH",
"600 600 OFFCURVE",
"550 650 OFFCURVE",
"450 650 CURVE SMOOTH",
"400 650 LINE",
"400 964 LINE SMOOTH",
"400 1017 OFFCURVE",
"379 1060 OFFCURVE",
"337 1094 CURVE SMOOTH",
"295 1127 OFFCURVE",
"239 1152 OFFCURVE",
"168 1167 CURVE",
"217 1300 LINE",
"460 1300 LINE SMOOTH",
"489 1300 OFFCURVE",
"504 1278 OFFCURVE",
"504 1234 CURVE SMOOTH",
"504 1218 OFFCURVE",
"502 1200 OFFCURVE",
"499 1179 CURVE SMOOTH",
"492 1138 LINE",
"571 1246 OFFCURVE",
"641 1300 OFFCURVE",
"700 1300 CURVE SMOOTH",
"800 1300 LINE",
"800 -37 LINE",
"670 -200 LINE"
);
},
{
closed = 1;
nodes = (
"477 500 OFFCURVE",
"490 486 OFFCURVE",
"490 459 CURVE SMOOTH",
"490 418 OFFCURVE",
"460 368 OFFCURVE",
"400 309 CURVE",
"400 500 LINE",
"450 500 LINE SMOOTH"
);
}
);
width = 1200;
}
);
note = uni17AD;
unicode = 17AD;
},
{
glyphname = uni17AE;
lastChange = "2021-04-01 12:34:42 +0000";
layers = (
{
layerId = "27714DAC-5FBA-4222-9599-87EDA629626A";
paths = (
{
closed = 1;
nodes = (
"728 -180 OFFCURVE",
"774 -170 OFFCURVE",
"807 -170 CURVE SMOOTH",
"824 -170 OFFCURVE",
"837 -173 OFFCURVE",
"847 -178 CURVE SMOOTH",
"877 -193 OFFCURVE",
"892 -215 OFFCURVE",
"892 -246 CURVE SMOOTH",
"892 -257 OFFCURVE",
"879 -262 OFFCURVE",
"853 -262 CURVE SMOOTH",
"802 -262 OFFCURVE",
"699 -241 OFFCURVE",
"546 -199 CURVE SMOOTH",
"499 -186 OFFCURVE",
"454 -180 OFFCURVE",
"411 -180 CURVE SMOOTH",
"348 -180 OFFCURVE",
"290 -193 OFFCURVE",
"236 -220 CURVE SMOOTH",
"145 -265 OFFCURVE",
"99 -314 OFFCURVE",
"99 -368 CURVE SMOOTH",
"99 -369 OFFCURVE",
"99 -369 OFFCURVE",
"100 -369 CURVE",
"100 -424 OFFCURVE",
"112 -462 OFFCURVE",
"136 -485 CURVE",
"151 -402 OFFCURVE",
"175 -355 OFFCURVE",
"206 -342 CURVE SMOOTH",
"213 -339 OFFCURVE",
"222 -338 OFFCURVE",
"234 -338 CURVE SMOOTH",
"280 -338 OFFCURVE",
"367 -356 OFFCURVE",
"495 -393 CURVE SMOOTH",
"557 -411 OFFCURVE",
"616 -420 OFFCURVE",
"673 -420 CURVE SMOOTH",
"726 -420 OFFCURVE",
"776 -412 OFFCURVE",
"825 -397 CURVE",
"884 -450 OFFCURVE",
"940 -483 OFFCURVE",
"991 -498 CURVE SMOOTH",
"1010 -503 OFFCURVE",
"1030 -506 OFFCURVE",
"1053 -506 CURVE SMOOTH",
"1106 -506 OFFCURVE",
"1168 -491 OFFCURVE",
"1240 -462 CURVE",
"1155 -442 OFFCURVE",
"1091 -416 OFFCURVE",
"1050 -385 CURVE SMOOTH",
"1020 -361 OFFCURVE",
"996 -326 OFFCURVE",
"978 -279 CURVE",
"993 -247 OFFCURVE",
"1000 -210 OFFCURVE",
"1000 -169 CURVE SMOOTH",
"1000 -113 OFFCURVE",
"986 -71 OFFCURVE",
"957 -43 CURVE SMOOTH",
"932 -18 OFFCURVE",
"896 -3 OFFCURVE",
"849 0 CURVE",
"1000 150 LINE",
"1000 1500 LINE",
"730 1500 LINE SMOOTH",
"673 1500 OFFCURVE",
"620 1457 OFFCURVE",
"570 1370 CURVE",
"570 1457 OFFCURVE",
"547 1500 OFFCURVE",
"500 1500 CURVE SMOOTH",
"200 1500 LINE",
"55 1126 LINE SMOOTH",
"38 1086 OFFCURVE",
"30 1053 OFFCURVE",
"30 1026 CURVE SMOOTH",
"30 999 OFFCURVE",
"46 984 OFFCURVE",
"78 980 CURVE SMOOTH",
"159 967 OFFCURVE",
"200 940 OFFCURVE",
"200 900 CURVE SMOOTH",
"200 40 LINE SMOOTH",
"200 13 OFFCURVE",
"208 0 OFFCURVE",
"225 0 CURVE SMOOTH",
"242 0 OFFCURVE",
"265 15 OFFCURVE",
"294 44 CURVE SMOOTH",
"469 219 LINE SMOOTH",
"556 306 OFFCURVE",
"600 400 OFFCURVE",
"600 500 CURVE SMOOTH",
"600 600 OFFCURVE",
"550 650 OFFCURVE",
"450 650 CURVE SMOOTH",
"400 650 LINE",
"400 964 LINE SMOOTH",
"400 1017 OFFCURVE",
"379 1060 OFFCURVE",
"337 1094 CURVE SMOOTH",
"295 1127 OFFCURVE",
"239 1152 OFFCURVE",
"168 1167 CURVE",
"217 1300 LINE",
"460 1300 LINE SMOOTH",
"489 1300 OFFCURVE",
"504 1278 OFFCURVE",
"504 1234 CURVE SMOOTH",
"504 1218 OFFCURVE",
"502 1200 OFFCURVE",
"499 1179 CURVE SMOOTH",
"492 1138 LINE",
"571 1246 OFFCURVE",
"641 1300 OFFCURVE",
"700 1300 CURVE SMOOTH",
"800 1300 LINE",
"800 -37 LINE",
"670 -200 LINE"
);
},
{
closed = 1;
nodes = (
"477 500 OFFCURVE",
"490 486 OFFCURVE",
"490 459 CURVE SMOOTH",
"490 418 OFFCURVE",
"460 368 OFFCURVE",
"400 309 CURVE",
"400 500 LINE",
"450 500 LINE SMOOTH"
);
}
);
width = 1200;
}
);
note = uni17AE;
unicode = 17AE;
},
{
glyphname = uni17AF;
lastChange = "2021-04-01 12:34:42 +0000";
layers = (
{
layerId = "27714DAC-5FBA-4222-9599-87EDA629626A";
paths = (
{
closed = 1;
nodes = (
"200 1179 OFFCURVE",
"233 1144 OFFCURVE",
"300 1144 CURVE SMOOTH",
"367 1144 OFFCURVE",
"400 1179 OFFCURVE",
"400 1250 CURVE SMOOTH",
"400 1293 OFFCURVE",
"408 1319 OFFCURVE",
"425 1328 CURVE SMOOTH",
"441 1338 OFFCURVE",
"461 1343 OFFCURVE",
"486 1343 CURVE SMOOTH",
"511 1343 OFFCURVE",
"569 1317 OFFCURVE",
"662 1264 CURVE SMOOTH",
"754 1211 OFFCURVE",
"800 1173 OFFCURVE",
"800 1150 CURVE SMOOTH",
"800 309 LINE",
"600 548 LINE",
"400 309 LINE",
"400 940 LINE",
"359 980 OFFCURVE",
"319 1000 OFFCURVE",
"280 1000 CURVE SMOOTH",
"240 1000 OFFCURVE",
"204 983 OFFCURVE",
"173 948 CURVE SMOOTH",
"78 843 LINE SMOOTH",
"46 808 OFFCURVE",
"30 757 OFFCURVE",
"30 690 CURVE SMOOTH",
"30 657 OFFCURVE",
"44 629 OFFCURVE",
"73 608 CURVE SMOOTH",
"200 510 LINE",
"200 40 LINE SMOOTH",
"200 13 OFFCURVE",
"208 0 OFFCURVE",
"225 0 CURVE SMOOTH",
"242 0 OFFCURVE",
"262 14 OFFCURVE",
"285 41 CURVE SMOOTH",
"526 327 LINE",
"732 82 LINE SMOOTH",
"777 27 OFFCURVE",
"808 0 OFFCURVE",
"825 0 CURVE SMOOTH",
"842 0 OFFCURVE",
"875 25 OFFCURVE",
"925 75 CURVE SMOOTH",
"1000 150 LINE",
"1000 1200 LINE SMOOTH",
"1000 1267 OFFCURVE",
"920 1346 OFFCURVE",
"759 1437 CURVE SMOOTH",
"686 1479 OFFCURVE",
"633 1500 OFFCURVE",
"600 1500 CURVE SMOOTH",
"569 1500 OFFCURVE",
"503 1471 OFFCURVE",
"400 1414 CURVE",
"400 1670 LINE SMOOTH",
"400 1823 OFFCURVE",
"360 1900 OFFCURVE",
"280 1900 CURVE SMOOTH",
"227 1900 OFFCURVE",
"167 1827 OFFCURVE",
"100 1680 CURVE",
"135 1700 OFFCURVE",
"160 1710 OFFCURVE",
"176 1710 CURVE SMOOTH",
"192 1710 OFFCURVE",
"200 1697 OFFCURVE",
"200 1670 CURVE SMOOTH",
"200 1250 LINE SMOOTH"
);
},
{
closed = 1;
nodes = (
"200 638 LINE",
"160 669 LINE",
"200 711 LINE"
);
}
);
width = 1200;
}
);
note = uni17AF;
unicode = 17AF;
},
{
glyphname = uni17B0;
lastChange = "2021-04-01 12:34:42 +0000";
layers = (
{
layerId = "27714DAC-5FBA-4222-9599-87EDA629626A";
paths = (
{
closed = 1;
nodes = (
"489 1300 OFFCURVE",
"504 1278 OFFCURVE",
"504 1234 CURVE SMOOTH",
"504 1218 OFFCURVE",
"502 1200 OFFCURVE",
"499 1179 CURVE SMOOTH",
"492 1138 LINE",
"571 1246 OFFCURVE",
"641 1300 OFFCURVE",
"700 1300 CURVE SMOOTH",
"800 1300 LINE",
"800 -50 LINE",
"1000 150 LINE",
"1000 1500 LINE",
"730 1500 LINE SMOOTH",
"673 1500 OFFCURVE",
"620 1457 OFFCURVE",
"570 1370 CURVE",
"570 1457 OFFCURVE",
"547 1500 OFFCURVE",
"500 1500 CURVE SMOOTH",
"200 1500 LINE",
"55 1126 LINE SMOOTH",
"38 1086 OFFCURVE",
"30 1053 OFFCURVE",
"30 1026 CURVE SMOOTH",
"30 999 OFFCURVE",
"46 984 OFFCURVE",
"78 980 CURVE SMOOTH",
"159 967 OFFCURVE",
"200 940 OFFCURVE",
"200 900 CURVE SMOOTH",
"200 40 LINE SMOOTH",
"200 13 OFFCURVE",
"208 0 OFFCURVE",
"225 0 CURVE SMOOTH",
"242 0 OFFCURVE",
"265 15 OFFCURVE",
"294 44 CURVE SMOOTH",
"469 219 LINE SMOOTH",
"556 306 OFFCURVE",
"600 400 OFFCURVE",
"600 500 CURVE SMOOTH",
"600 600 OFFCURVE",
"550 650 OFFCURVE",
"450 650 CURVE SMOOTH",
"400 650 LINE",
"400 964 LINE SMOOTH",
"400 1017 OFFCURVE",
"379 1060 OFFCURVE",
"337 1094 CURVE SMOOTH",
"295 1127 OFFCURVE",
"239 1152 OFFCURVE",
"168 1167 CURVE",
"217 1300 LINE",
"460 1300 LINE SMOOTH"
);
},
{
closed = 1;
nodes = (
"477 500 OFFCURVE",
"490 486 OFFCURVE",
"490 459 CURVE SMOOTH",
"490 418 OFFCURVE",
"460 368 OFFCURVE",
"400 309 CURVE",
"400 500 LINE",
"450 500 LINE SMOOTH"
);
},
{
closed = 1;
nodes = (
"833 -167 OFFCURVE",
"763 -211 OFFCURVE",
"688 -232 CURVE SMOOTH",
"350 -331 LINE SMOOTH",
"250 -360 OFFCURVE",
"200 -412 OFFCURVE",
"200 -486 CURVE SMOOTH",
"200 -560 OFFCURVE",
"217 -613 OFFCURVE",
"250 -646 CURVE SMOOTH",
"301 -695 OFFCURVE",
"351 -726 OFFCURVE",
"400 -740 CURVE SMOOTH",
"419 -745 OFFCURVE",
"438 -747 OFFCURVE",
"457 -747 CURVE SMOOTH",
"474 -747 LINE SMOOTH",
"499 -745 OFFCURVE",
"523 -739 OFFCURVE",
"547 -728 CURVE SMOOTH",
"595 -707 OFFCURVE",
"631 -679 OFFCURVE",
"656 -644 CURVE SMOOTH",
"681 -609 OFFCURVE",
"693 -568 OFFCURVE",
"694 -521 CURVE",
"711 -558 OFFCURVE",
"734 -579 OFFCURVE",
"764 -585 CURVE SMOOTH",
"769 -586 OFFCURVE",
"775 -587 OFFCURVE",
"782 -587 CURVE SMOOTH",
"807 -587 OFFCURVE",
"837 -577 OFFCURVE",
"872 -556 CURVE SMOOTH",
"915 -531 OFFCURVE",
"947 -497 OFFCURVE",
"968 -454 CURVE SMOOTH",
"989 -411 OFFCURVE",
"1000 -360 OFFCURVE",
"1000 -300 CURVE SMOOTH",
"1000 0 LINE",
"900 -100 LINE SMOOTH"
);
},
{
closed = 1;
nodes = (
"826 -417 OFFCURVE",
"829 -431 OFFCURVE",
"829 -442 CURVE SMOOTH",
"829 -460 OFFCURVE",
"822 -472 OFFCURVE",
"809 -479 CURVE SMOOTH",
"804 -481 OFFCURVE",
"800 -482 OFFCURVE",
"796 -482 CURVE SMOOTH",
"779 -482 OFFCURVE",
"764 -466 OFFCURVE",
"751 -433 CURVE",
"821 -401 LINE"
);
},
{
closed = 1;
nodes = (
"546 -512 OFFCURVE",
"547 -528 OFFCURVE",
"547 -543 CURVE SMOOTH",
"547 -591 OFFCURVE",
"533 -621 OFFCURVE",
"506 -633 CURVE SMOOTH",
"499 -636 OFFCURVE",
"492 -638 OFFCURVE",
"483 -638 CURVE SMOOTH",
"446 -638 OFFCURVE",
"393 -609 OFFCURVE",
"326 -551 CURVE",
"543 -493 LINE"
);
}
);
width = 1200;
}
);
note = uni17B0;
unicode = 17B0;
},
{
glyphname = uni17B1;
lastChange = "2021-04-01 12:34:42 +0000";
layers = (
{
layerId = "27714DAC-5FBA-4222-9599-87EDA629626A";
paths = (
{
closed = 1;
nodes = (
"335 1400 OFFCURVE",
"371 1424 OFFCURVE",
"402 1461 CURVE SMOOTH",
"416 1478 OFFCURVE",
"423 1495 OFFCURVE",
"423 1511 CURVE SMOOTH",
"423 1530 OFFCURVE",
"413 1548 OFFCURVE",
"394 1565 CURVE SMOOTH",
"358 1597 OFFCURVE",
"318 1622 OFFCURVE",
"274 1640 CURVE",
"298 1690 LINE",
"902 1690 LINE SMOOTH",
"927 1690 OFFCURVE",
"940 1680 OFFCURVE",
"940 1661 CURVE SMOOTH",
"940 1656 LINE SMOOTH",
"937 1633 OFFCURVE",
"928 1594 OFFCURVE",
"914 1541 CURVE",
"969 1578 OFFCURVE",
"1006 1626 OFFCURVE",
"1024 1683 CURVE SMOOTH",
"1041 1740 OFFCURVE",
"1050 1809 OFFCURVE",
"1050 1890 CURVE",
"300 1890 LINE",
"100 1490 LINE",
"114 1490 LINE SMOOTH",
"153 1490 OFFCURVE",
"186 1483 OFFCURVE",
"215 1468 CURVE SMOOTH",
"248 1451 OFFCURVE",
"274 1425 OFFCURVE",
"294 1390 CURVE"
);
},
{
closed = 1;
nodes = (
"200 233 OFFCURVE",
"258 167 OFFCURVE",
"375 100 CURVE SMOOTH",
"492 33 OFFCURVE",
"567 0 OFFCURVE",
"600 0 CURVE SMOOTH",
"633 0 OFFCURVE",
"686 21 OFFCURVE",
"759 63 CURVE SMOOTH",
"801 88 LINE",
"801 -110 LINE SMOOTH",
"801 -157 OFFCURVE",
"786 -189 OFFCURVE",
"757 -206 CURVE SMOOTH",
"751 -210 OFFCURVE",
"743 -212 OFFCURVE",
"733 -212 CURVE SMOOTH",
"696 -212 OFFCURVE",
"635 -187 OFFCURVE",
"550 -137 CURVE SMOOTH",
"511 -114 OFFCURVE",
"471 -102 OFFCURVE",
"432 -102 CURVE SMOOTH",
"417 -102 OFFCURVE",
"402 -104 OFFCURVE",
"387 -107 CURVE SMOOTH",
"333 -118 OFFCURVE",
"288 -143 OFFCURVE",
"252 -180 CURVE SMOOTH",
"216 -217 OFFCURVE",
"194 -248 OFFCURVE",
"186 -274 CURVE SMOOTH",
"181 -292 OFFCURVE",
"178 -312 OFFCURVE",
"178 -333 CURVE SMOOTH",
"178 -342 OFFCURVE",
"179 -352 OFFCURVE",
"180 -363 CURVE",
"229 -304 OFFCURVE",
"275 -275 OFFCURVE",
"318 -275 CURVE SMOOTH",
"325 -275 LINE SMOOTH",
"370 -278 OFFCURVE",
"415 -292 OFFCURVE",
"461 -318 CURVE SMOOTH",
"498 -339 OFFCURVE",
"539 -350 OFFCURVE",
"583 -350 CURVE SMOOTH",
"593 -350 OFFCURVE",
"603 -349 OFFCURVE",
"614 -348 CURVE SMOOTH",
"671 -342 OFFCURVE",
"732 -320 OFFCURVE",
"799 -281 CURVE SMOOTH",
"933 -204 OFFCURVE",
"1000 -131 OFFCURVE",
"1000 -60 CURVE SMOOTH",
"1000 750 LINE",
"800 550 LINE",
"800 202 LINE",
"706 145 LINE SMOOTH",
"693 136 OFFCURVE",
"678 132 OFFCURVE",
"662 132 CURVE SMOOTH",
"599 132 OFFCURVE",
"512 195 OFFCURVE",
"400 320 CURVE",
"400 510 LINE",
"700 710 LINE SMOOTH",
"900 843 OFFCURVE",
"1000 940 OFFCURVE",
"1000 1000 CURVE SMOOTH",
"1000 1200 LINE SMOOTH",
"1000 1267 OFFCURVE",
"920 1346 OFFCURVE",
"759 1437 CURVE SMOOTH",
"686 1479 OFFCURVE",
"633 1500 OFFCURVE",
"600 1500 CURVE SMOOTH",
"567 1500 OFFCURVE",
"492 1467 OFFCURVE",
"375 1400 CURVE SMOOTH",
"258 1333 OFFCURVE",
"200 1267 OFFCURVE",
"200 1200 CURVE SMOOTH",
"200 880 LINE SMOOTH",
"200 827 OFFCURVE",
"215 800 OFFCURVE",
"245 800 CURVE SMOOTH",
"282 800 OFFCURVE",
"350 832 OFFCURVE",
"450 895 CURVE SMOOTH",
"550 958 OFFCURVE",
"600 1025 OFFCURVE",
"600 1095 CURVE SMOOTH",
"600 1165 OFFCURVE",
"547 1200 OFFCURVE",
"440 1200 CURVE SMOOTH",
"400 1200 LINE",
"400 1276 OFFCURVE",
"408 1319 OFFCURVE",
"425 1328 CURVE SMOOTH",
"441 1338 OFFCURVE",
"461 1343 OFFCURVE",
"486 1343 CURVE SMOOTH",
"511 1343 OFFCURVE",
"569 1317 OFFCURVE",
"662 1264 CURVE SMOOTH",
"754 1211 OFFCURVE",
"800 1173 OFFCURVE",
"800 1150 CURVE SMOOTH",
"800 1000 LINE SMOOTH",
"800 940 OFFCURVE",
"733 863 OFFCURVE",
"600 770 CURVE SMOOTH",
"467 677 OFFCURVE",
"333 630 OFFCURVE",
"200 630 CURVE",
"200 300 LINE SMOOTH"
);
},
{
closed = 1;
nodes = (
"457 1090 OFFCURVE",
"468 1081 OFFCURVE",
"468 1062 CURVE SMOOTH",
"468 1049 OFFCURVE",
"445 1030 OFFCURVE",
"400 1005 CURVE",
"400 1090 LINE",
"434 1090 LINE SMOOTH"
);
}
);
width = 1200;
}
);
note = uni17B1;
unicode = 17B1;
},
